<?xml version="1.0" encoding="UTF-8"?>
<!DOCTYPE svg PUBLIC "-//W3C//DTD SVG 1.1//EN" "http://www.w3.org/Graphics/SVG/1.1/DTD/svg11.dtd">
<svg xmlns="http://www.w3.org/2000/svg" version="1.1" width="1080px" height="703px" style="shape-rendering:geometricPrecision; text-rendering:geometricPrecision; image-rendering:optimizeQuality; fill-rule:evenodd; clip-rule:evenodd" xmlns:xlink="http://www.w3.org/1999/xlink">
<g><path style="opacity:1" fill="#dadada" d="M -0.5,-0.5 C 8.5,-0.5 17.5,-0.5 26.5,-0.5C 26.3284,0.491622 26.6618,1.15829 27.5,1.5C 369,2.49984 710.666,2.83317 1052.5,2.5C 1052.5,1.5 1052.5,0.5 1052.5,-0.5C 1061.5,-0.5 1070.5,-0.5 1079.5,-0.5C 1079.5,233.167 1079.5,466.833 1079.5,700.5C 935.167,700.5 790.833,700.5 646.5,700.5C 648.029,695.46 651.029,691.46 655.5,688.5C 658.393,682.294 661.559,676.294 665,670.5C 667.208,661.29 668.708,651.956 669.5,642.5C 668.002,636.186 666.502,629.853 665,623.5C 664.667,624.5 664.333,625.5 664,626.5C 663.667,624.833 663.333,623.167 663,621.5C 662.667,621.833 662.333,622.167 662,622.5C 659.946,617.316 657.446,612.316 654.5,607.5C 655.803,604.645 655.803,601.645 654.5,598.5C 653.131,600.124 651.464,600.624 649.5,600C 645.402,596.22 641.069,592.887 636.5,590C 637.5,589.667 638.5,589.333 639.5,589C 636.922,587.217 634.089,586.051 631,585.5C 630.383,584.551 630.549,583.718 631.5,583C 634.525,582.867 637.192,581.867 639.5,580C 636.39,578.476 633.056,577.642 629.5,577.5C 629.5,578.833 629.5,580.167 629.5,581.5C 626.252,581.584 623.252,580.751 620.5,579C 622.706,576.654 625.206,576.154 628,577.5C 628.167,577.167 628.333,576.833 628.5,576.5C 627.333,576.167 626.167,575.833 625,575.5C 621.809,576.595 618.643,576.595 615.5,575.5C 612.937,575.737 612.937,576.237 615.5,577C 566.389,577.097 517.389,577.597 468.5,578.5C 464.681,578.605 461.014,579.438 457.5,581C 455.676,581.66 454.343,582.827 453.5,584.5C 451.77,585.026 450.436,586.026 449.5,587.5C 448.508,587.328 447.842,587.662 447.5,588.5C 439.446,592.887 433.446,599.221 429.5,607.5C 425.004,613.654 422.671,620.654 422.5,628.5C 421.51,634.645 421.177,640.978 421.5,647.5C 420.671,639.677 420.171,631.677 420,623.5C 419.727,625.329 418.893,626.829 417.5,628C 417.833,628.333 418.167,628.667 418.5,629C 416.35,631.159 416.017,633.659 417.5,636.5C 415.462,644.971 414.962,653.638 416,662.5C 419.453,675.063 426.287,685.897 436.5,695C 437.448,695.483 438.448,695.649 439.5,695.5C 439.5,696.5 439.5,697.5 439.5,698.5C 441.993,698.131 442.66,698.797 441.5,700.5C 294.167,700.5 146.833,700.5 -0.5,700.5C -0.5,466.833 -0.5,233.167 -0.5,-0.5 Z"/></g>
<g><path style="opacity:1" fill="#a9aba8" d="M 26.5,-0.5 C 368.167,-0.5 709.833,-0.5 1051.5,-0.5C 710.502,1.49935 369.168,2.16601 27.5,1.5C 26.6618,1.15829 26.3284,0.491622 26.5,-0.5 Z"/></g>
<g><path style="opacity:1" fill="#c0c2be" d="M 1051.5,-0.5 C 1051.83,-0.5 1052.17,-0.5 1052.5,-0.5C 1052.5,0.5 1052.5,1.5 1052.5,2.5C 710.666,2.83317 369,2.49984 27.5,1.5C 369.168,2.16601 710.502,1.49935 1051.5,-0.5 Z"/></g>
<g><path style="opacity:1" fill="#dbdadc" d="M 31.5,9.5 C 367.5,9.5 703.5,9.5 1039.5,9.5C 1039.5,11.5 1039.5,13.5 1039.5,15.5C 703.5,15.5 367.5,15.5 31.5,15.5C 31.5,13.5 31.5,11.5 31.5,9.5 Z"/></g>
<g><path style="opacity:1" fill="#1c1e1c" d="M 402.5,53.5 C 407.167,53.5 411.833,53.5 416.5,53.5C 416.5,54.5 416.5,55.5 416.5,56.5C 412.5,56.5 408.5,56.5 404.5,56.5C 404.187,59.2469 404.52,61.9135 405.5,64.5C 414.693,63.2029 418.193,67.2029 416,76.5C 413.565,81.2238 409.731,82.7238 404.5,81C 402.586,79.5867 401.253,77.7534 400.5,75.5C 401.325,74.6143 402.325,74.281 403.5,74.5C 403.33,75.8221 403.663,76.9887 404.5,78C 412.703,79.6263 415.369,76.4596 412.5,68.5C 409.079,66.2212 405.412,65.8879 401.5,67.5C 401.833,62.8333 402.167,58.1667 402.5,53.5 Z"/></g>
<g><path style="opacity:1" fill="#242423" d="M 667.5,53.5 C 679.67,53.1719 682.503,58.1719 676,68.5C 673.059,71.5315 670.226,74.6982 667.5,78C 671.821,78.499 676.154,78.6657 680.5,78.5C 680.5,79.5 680.5,80.5 680.5,81.5C 674.833,81.5 669.167,81.5 663.5,81.5C 663.343,80.1266 663.51,78.7932 664,77.5C 669.511,72.9585 673.678,67.4585 676.5,61C 676.561,59.2894 675.894,57.956 674.5,57C 672.19,56.5034 669.857,56.3367 667.5,56.5C 667.676,60.1921 666.009,62.1921 662.5,62.5C 662.498,58.4542 664.164,55.4542 667.5,53.5 Z"/></g>
<g><path style="opacity:1" fill="#1f201e" d="M 321.5,49.5 C 322.5,49.5 323.5,49.5 324.5,49.5C 324.5,51.1667 324.5,52.8333 324.5,54.5C 329.373,54.373 331.373,56.7064 330.5,61.5C 329.5,61.5 328.5,61.5 327.5,61.5C 327.579,60.0695 327.246,58.7362 326.5,57.5C 319.97,54.7568 317.47,56.7568 319,63.5C 322.855,65.5456 326.521,67.879 330,70.5C 330.79,73.634 330.457,76.634 329,79.5C 327.556,81.1554 325.722,81.822 323.5,81.5C 323.058,86.6945 322.058,86.6945 320.5,81.5C 316.553,80.2664 314.553,77.5997 314.5,73.5C 315.5,73.5 316.5,73.5 317.5,73.5C 317.227,75.451 317.893,76.951 319.5,78C 326.091,80.2438 328.591,78.0771 327,71.5C 324.958,69.396 322.458,68.2293 319.5,68C 315.723,65.0453 314.557,61.212 316,56.5C 317.242,55.1279 318.742,54.1279 320.5,53.5C 321.429,52.3112 321.762,50.9778 321.5,49.5 Z"/></g>
<g><path style="opacity:1" fill="#242523" d="M 911.5,53.5 C 917.873,53.3677 920.373,56.3677 919,62.5C 913.739,67.1457 910.239,66.1457 908.5,59.5C 908.617,56.9503 909.617,54.9503 911.5,53.5 Z"/></g>
<g><path style="opacity:1" fill="#d0d0ce" d="M 912.5,55.5 C 913.822,55.33 914.989,55.6634 916,56.5C 916.497,58.8098 916.663,61.1432 916.5,63.5C 910.428,63.2155 909.095,60.5488 912.5,55.5 Z"/></g>
<g><path style="opacity:1" fill="#242524" d="M 426.5,53.5 C 431.635,52.4262 435.468,54.0928 438,58.5C 438.991,65.3138 438.491,71.9804 436.5,78.5C 431.168,83.0005 426.668,82.3338 423,76.5C 421.641,71.2247 421.308,65.8913 422,60.5C 422.904,57.7666 424.404,55.4333 426.5,53.5 Z"/></g>
<g><path style="opacity:1" fill="#242623" d="M 593.5,49.5 C 594.5,49.5 595.5,49.5 596.5,49.5C 596.5,51.1667 596.5,52.8333 596.5,54.5C 601.119,55.1268 603.119,57.7935 602.5,62.5C 601.5,62.5 600.5,62.5 599.5,62.5C 599.217,56.7368 596.384,55.0702 591,57.5C 590.289,59.8991 590.456,62.2324 591.5,64.5C 594.833,66.1667 598.167,67.8333 601.5,69.5C 604.197,76.1093 602.197,80.1093 595.5,81.5C 594.833,86.8333 594.167,86.8333 593.5,81.5C 588.42,81.3798 586.087,78.7131 586.5,73.5C 587.5,73.5 588.5,73.5 589.5,73.5C 590.104,78.1522 592.77,79.6522 597.5,78C 600.167,75.6667 600.167,73.3333 597.5,71C 593.208,69.6043 589.708,67.1043 587,63.5C 585.53,57.81 587.697,54.81 593.5,54.5C 593.5,52.8333 593.5,51.1667 593.5,49.5 Z"/></g>
<g><path style="opacity:1" fill="#1f211e" d="M 892.5,53.5 C 896.38,53.2298 899.547,54.5631 902,57.5C 902.667,63.8333 902.667,70.1667 902,76.5C 898.941,81.5393 894.775,82.706 889.5,80C 888.107,78.8289 887.273,77.3289 887,75.5C 886.333,69.8333 886.333,64.1667 887,58.5C 888.107,55.887 889.94,54.2203 892.5,53.5 Z"/></g>
<g><path style="opacity:1" fill="#232522" d="M 373.5,53.5 C 377.986,52.9944 381.819,54.3277 385,57.5C 385.667,63.1667 385.667,68.8333 385,74.5C 382.858,80.8195 378.691,82.6528 372.5,80C 370.513,78.6811 369.346,76.8477 369,74.5C 368.333,69.1667 368.333,63.8333 369,58.5C 370.193,56.5029 371.693,54.8362 373.5,53.5 Z"/></g>
<g><path style="opacity:1" fill="#d7d9d6" d="M 373.5,56.5 C 376.482,56.1044 379.149,56.7711 381.5,58.5C 382.663,64.1375 382.83,69.8041 382,75.5C 379.374,79.0719 376.374,79.4052 373,76.5C 372.244,69.7834 372.411,63.1167 373.5,56.5 Z"/></g>
<g><path style="opacity:1" fill="#d4d4d3" d="M 427.5,56.5 C 430.365,56.0548 432.865,56.7215 435,58.5C 435.667,64.1667 435.667,69.8333 435,75.5C 432.345,79.0536 429.345,79.387 426,76.5C 425.333,70.5 425.333,64.5 426,58.5C 426.717,57.9558 427.217,57.2891 427.5,56.5 Z"/></g>
<g><path style="opacity:1" fill="#1a1b19" d="M 625.5,54.5 C 626.833,54.5 628.167,54.5 629.5,54.5C 629.5,63.5 629.5,72.5 629.5,81.5C 628.5,81.5 627.5,81.5 626.5,81.5C 626.5,73.8333 626.5,66.1667 626.5,58.5C 624.194,58.9926 621.861,59.3259 619.5,59.5C 619.5,58.5 619.5,57.5 619.5,56.5C 621.786,56.405 623.786,55.7384 625.5,54.5 Z"/></g>
<g><path style="opacity:1" fill="#1f201f" d="M 698.5,53.5 C 703.543,52.4308 707.377,54.0974 710,58.5C 710.667,64.1667 710.667,69.8333 710,75.5C 705.827,82.6201 700.827,83.2868 695,77.5C 693.529,71.5692 693.196,65.5692 694,59.5C 694.979,57.0324 696.479,55.0324 698.5,53.5 Z"/></g>
<g><path style="opacity:1" fill="#cdcfcd" d="M 698.5,56.5 C 700.857,56.3367 703.19,56.5034 705.5,57C 706.126,57.7504 706.626,58.5838 707,59.5C 707.667,64.8333 707.667,70.1667 707,75.5C 703.066,79.8404 699.733,79.5071 697,74.5C 695.979,68.2899 696.479,62.2899 698.5,56.5 Z"/></g>
<g><path style="opacity:1" fill="#242523" d="M 868.5,53.5 C 873.287,53.1456 877.121,54.8123 880,58.5C 880.772,64.7056 880.605,70.8722 879.5,77C 871.905,83.9758 866.738,82.4758 864,72.5C 863.333,68.1667 863.333,63.8333 864,59.5C 864.979,57.0324 866.479,55.0324 868.5,53.5 Z"/></g>
<g><path style="opacity:1" fill="#d5d7d4" d="M 869.5,56.5 C 872.365,56.0548 874.865,56.7215 877,58.5C 877.667,63.8333 877.667,69.1667 877,74.5C 875.666,78.1044 873.166,79.271 869.5,78C 868.874,77.2496 868.374,76.4162 868,75.5C 867.333,69.8333 867.333,64.1667 868,58.5C 868.717,57.9558 869.217,57.2891 869.5,56.5 Z"/></g>
<g><path style="opacity:1" fill="#d5d7d4" d="M 891.5,56.5 C 894.365,56.0548 896.865,56.7215 899,58.5C 899.667,64.1667 899.667,69.8333 899,75.5C 897.334,78.3788 894.834,79.2121 891.5,78C 890.809,76.9326 890.309,75.7659 890,74.5C 889.333,69.1667 889.333,63.8333 890,58.5C 890.717,57.9558 891.217,57.2891 891.5,56.5 Z"/></g>
<g><path style="opacity:1" fill="#232422" d="M 84.5,60.5 C 85.552,60.3505 86.552,60.5172 87.5,61C 88.63,63.4281 90.13,65.5947 92,67.5C 93.7433,65.6789 95.2433,63.6789 96.5,61.5C 97.5,60.1667 98.5,60.1667 99.5,61.5C 97.4436,64.4454 95.777,67.6121 94.5,71C 96.2868,74.2899 98.2868,77.4565 100.5,80.5C 99.1667,81.8333 97.8333,81.8333 96.5,80.5C 95.4378,78.0581 93.9378,76.0581 92,74.5C 90.1403,76.375 88.6403,78.5417 87.5,81C 86.365,81.7494 85.365,81.5827 84.5,80.5C 86.5,77.1667 88.5,73.8333 90.5,70.5C 88.0478,67.394 86.0478,64.0607 84.5,60.5 Z"/></g>
<g><path style="opacity:1" fill="#242523" d="M 649.5,53.5 C 651.167,53.5 652.833,53.5 654.5,53.5C 654.5,54.5 654.5,55.5 654.5,56.5C 649.557,55.9661 646.224,57.9661 644.5,62.5C 645.035,64.9162 646.035,65.0828 647.5,63C 656.204,62.7219 659.371,66.8886 657,75.5C 651.384,83.6173 646.051,83.284 641,74.5C 640.206,68.9785 640.873,63.6452 643,58.5C 644.965,56.4497 647.132,54.783 649.5,53.5 Z"/></g>
<g><path style="opacity:1" fill="#d1d3d0" d="M 646.5,65.5 C 654.003,64.8526 656.503,68.186 654,75.5C 647.985,80.453 644.819,78.953 644.5,71C 644.395,68.8218 645.061,66.9885 646.5,65.5 Z"/></g>
<g><path style="opacity:1" fill="#1a1c19" d="M 290.5,53.5 C 294.846,53.3343 299.179,53.501 303.5,54C 309.839,58.7676 310.173,64.101 304.5,70C 305.692,73.7495 307.358,77.2495 309.5,80.5C 308.311,81.4287 306.978,81.762 305.5,81.5C 304.455,77.7406 303.122,74.0739 301.5,70.5C 298.833,70.5 296.167,70.5 293.5,70.5C 293.5,74.1667 293.5,77.8333 293.5,81.5C 292.5,81.5 291.5,81.5 290.5,81.5C 290.5,72.1667 290.5,62.8333 290.5,53.5 Z"/></g>
<g><path style="opacity:1" fill="#cccecb" d="M 293.5,56.5 C 296.85,56.335 300.183,56.5017 303.5,57C 306.167,60.3333 306.167,63.6667 303.5,67C 300.183,67.4983 296.85,67.665 293.5,67.5C 293.5,63.8333 293.5,60.1667 293.5,56.5 Z"/></g>
<g><path style="opacity:1" fill="#1b1d1a" d="M 562.5,53.5 C 566.846,53.3343 571.179,53.501 575.5,54C 580.143,56.0724 581.643,59.5724 580,64.5C 578.818,66.3436 577.651,68.1769 576.5,70C 578.03,73.5607 579.697,77.0607 581.5,80.5C 580.167,81.8333 578.833,81.8333 577.5,80.5C 575.961,77.2544 574.294,74.0877 572.5,71C 570.19,70.5034 567.857,70.3367 565.5,70.5C 565.5,74.1667 565.5,77.8333 565.5,81.5C 564.5,81.5 563.5,81.5 562.5,81.5C 562.5,72.1667 562.5,62.8333 562.5,53.5 Z"/></g>
<g><path style="opacity:1" fill="#d3d5d2" d="M 565.5,56.5 C 569.273,56.2633 572.94,56.7633 576.5,58C 577.87,60.8331 577.536,63.4998 575.5,66C 572.312,67.3158 568.978,67.8158 565.5,67.5C 565.5,63.8333 565.5,60.1667 565.5,56.5 Z"/></g>
<g><path style="opacity:1" fill="#262825" d="M 72.5,53.5 C 74.1667,53.5 75.8333,53.5 77.5,53.5C 77.5,59.8333 77.5,66.1667 77.5,72.5C 78.5,72.5 79.5,72.5 80.5,72.5C 80.5,73.5 80.5,74.5 80.5,75.5C 79.5,75.5 78.5,75.5 77.5,75.5C 77.5,77.5 77.5,79.5 77.5,81.5C 76.1667,81.5 74.8333,81.5 73.5,81.5C 73.5,79.5 73.5,77.5 73.5,75.5C 69.5,75.5 65.5,75.5 61.5,75.5C 61.3433,74.1266 61.51,72.7932 62,71.5C 66.3957,65.9926 69.8957,59.9926 72.5,53.5 Z"/></g>
<g><path style="opacity:1" fill="#ced0cd" d="M 71.5,60.5 C 73.4228,64.0293 74.0894,68.0293 73.5,72.5C 70.7531,72.8134 68.0865,72.48 65.5,71.5C 67.7788,67.9392 69.7788,64.2726 71.5,60.5 Z"/></g>
<g><path style="opacity:1" fill="#222322" d="M 360.5,53.5 C 361.105,60.6182 360.438,67.4515 358.5,74C 360.291,76.1062 360.958,78.6062 360.5,81.5C 359.5,81.5 358.5,81.5 357.5,81.5C 357.5,79.5 357.5,77.5 357.5,75.5C 353.5,75.5 349.5,75.5 345.5,75.5C 345.372,73.3453 345.872,71.3453 347,69.5C 350.666,64.838 353.833,59.838 356.5,54.5C 357.689,53.5713 359.022,53.238 360.5,53.5 Z"/></g>
<g><path style="opacity:1" fill="#cecfcd" d="M 356.5,59.5 C 357.485,63.6344 357.818,67.9677 357.5,72.5C 354.753,72.8134 352.086,72.48 349.5,71.5C 351.845,67.4725 354.178,63.4725 356.5,59.5 Z"/></g>
<g><path style="opacity:1" fill="#5c5d5b" d="M 356.5,59.5 C 356.56,58.9569 356.893,58.6236 357.5,58.5C 358.812,63.3181 358.812,67.9848 357.5,72.5C 357.818,67.9677 357.485,63.6344 356.5,59.5 Z"/></g>
<g><path style="opacity:1" fill="#464845" d="M 360.5,53.5 C 361.49,59.6446 361.823,65.9779 361.5,72.5C 362.833,72.5 364.167,72.5 365.5,72.5C 365.5,73.5 365.5,74.5 365.5,75.5C 364.167,75.5 362.833,75.5 361.5,75.5C 361.795,77.7354 361.461,79.7354 360.5,81.5C 360.958,78.6062 360.291,76.1062 358.5,74C 360.438,67.4515 361.105,60.6182 360.5,53.5 Z"/></g>
<g><path style="opacity:1" fill="#2a2c29" d="M 925.5,57.5 C 927.028,57.5173 927.528,58.184 927,59.5C 922.833,65.8333 918.667,72.1667 914.5,78.5C 913.417,77.635 913.251,76.635 914,75.5C 918.057,69.6164 921.89,63.6164 925.5,57.5 Z"/></g>
<g><path style="opacity:1" fill="#222321" d="M 721.5,53.5 C 725.803,52.7962 729.303,54.1295 732,57.5C 732.667,63.1667 732.667,68.8333 732,74.5C 730.035,81.3543 725.868,83.1876 719.5,80C 718.333,78.1667 717.167,76.3333 716,74.5C 715.333,69.5 715.333,64.5 716,59.5C 717.021,56.6499 718.854,54.6499 721.5,53.5 Z"/></g>
<g><path style="opacity:1" fill="#d5d7d4" d="M 721.5,56.5 C 724.365,56.0548 726.865,56.7215 729,58.5C 729.83,64.5276 729.664,70.5276 728.5,76.5C 725.636,79.1025 722.803,79.1025 720,76.5C 719.333,70.5 719.333,64.5 720,58.5C 720.717,57.9558 721.217,57.2891 721.5,56.5 Z"/></g>
<g><path style="opacity:1" fill="#1a1b1a" d="M 685.5,77.5 C 686.5,77.5 687.5,77.5 688.5,77.5C 688.874,80.9717 687.874,83.9717 685.5,86.5C 685.124,83.6267 685.124,80.6267 685.5,77.5 Z"/></g>
<g><path style="opacity:1" fill="#222422" d="M 839.5,53.5 C 849.883,53.5581 852.216,57.8915 846.5,66.5C 851.337,70.6772 851.671,75.1772 847.5,80C 837.401,83.5381 832.901,80.0381 834,69.5C 835.255,68.7894 836.421,67.956 837.5,67C 832.933,61.4521 833.6,56.9521 839.5,53.5 Z"/></g>
<g><path style="opacity:1" fill="#d3d5d2" d="M 838.5,68.5 C 845.621,67.4492 847.954,70.2825 845.5,77C 836.838,79.5009 834.504,76.6675 838.5,68.5 Z"/></g>
<g><path style="opacity:1" fill="#d3d5d2" d="M 839.5,56.5 C 846.486,56.331 848.153,59.1643 844.5,65C 837.423,65.4195 835.757,62.5862 839.5,56.5 Z"/></g>
<g><path style="opacity:1" fill="#1a1b1a" d="M 391.5,77.5 C 392.5,77.5 393.5,77.5 394.5,77.5C 394.997,81.1623 393.831,84.1623 391,86.5C 390.956,83.5248 391.123,80.5248 391.5,77.5 Z"/></g>
<g><path style="opacity:1" fill="#292928" d="M 924.5,68.5 C 931.369,68.5377 933.869,71.871 932,78.5C 928.157,82.7287 924.823,82.3954 922,77.5C 920.927,73.9003 921.76,70.9003 924.5,68.5 Z"/></g>
<g><path style="opacity:1" fill="#cbccca" d="M 925.5,70.5 C 930.21,71.2427 931.544,73.9094 929.5,78.5C 927.994,79.7472 926.494,79.7472 925,78.5C 924.278,75.7395 924.445,73.0728 925.5,70.5 Z"/></g>
<g><path style="opacity:1" fill="#222222" d="M 855.5,77.5 C 856.5,77.5 857.5,77.5 858.5,77.5C 859.077,81.0798 858.077,84.0798 855.5,86.5C 855.124,83.6267 855.124,80.6267 855.5,77.5 Z"/></g>
<g><path style="opacity:1" fill="#dbdbd8" d="M 31.5,139.5 C 371.834,139.833 712.167,139.5 1052.5,138.5C 1052.29,137.914 1051.96,137.414 1051.5,137C 711.5,136.5 371.5,136.333 31.5,136.5C 367.333,135.5 703.333,135.167 1039.5,135.5C 1039.5,133.5 1039.5,131.5 1039.5,129.5C 703.499,129.833 367.499,129.5 31.5,128.5C 372.833,127.5 714.166,127.167 1055.5,127.5C 1055.83,131.354 1055.16,135.021 1053.5,138.5C 1054.73,140.05 1055.23,141.717 1055,143.5C 714.149,143.494 372.982,143.494 31.5,143.5C 31.5,142.167 31.5,140.833 31.5,139.5 Z"/></g>
<g><path style="opacity:1" fill="#adaea9" d="M 31.5,136.5 C 371.5,136.333 711.5,136.5 1051.5,137C 1051.96,137.414 1052.29,137.914 1052.5,138.5C 712.167,139.5 371.834,139.833 31.5,139.5C 29.712,139.785 28.0453,139.452 26.5,138.5C 27.6685,136.783 29.3352,136.116 31.5,136.5 Z"/></g>
<g><path style="opacity:1" fill="#1b1c1a" d="M 562.5,191.5 C 567.248,191.275 571.915,191.775 576.5,193C 581.916,198.229 581.583,203.229 575.5,208C 577.879,211.256 579.879,214.756 581.5,218.5C 580.167,219.833 578.833,219.833 577.5,218.5C 576.167,215.5 574.833,212.5 573.5,209.5C 570.914,208.52 568.247,208.187 565.5,208.5C 565.5,212.167 565.5,215.833 565.5,219.5C 564.5,219.5 563.5,219.5 562.5,219.5C 562.5,210.167 562.5,200.833 562.5,191.5 Z"/></g>
<g><path style="opacity:1" fill="#232422" d="M 350.5,191.5 C 358.739,190.253 362.572,193.587 362,201.5C 360.833,202.667 359.667,203.833 358.5,205C 363.474,208.998 363.808,213.498 359.5,218.5C 352.694,221.308 348.36,219.308 346.5,212.5C 348.906,214.211 351.573,215.545 354.5,216.5C 359.151,215.807 360.651,213.141 359,208.5C 356.865,206.722 354.365,206.055 351.5,206.5C 351.5,205.5 351.5,204.5 351.5,203.5C 358,204.501 360.5,201.835 359,195.5C 356.599,194.398 354.099,194.231 351.5,195C 350.027,195.71 349.36,196.876 349.5,198.5C 348.325,198.719 347.325,198.386 346.5,197.5C 347.467,195.21 348.8,193.21 350.5,191.5 Z"/></g>
<g><path style="opacity:1" fill="#232422" d="M 901.5,215.5 C 898.017,218.666 894.017,219.333 889.5,217.5C 888.034,216.653 887.2,215.32 887,213.5C 886.333,207.833 886.333,202.167 887,196.5C 891.426,190.244 896.426,189.911 902,195.5C 904.081,202.355 903.914,209.022 901.5,215.5 Z"/></g>
<g><path style="opacity:1" fill="#222422" d="M 372.5,191.5 C 376.463,191.089 380.13,191.922 383.5,194C 385.869,196.938 386.036,200.104 384,203.5C 380.5,207.667 377,211.833 373.5,216C 377.821,216.499 382.154,216.666 386.5,216.5C 386.5,217.5 386.5,218.5 386.5,219.5C 380.5,219.5 374.5,219.5 368.5,219.5C 368.351,218.448 368.517,217.448 369,216.5C 374.609,211.411 379.109,205.578 382.5,199C 382.187,195.689 380.353,194.189 377,194.5C 373.397,194.271 371.564,195.938 371.5,199.5C 370.5,199.5 369.5,199.5 368.5,199.5C 368.936,196.394 370.269,193.727 372.5,191.5 Z"/></g>
<g><path style="opacity:1" fill="#252624" d="M 398.5,191.5 C 404.5,191.5 410.5,191.5 416.5,191.5C 414.636,197.571 412.469,203.571 410,209.5C 408.505,213.161 406.505,216.495 404,219.5C 403.5,219.167 403,218.833 402.5,218.5C 405.553,210.727 408.886,203.06 412.5,195.5C 407.88,194.507 403.214,194.173 398.5,194.5C 398.5,193.5 398.5,192.5 398.5,191.5 Z"/></g>
<g><path style="opacity:1" fill="#212320" d="M 321.5,187.5 C 322.5,187.5 323.5,187.5 324.5,187.5C 324.343,188.873 324.51,190.207 325,191.5C 329.144,193.134 330.977,196.134 330.5,200.5C 329.5,200.5 328.5,200.5 327.5,200.5C 327.217,194.737 324.384,193.07 319,195.5C 318.289,197.899 318.456,200.232 319.5,202.5C 322.833,204.167 326.167,205.833 329.5,207.5C 331.262,211.866 330.595,215.699 327.5,219C 326.207,219.49 324.873,219.657 323.5,219.5C 323.058,224.694 322.058,224.694 320.5,219.5C 316.535,218.214 314.535,215.547 314.5,211.5C 315.5,211.5 316.5,211.5 317.5,211.5C 317.297,213.39 317.963,214.89 319.5,216C 326.091,218.244 328.591,216.077 327,209.5C 322.689,208.178 319.023,205.845 316,202.5C 315.333,199.833 315.333,197.167 316,194.5C 317.264,192.393 319.097,191.393 321.5,191.5C 321.5,190.167 321.5,188.833 321.5,187.5 Z"/></g>
<g><path style="opacity:1" fill="#222321" d="M 426.5,191.5 C 430.986,190.994 434.819,192.328 438,195.5C 438.667,201.167 438.667,206.833 438,212.5C 434.416,220.536 429.416,221.536 423,215.5C 421,208.833 421,202.167 423,195.5C 424.376,194.295 425.542,192.962 426.5,191.5 Z"/></g>
<g><path style="opacity:1" fill="#1a1a19" d="M 627.5,191.5 C 629.472,200.44 630.139,209.773 629.5,219.5C 628.5,219.5 627.5,219.5 626.5,219.5C 626.5,211.833 626.5,204.167 626.5,196.5C 624.409,196.318 622.409,196.652 620.5,197.5C 619.614,196.675 619.281,195.675 619.5,194.5C 622.578,194.38 625.245,193.38 627.5,191.5 Z"/></g>
<g><path style="opacity:1" fill="#242524" d="M 849.5,199.5 C 849.563,204.203 849.229,208.87 848.5,213.5C 845.667,217.565 841.667,219.565 836.5,219.5C 836.5,218.5 836.5,217.5 836.5,216.5C 843.391,217.172 846.557,214.172 846,207.5C 839.936,212.345 835.769,211.012 833.5,203.5C 833.401,200.763 833.735,198.096 834.5,195.5C 838.433,190.536 842.933,190.203 848,194.5C 849.009,196.025 849.509,197.692 849.5,199.5 Z"/></g>
<g><path style="opacity:1" fill="#878986" d="M 834.5,195.5 C 833.735,198.096 833.401,200.763 833.5,203.5C 832.848,202.551 832.514,201.385 832.5,200C 832.307,197.992 832.974,196.492 834.5,195.5 Z"/></g>
<g><path style="opacity:1" fill="#d4d6d2" d="M 891.5,194.5 C 894.365,194.055 896.865,194.722 899,196.5C 899.667,202.167 899.667,207.833 899,213.5C 896.472,217.085 893.472,217.418 890,214.5C 889.333,208.5 889.333,202.5 890,196.5C 890.717,195.956 891.217,195.289 891.5,194.5 Z"/></g>
<g><path style="opacity:1" fill="#272926" d="M 910.5,191.5 C 918.807,191.28 921.14,194.78 917.5,202C 912.016,204.759 909.016,203.092 908.5,197C 908.395,194.822 909.061,192.988 910.5,191.5 Z"/></g>
<g><path style="opacity:1" fill="#cbcdca" d="M 911.5,193.5 C 913.144,193.286 914.644,193.62 916,194.5C 916.758,196.769 916.591,198.936 915.5,201C 914.056,201.781 912.723,201.614 911.5,200.5C 910.328,198.177 910.328,195.844 911.5,193.5 Z"/></g>
<g><path style="opacity:1" fill="#8f8f8f" d="M 849.5,199.5 C 850.161,201.134 850.494,202.967 850.5,205C 850.64,208.15 849.973,210.983 848.5,213.5C 849.229,208.87 849.563,204.203 849.5,199.5 Z"/></g>
<g><path style="opacity:1" fill="#cfd1ce" d="M 565.5,194.5 C 568.85,194.335 572.183,194.502 575.5,195C 578.122,198.13 578.122,201.297 575.5,204.5C 572.232,205.487 568.898,205.82 565.5,205.5C 565.5,201.833 565.5,198.167 565.5,194.5 Z"/></g>
<g><path style="opacity:1" fill="#d3d5d2" d="M 837.5,194.5 C 843.359,193.523 846.359,196.023 846.5,202C 845.495,206.893 842.662,208.393 838,206.5C 836.266,202.543 836.099,198.543 837.5,194.5 Z"/></g>
<g><path style="opacity:1" fill="#282a27" d="M 925.5,195.5 C 927.028,195.517 927.528,196.184 927,197.5C 922.637,203.698 918.47,210.031 914.5,216.5C 913.417,215.635 913.251,214.635 914,213.5C 918.094,207.641 921.927,201.641 925.5,195.5 Z"/></g>
<g><path style="opacity:1" fill="#222321" d="M 65.5,191.5 C 70.1667,191.5 74.8333,191.5 79.5,191.5C 79.5,192.5 79.5,193.5 79.5,194.5C 75.5,194.5 71.5,194.5 67.5,194.5C 67.1866,197.247 67.52,199.914 68.5,202.5C 78.3419,201.519 81.8419,205.852 79,215.5C 72.9222,221.345 67.7556,220.678 63.5,213.5C 64.325,212.614 65.325,212.281 66.5,212.5C 66.3601,214.124 67.0267,215.29 68.5,216C 75.1937,217.176 77.6937,214.343 76,207.5C 75.6258,206.584 75.1258,205.75 74.5,205C 71.1322,204.457 67.7989,204.624 64.5,205.5C 64.9981,200.848 65.3314,196.181 65.5,191.5 Z"/></g>
<g><path style="opacity:1" fill="#242623" d="M 868.5,191.5 C 873.384,190.861 877.217,192.527 880,196.5C 880.667,202.167 880.667,207.833 880,213.5C 874.158,221.804 868.824,221.471 864,212.5C 863.333,207.5 863.333,202.5 864,197.5C 864.599,194.746 866.099,192.746 868.5,191.5 Z"/></g>
<g><path style="opacity:1" fill="#d4d6d3" d="M 869.5,194.5 C 872.365,194.055 874.865,194.722 877,196.5C 877.667,202.167 877.667,207.833 877,213.5C 875.18,216.203 872.68,217.036 869.5,216C 868.874,215.25 868.374,214.416 868,213.5C 867.333,207.833 867.333,202.167 868,196.5C 868.717,195.956 869.217,195.289 869.5,194.5 Z"/></g>
<g><path style="opacity:1" fill="#1a1c19" d="M 290.5,191.5 C 295.93,191.161 301.264,191.661 306.5,193C 308.429,196.256 308.929,199.756 308,203.5C 306.341,204.817 305.174,206.483 304.5,208.5C 306.167,211.833 307.833,215.167 309.5,218.5C 308.5,219.833 307.5,219.833 306.5,218.5C 304.276,215.847 302.609,212.847 301.5,209.5C 298.914,208.52 296.247,208.187 293.5,208.5C 293.5,212.167 293.5,215.833 293.5,219.5C 292.5,219.5 291.5,219.5 290.5,219.5C 290.5,210.167 290.5,200.833 290.5,191.5 Z"/></g>
<g><path style="opacity:1" fill="#ced0cd" d="M 293.5,194.5 C 296.85,194.335 300.183,194.502 303.5,195C 306.167,198.333 306.167,201.667 303.5,205C 300.183,205.498 296.85,205.665 293.5,205.5C 293.5,201.833 293.5,198.167 293.5,194.5 Z"/></g>
<g><path style="opacity:1" fill="#b9bab7" d="M 587.5,195.5 C 586.658,200.051 587.992,203.717 591.5,206.5C 590.244,206.461 589.244,206.961 588.5,208C 589.669,210.007 590.335,212.173 590.5,214.5C 592.179,214.285 593.179,214.952 593.5,216.5C 590.324,216.33 588.324,214.663 587.5,211.5C 586.347,214.553 587.013,217.22 589.5,219.5C 588.504,219.414 587.671,219.748 587,220.5C 586.333,219.833 585.667,219.167 585,218.5C 584.825,215.843 584.992,213.176 585.5,210.5C 589.056,210.725 589.39,209.892 586.5,208C 587.022,207.05 587.689,206.216 588.5,205.5C 586.342,202.257 586.009,198.924 587.5,195.5 Z"/></g>
<g><path style="opacity:1" fill="#d4d5d3" d="M 426.5,194.5 C 429.685,194.02 432.519,194.686 435,196.5C 435.667,201.833 435.667,207.167 435,212.5C 433.936,216.295 431.436,217.461 427.5,216C 426.874,215.25 426.374,214.416 426,213.5C 425.21,207.085 425.376,200.752 426.5,194.5 Z"/></g>
<g><path style="opacity:1" fill="#1f201e" d="M 651.5,191.5 C 652.5,191.5 653.5,191.5 654.5,191.5C 654.5,192.5 654.5,193.5 654.5,194.5C 649.396,193.612 646.063,195.612 644.5,200.5C 644.833,201.167 645.167,201.833 645.5,202.5C 656.294,200.341 659.96,204.675 656.5,215.5C 650.748,221.185 645.915,220.518 642,213.5C 641.333,208.833 641.333,204.167 642,199.5C 643.555,194.82 646.722,192.153 651.5,191.5 Z"/></g>
<g><path style="opacity:1" fill="#d5d7d4" d="M 647.5,203.5 C 650.044,203.104 652.211,203.771 654,205.5C 654.929,209.244 654.429,212.744 652.5,216C 649.743,216.782 647.243,216.282 645,214.5C 643.923,210.258 644.756,206.591 647.5,203.5 Z"/></g>
<g><path style="opacity:1" fill="#d8d8d6" d="M 591.5,206.5 C 595.705,206.589 598.371,208.589 599.5,212.5C 598.864,215.794 596.864,217.127 593.5,216.5C 593.179,214.952 592.179,214.285 590.5,214.5C 590.335,212.173 589.669,210.007 588.5,208C 589.244,206.961 590.244,206.461 591.5,206.5 Z"/></g>
<g><path style="opacity:1" fill="#292928" d="M 924.5,206.5 C 930.82,206.32 933.32,209.32 932,215.5C 928.667,220.833 925.333,220.833 922,215.5C 920.927,211.9 921.76,208.9 924.5,206.5 Z"/></g>
<g><path style="opacity:1" fill="#232321" d="M 589.5,219.5 C 587.013,217.22 586.347,214.553 587.5,211.5C 588.324,214.663 590.324,216.33 593.5,216.5C 596.864,217.127 598.864,215.794 599.5,212.5C 598.371,208.589 595.705,206.589 591.5,206.5C 587.992,203.717 586.658,200.051 587.5,195.5C 588.465,192.68 590.465,191.347 593.5,191.5C 593.5,190.167 593.5,188.833 593.5,187.5C 594.5,187.5 595.5,187.5 596.5,187.5C 596.343,188.873 596.51,190.207 597,191.5C 601.144,193.134 602.977,196.134 602.5,200.5C 601.5,200.5 600.5,200.5 599.5,200.5C 599.217,194.737 596.384,193.07 591,195.5C 590.333,197.5 590.333,199.5 591,201.5C 594.214,203.964 597.714,205.964 601.5,207.5C 604.197,214.109 602.197,218.109 595.5,219.5C 594.833,224.833 594.167,224.833 593.5,219.5C 592.167,219.5 590.833,219.5 589.5,219.5 Z"/></g>
<g><path style="opacity:1" fill="#cacac9" d="M 925.5,208.5 C 929.968,208.748 931.468,211.082 930,215.5C 928.604,217.527 926.938,217.86 925,216.5C 924.278,213.739 924.445,211.073 925.5,208.5 Z"/></g>
<g><path style="opacity:1" fill="#242623" d="M 696.5,191.5 C 701.167,191.5 705.833,191.5 710.5,191.5C 710.5,192.5 710.5,193.5 710.5,194.5C 706.5,194.5 702.5,194.5 698.5,194.5C 698.187,197.247 698.52,199.914 699.5,202.5C 703.453,200.853 706.953,201.52 710,204.5C 713.146,215.012 709.312,219.846 698.5,219C 695.603,217.285 694.269,214.785 694.5,211.5C 695.5,211.5 696.5,211.5 697.5,211.5C 697.297,213.39 697.963,214.89 699.5,216C 701.899,216.711 704.232,216.544 706.5,215.5C 709.463,205.277 705.797,201.944 695.5,205.5C 696.127,200.859 696.46,196.193 696.5,191.5 Z"/></g>
<g><path style="opacity:1" fill="#212220" d="M 720.5,191.5 C 724.901,190.87 728.568,192.203 731.5,195.5C 732.663,201.137 732.83,206.804 732,212.5C 730.328,218.507 726.495,220.673 720.5,219C 719,218.167 717.833,217 717,215.5C 715.059,208.824 715.059,202.157 717,195.5C 718.376,194.295 719.542,192.962 720.5,191.5 Z"/></g>
<g><path style="opacity:1" fill="#d4d6d3" d="M 720.5,194.5 C 723.119,194.232 725.619,194.565 728,195.5C 730.113,202.471 729.946,209.304 727.5,216C 724.166,217.212 721.666,216.379 720,213.5C 719.249,207.116 719.416,200.783 720.5,194.5 Z"/></g>
<g><path style="opacity:1" fill="#212221" d="M 84.5,199.5 C 85.2506,198.427 86.2506,198.26 87.5,199C 89.6166,200.731 91.1166,202.898 92,205.5C 93.87,203.595 95.37,201.428 96.5,199C 97.8333,198.333 99.1667,198.333 100.5,199C 97.7388,201.852 95.7388,205.185 94.5,209C 96.2957,212.296 98.2957,215.462 100.5,218.5C 99.635,219.583 98.635,219.749 97.5,219C 95.736,216.488 94.0693,213.988 92.5,211.5C 90.4745,213.705 88.8078,216.205 87.5,219C 86.365,219.749 85.365,219.583 84.5,218.5C 86.3813,215.232 88.3813,212.066 90.5,209C 88.3476,205.846 86.3476,202.68 84.5,199.5 Z"/></g>
<g><path style="opacity:1" fill="#252624" d="M 667.5,191.5 C 671.986,190.994 675.819,192.328 679,195.5C 679.906,199.279 678.739,202.279 675.5,204.5C 680.738,209.168 680.738,213.835 675.5,218.5C 668.341,221.091 664.008,218.757 662.5,211.5C 665.541,211.406 667.207,212.906 667.5,216C 674.834,217.833 677.834,215 676.5,207.5C 673.873,206.908 671.206,206.575 668.5,206.5C 668.5,205.5 668.5,204.5 668.5,203.5C 675.997,204.196 677.997,201.363 674.5,195C 672.167,194.333 669.833,194.333 667.5,195C 666.663,196.011 666.33,197.178 666.5,198.5C 665.5,198.5 664.5,198.5 663.5,198.5C 663.587,195.422 664.92,193.089 667.5,191.5 Z"/></g>
<g><path style="opacity:1" fill="#1f201e" d="M 685.5,215.5 C 686.5,215.5 687.5,215.5 688.5,215.5C 688.663,217.857 688.497,220.19 688,222.5C 687.311,223.357 686.478,224.023 685.5,224.5C 685.258,221.681 685.258,218.681 685.5,215.5 Z"/></g>
<g><path style="opacity:1" fill="#6e6f6c" d="M 901.5,215.5 C 901.489,217.017 900.823,218.184 899.5,219C 896.5,219.667 893.5,219.667 890.5,219C 889.944,218.617 889.611,218.117 889.5,217.5C 894.017,219.333 898.017,218.666 901.5,215.5 Z"/></g>
<g><path style="opacity:1" fill="#212121" d="M 391.5,215.5 C 392.5,215.5 393.5,215.5 394.5,215.5C 394.559,218.962 393.559,221.962 391.5,224.5C 390.932,221.588 390.932,218.588 391.5,215.5 Z"/></g>
<g><path style="opacity:1" fill="#262626" d="M 855.5,215.5 C 856.5,215.5 857.5,215.5 858.5,215.5C 859.076,219.122 858.076,222.122 855.5,224.5C 855.124,221.627 855.124,218.627 855.5,215.5 Z"/></g>
<g><path style="opacity:1" fill="#dadcd8" d="M 1052.5,277.5 C 1052.5,276.167 1052.5,274.833 1052.5,273.5C 712.167,273.5 371.833,273.5 31.5,273.5C 201.499,272.167 371.832,271.5 542.5,271.5C 713.54,271.835 884.374,271.835 1055,271.5C 1055.67,272.833 1055.67,274.167 1055,275.5C 1054.67,274.833 1054.33,274.167 1054,273.5C 1053.79,275.058 1053.29,276.391 1052.5,277.5 Z"/></g>
<g><path style="opacity:1" fill="#c5c7c4" d="M 31.5,273.5 C 371.833,273.5 712.167,273.5 1052.5,273.5C 1052.5,274.833 1052.5,276.167 1052.5,277.5C 712.167,277.5 371.833,277.5 31.5,277.5C 29.901,277.768 28.5676,277.434 27.5,276.5C 26.596,275.791 26.2627,274.791 26.5,273.5C 28.1667,273.5 29.8333,273.5 31.5,273.5 Z"/></g>
<g><path style="opacity:1" fill="#a9aaa7" d="M 27.5,276.5 C 197.832,275.167 368.499,274.5 539.5,274.5C 710.167,274.833 880.833,275.167 1051.5,275.5C 710.167,276.5 368.834,276.833 27.5,276.5 Z"/></g>
<g><path style="opacity:1" fill="#dadcda" d="M 31.5,277.5 C 371.833,277.5 712.167,277.5 1052.5,277.5C 1052.37,278.376 1052.7,279.043 1053.5,279.5C 1054.25,278.624 1054.75,277.624 1055,276.5C 1055.5,280.152 1055.67,283.818 1055.5,287.5C 714.167,287.5 372.833,287.5 31.5,287.5C 31.5,284.167 31.5,280.833 31.5,277.5 Z"/></g>
<g><path style="opacity:1" fill="#1b1c1b" d="M 562.5,328.5 C 566.846,328.334 571.179,328.501 575.5,329C 581.966,334.337 581.966,339.837 575.5,345.5C 578.003,348.502 580.003,351.835 581.5,355.5C 580.311,356.429 578.978,356.762 577.5,356.5C 576.74,352.973 575.406,349.64 573.5,346.5C 570.914,345.52 568.247,345.187 565.5,345.5C 565.5,349.167 565.5,352.833 565.5,356.5C 564.5,356.5 563.5,356.5 562.5,356.5C 562.5,347.167 562.5,337.833 562.5,328.5 Z"/></g>
<g><path style="opacity:1" fill="#606060" d="M 648.5,329.5 C 650.265,328.539 652.265,328.205 654.5,328.5C 654.737,329.791 654.404,330.791 653.5,331.5C 652.448,329.744 650.781,329.077 648.5,329.5 Z"/></g>
<g><path style="opacity:1" fill="#212220" d="M 367.5,328.5 C 373.833,328.5 380.167,328.5 386.5,328.5C 382.529,337.717 378.863,347.051 375.5,356.5C 374.022,356.762 372.689,356.429 371.5,355.5C 374.983,347.701 378.65,340.034 382.5,332.5C 377.544,331.506 372.544,331.173 367.5,331.5C 367.5,330.5 367.5,329.5 367.5,328.5 Z"/></g>
<g><path style="opacity:1" fill="#636363" d="M 869.5,330.5 C 864.372,328.464 860.039,329.464 856.5,333.5C 856.859,331.629 857.859,330.129 859.5,329C 862.5,328.333 865.5,328.333 868.5,329C 869.056,329.383 869.389,329.883 869.5,330.5 Z"/></g>
<g><path style="opacity:1" fill="#252524" d="M 321.5,324.5 C 322.5,324.5 323.5,324.5 324.5,324.5C 324.5,325.833 324.5,327.167 324.5,328.5C 329.171,329.555 331.171,332.555 330.5,337.5C 329.5,337.5 328.5,337.5 327.5,337.5C 327.217,331.737 324.384,330.07 319,332.5C 318.333,334.5 318.333,336.5 319,338.5C 322.87,341.017 326.87,343.35 331,345.5C 331.977,351.548 329.477,355.215 323.5,356.5C 323.058,361.694 322.058,361.694 320.5,356.5C 316.278,355.415 314.278,352.748 314.5,348.5C 315.5,348.5 316.5,348.5 317.5,348.5C 317.421,349.93 317.754,351.264 318.5,352.5C 321.372,353.783 324.205,353.783 327,352.5C 327.808,350.421 327.641,348.421 326.5,346.5C 322.4,345.036 318.9,342.702 316,339.5C 314.241,334.32 315.741,330.653 320.5,328.5C 321.429,327.311 321.762,325.978 321.5,324.5 Z"/></g>
<g><path style="opacity:1" fill="#232523" d="M 890.5,328.5 C 896.51,327.699 900.676,330.032 903,335.5C 903.772,340.904 903.439,346.238 902,351.5C 899.459,356.069 895.625,357.569 890.5,356C 888.951,354.786 887.785,353.286 887,351.5C 886.333,345.5 886.333,339.5 887,333.5C 887.997,331.677 889.164,330.01 890.5,328.5 Z"/></g>
<g><path style="opacity:1" fill="#252625" d="M 932.5,328.5 C 940.989,328.315 943.322,331.982 939.5,339.5C 936.097,341.187 933.264,340.52 931,337.5C 930.212,334.228 930.712,331.228 932.5,328.5 Z"/></g>
<g><path style="opacity:1" fill="#c7c7c6" d="M 934.5,330.5 C 938.487,330.652 939.987,332.652 939,336.5C 937.084,339.033 935.084,339.033 933,336.5C 932.252,334.16 932.752,332.16 934.5,330.5 Z"/></g>
<g><path style="opacity:1" fill="#1c1c1c" d="M 839.5,329.5 C 841.167,329.5 842.833,329.5 844.5,329.5C 844.5,338.5 844.5,347.5 844.5,356.5C 843.5,356.5 842.5,356.5 841.5,356.5C 841.5,348.833 841.5,341.167 841.5,333.5C 839.194,333.993 836.861,334.326 834.5,334.5C 834.5,333.5 834.5,332.5 834.5,331.5C 836.553,331.598 838.22,330.931 839.5,329.5 Z"/></g>
<g><path style="opacity:1" fill="#1a1b19" d="M 624.5,329.5 C 626.167,329.5 627.833,329.5 629.5,329.5C 629.5,338.5 629.5,347.5 629.5,356.5C 628.5,356.5 627.5,356.5 626.5,356.5C 626.5,348.833 626.5,341.167 626.5,333.5C 624.194,333.993 621.861,334.326 619.5,334.5C 619.281,333.325 619.614,332.325 620.5,331.5C 622.026,331.006 623.359,330.339 624.5,329.5 Z"/></g>
<g><path style="opacity:1" fill="#adaeac" d="M 75.5,331.5 C 72.7469,331.879 70.7469,333.379 69.5,336C 71.1667,336.667 72.8333,336.667 74.5,336C 73.3044,335.346 73.3044,334.846 74.5,334.5C 75.8796,336.862 77.2129,339.195 78.5,341.5C 75.3568,338.429 71.6902,337.762 67.5,339.5C 67.1667,338.833 66.8333,338.167 66.5,337.5C 67.9043,333.094 70.9043,331.094 75.5,331.5 Z"/></g>
<g><path style="opacity:1" fill="#262725" d="M 720.5,328.5 C 725.126,327.7 728.96,329.034 732,332.5C 732.667,338.833 732.667,345.167 732,351.5C 725.005,358.931 719.672,357.931 716,348.5C 715.333,344.167 715.333,339.833 716,335.5C 716.545,332.473 718.045,330.14 720.5,328.5 Z"/></g>
<g><path style="opacity:1" fill="#d5d5d4" d="M 720.5,331.5 C 723.685,331.02 726.519,331.686 729,333.5C 730.032,340.011 729.532,346.344 727.5,352.5C 724.411,353.97 721.911,353.303 720,350.5C 719.249,344.116 719.416,337.783 720.5,331.5 Z"/></g>
<g><path style="opacity:1" fill="#d2d4d2" d="M 565.5,331.5 C 568.85,331.335 572.183,331.502 575.5,332C 578.167,335 578.167,338 575.5,341C 572.312,342.316 568.978,342.816 565.5,342.5C 565.5,338.833 565.5,335.167 565.5,331.5 Z"/></g>
<g><path style="opacity:1" fill="#d6d7d5" d="M 891.5,331.5 C 894.365,331.055 896.865,331.722 899,333.5C 899.667,339.5 899.667,345.5 899,351.5C 896,354.167 893,354.167 890,351.5C 889.333,345.5 889.333,339.5 890,333.5C 890.717,332.956 891.217,332.289 891.5,331.5 Z"/></g>
<g><path style="opacity:1" fill="#1f201f" d="M 665.5,328.5 C 670.167,328.5 674.833,328.5 679.5,328.5C 679.5,329.5 679.5,330.5 679.5,331.5C 675.833,331.5 672.167,331.5 668.5,331.5C 668.5,333.833 668.5,336.167 668.5,338.5C 677.817,337.984 681.65,342.317 680,351.5C 676.09,357.124 671.256,357.958 665.5,354C 664.62,352.644 664.286,351.144 664.5,349.5C 665.5,349.5 666.5,349.5 667.5,349.5C 667.33,350.822 667.663,351.989 668.5,353C 676.3,354.253 678.967,351.086 676.5,343.5C 673.079,341.221 669.412,340.888 665.5,342.5C 665.5,337.833 665.5,333.167 665.5,328.5 Z"/></g>
<g><path style="opacity:1" fill="#242524" d="M 593.5,324.5 C 594.5,324.5 595.5,324.5 596.5,324.5C 596.5,326.167 596.5,327.833 596.5,329.5C 600.88,330.224 602.88,332.89 602.5,337.5C 601.5,337.5 600.5,337.5 599.5,337.5C 598.878,332.105 596.045,330.438 591,332.5C 590.333,334.5 590.333,336.5 591,338.5C 594.322,341.058 597.989,343.058 602,344.5C 602.817,347.964 602.483,351.298 601,354.5C 599.556,356.155 597.722,356.822 595.5,356.5C 594.833,361.833 594.167,361.833 593.5,356.5C 588.543,356.21 585.877,353.543 585.5,348.5C 586.833,348.5 588.167,348.5 589.5,348.5C 589.157,352.134 590.823,353.801 594.5,353.5C 597.842,353.767 599.509,352.267 599.5,349C 598.414,345.103 595.747,343.103 591.5,343C 584.553,337.544 584.887,332.711 592.5,328.5C 593.429,327.311 593.762,325.978 593.5,324.5 Z"/></g>
<g><path style="opacity:1" fill="#1e1f1d" d="M 698.5,328.5 C 704.305,327.804 708.139,330.138 710,335.5C 710.667,340.833 710.667,346.167 710,351.5C 705.313,357.697 700.313,358.03 695,352.5C 692.681,345.006 693.015,337.672 696,330.5C 696.995,329.934 697.828,329.267 698.5,328.5 Z"/></g>
<g><path style="opacity:1" fill="#d2d4d2" d="M 698.5,331.5 C 700.857,331.337 703.19,331.503 705.5,332C 707.474,337.313 707.974,342.813 707,348.5C 705.862,353.283 703.028,354.617 698.5,352.5C 695.838,345.469 695.838,338.469 698.5,331.5 Z"/></g>
<g><path style="opacity:1" fill="#212220" d="M 84.5,336.5 C 85.7082,335.218 87.0416,335.218 88.5,336.5C 89.6667,338.833 90.8333,341.167 92,343.5C 93.6258,341.083 95.1258,338.583 96.5,336C 97.8333,335.333 99.1667,335.333 100.5,336C 97.7388,338.852 95.7388,342.185 94.5,346C 96.6187,349.066 98.6187,352.232 100.5,355.5C 99.635,356.583 98.635,356.749 97.5,356C 96.0146,353.523 94.1812,351.356 92,349.5C 90.1403,351.375 88.6403,353.542 87.5,356C 86.1667,356.667 84.8333,356.667 83.5,356C 86.0771,352.849 88.4104,349.516 90.5,346C 88.8565,342.532 86.8565,339.365 84.5,336.5 Z"/></g>
<g><path style="opacity:1" fill="#1d1f1d" d="M 913.5,328.5 C 919.308,327.652 923.142,329.985 925,335.5C 925.772,340.904 925.439,346.238 924,351.5C 920.841,356.721 916.674,357.721 911.5,354.5C 908.744,348.444 907.911,342.111 909,335.5C 909.938,332.743 911.438,330.41 913.5,328.5 Z"/></g>
<g><path style="opacity:1" fill="#d3d5d2" d="M 914.5,331.5 C 917.695,330.961 920.195,331.961 922,334.5C 922.851,340.253 922.517,345.92 921,351.5C 917.195,354.539 914.195,353.872 912,349.5C 911.333,344.833 911.333,340.167 912,335.5C 912.48,333.867 913.313,332.534 914.5,331.5 Z"/></g>
<g><path style="opacity:1" fill="#282927" d="M 947.5,332.5 C 949.028,332.517 949.528,333.184 949,334.5C 944.833,340.833 940.667,347.167 936.5,353.5C 935.959,351.477 936.459,349.477 938,347.5C 941.677,342.81 944.844,337.81 947.5,332.5 Z"/></g>
<g><path style="opacity:1" fill="#222222" d="M 946.5,343.5 C 953.314,343.49 955.814,346.823 954,353.5C 950.981,357.373 947.981,357.373 945,353.5C 944.037,349.851 944.537,346.518 946.5,343.5 Z"/></g>
<g><path style="opacity:1" fill="#cbcbcb" d="M 947.5,345.5 C 951.968,345.748 953.468,348.082 952,352.5C 950.688,354.658 949.022,354.991 947,353.5C 946.278,350.739 946.445,348.073 947.5,345.5 Z"/></g>
<g><path style="opacity:1" fill="#1a1b1a" d="M 290.5,328.5 C 294.846,328.334 299.179,328.501 303.5,329C 308.224,331.435 309.724,335.269 308,340.5C 306.839,341.995 305.673,343.495 304.5,345C 306.046,348.592 307.713,352.092 309.5,355.5C 308.5,356.833 307.5,356.833 306.5,355.5C 304.58,352.661 302.913,349.661 301.5,346.5C 298.914,345.52 296.247,345.187 293.5,345.5C 293.5,349.167 293.5,352.833 293.5,356.5C 292.5,356.5 291.5,356.5 290.5,356.5C 290.5,347.167 290.5,337.833 290.5,328.5 Z"/></g>
<g><path style="opacity:1" fill="#cccecc" d="M 293.5,331.5 C 296.85,331.335 300.183,331.502 303.5,332C 306.11,335.13 306.11,338.296 303.5,341.5C 300.232,342.487 296.898,342.82 293.5,342.5C 293.5,338.833 293.5,335.167 293.5,331.5 Z"/></g>
<g><path style="opacity:1" fill="#1c1c1b" d="M 869.5,330.5 C 871.067,331.681 871.901,333.347 872,335.5C 872.789,341.237 872.456,346.903 871,352.5C 864.63,358.541 859.63,357.541 856,349.5C 855.267,344.115 855.433,338.782 856.5,333.5C 860.039,329.464 864.372,328.464 869.5,330.5 Z"/></g>
<g><path style="opacity:1" fill="#939392" d="M 867.5,332.5 C 868.117,332.611 868.617,332.944 869,333.5C 869.817,339.016 869.651,344.35 868.5,349.5C 868.74,343.773 868.407,338.106 867.5,332.5 Z"/></g>
<g><path style="opacity:1" fill="#d1d1d0" d="M 867.5,332.5 C 868.407,338.106 868.74,343.773 868.5,349.5C 867.538,353.146 865.205,354.313 861.5,353C 859.05,349.443 858.05,345.443 858.5,341C 856.981,333.013 859.981,330.179 867.5,332.5 Z"/></g>
<g><path style="opacity:1" fill="#212221" d="M 426.5,328.5 C 432.305,327.804 436.139,330.138 438,335.5C 438.667,340.833 438.667,346.167 438,351.5C 429.958,358.82 424.625,357.153 422,346.5C 420.324,339.565 421.824,333.565 426.5,328.5 Z"/></g>
<g><path style="opacity:1" fill="#d6d7d5" d="M 427.5,331.5 C 430.365,331.055 432.865,331.722 435,333.5C 435.667,338.833 435.667,344.167 435,349.5C 432.692,353.662 429.692,354.328 426,351.5C 424.962,344.628 425.462,337.962 427.5,331.5 Z"/></g>
<g><path style="opacity:1" fill="#232323" d="M 351.5,328.5 C 360.207,328.037 363.707,332.037 362,340.5C 358.715,344.623 355.215,348.623 351.5,352.5C 355.783,353.492 360.116,353.826 364.5,353.5C 364.5,354.5 364.5,355.5 364.5,356.5C 358.5,356.5 352.5,356.5 346.5,356.5C 346.351,355.448 346.517,354.448 347,353.5C 351,348.833 355,344.167 359,339.5C 361.167,332.333 358.667,329.833 351.5,332C 349.963,333.11 349.297,334.61 349.5,336.5C 348.5,336.5 347.5,336.5 346.5,336.5C 346.536,332.8 348.203,330.133 351.5,328.5 Z"/></g>
<g><path style="opacity:1" fill="#242524" d="M 75.5,331.5 C 70.9043,331.094 67.9043,333.094 66.5,337.5C 66.8333,338.167 67.1667,338.833 67.5,339.5C 71.6902,337.762 75.3568,338.429 78.5,341.5C 80.5028,346.762 79.5028,351.429 75.5,355.5C 68.3532,357.523 64.1865,354.857 63,347.5C 60.698,336.053 65.198,329.72 76.5,328.5C 76.7373,329.791 76.404,330.791 75.5,331.5 Z"/></g>
<g><path style="opacity:1" fill="#d0d2cf" d="M 68.5,340.5 C 71.3646,340.055 73.8646,340.722 76,342.5C 77.0234,346.317 76.5234,349.817 74.5,353C 69.5414,354.04 66.8748,352.04 66.5,347C 66.3384,344.498 67.0051,342.331 68.5,340.5 Z"/></g>
<g><path style="opacity:1" fill="#1e1f1e" d="M 402.5,328.5 C 407.167,328.5 411.833,328.5 416.5,328.5C 416.5,329.5 416.5,330.5 416.5,331.5C 412.5,331.5 408.5,331.5 404.5,331.5C 404.187,334.247 404.52,336.914 405.5,339.5C 414.797,337.989 418.297,341.989 416,351.5C 413.364,355.794 409.53,357.294 404.5,356C 402.586,354.587 401.253,352.753 400.5,350.5C 401,350.167 401.5,349.833 402,349.5C 404.215,353.125 407.382,354.292 411.5,353C 414.42,349.02 414.086,345.354 410.5,342C 407.469,341.505 404.469,341.671 401.5,342.5C 401.833,337.833 402.167,333.167 402.5,328.5 Z"/></g>
<g><path style="opacity:1" fill="#202120" d="M 648.5,329.5 C 650.781,329.077 652.448,329.744 653.5,331.5C 647.665,331.332 644.999,333.999 645.5,339.5C 650.836,336.407 654.669,337.74 657,343.5C 658.675,351.48 655.508,355.647 647.5,356C 642.096,353.607 640.096,349.44 641.5,343.5C 640.151,336.863 642.485,332.196 648.5,329.5 Z"/></g>
<g><path style="opacity:1" fill="#d4d5d3" d="M 646.5,340.5 C 654.008,340.474 656.342,344.141 653.5,351.5C 648.232,354.751 645.232,353.251 644.5,347C 644.338,344.498 645.005,342.331 646.5,340.5 Z"/></g>
<g><path style="opacity:1" fill="#2b2b2b" d="M 877.5,352.5 C 878.833,352.5 880.167,352.5 881.5,352.5C 881.595,356.058 880.428,359.058 878,361.5C 877.5,361.167 877,360.833 876.5,360.5C 877.393,357.916 877.726,355.249 877.5,352.5 Z"/></g>
<g><path style="opacity:1" fill="#272727" d="M 391.5,352.5 C 392.5,352.5 393.5,352.5 394.5,352.5C 395.176,356.514 393.843,359.514 390.5,361.5C 390.167,361.167 389.833,360.833 389.5,360.5C 391.055,358.057 391.722,355.39 391.5,352.5 Z"/></g>
<g><path style="opacity:1" fill="#1d1d1d" d="M 685.5,352.5 C 686.5,352.5 687.5,352.5 688.5,352.5C 688.874,355.972 687.874,358.972 685.5,361.5C 685.258,358.681 685.258,355.681 685.5,352.5 Z"/></g>
<g><path style="opacity:1" fill="#dbdbd9" d="M 31.5,414.5 C 370.167,414.5 708.833,414.5 1047.5,414.5C 1049.17,414.5 1050.83,414.5 1052.5,414.5C 1052.5,413.5 1052.5,412.5 1052.5,411.5C 712.167,411.5 371.833,411.5 31.5,411.5C 31.5,409.833 31.5,408.167 31.5,406.5C 372.833,406.5 714.167,406.5 1055.5,406.5C 1055.22,409.347 1055.22,412.013 1055.5,414.5C 714,415.833 372.667,415.833 31.5,414.5 Z"/></g>
<g><path style="opacity:1" fill="#b6b7b2" d="M 31.5,411.5 C 371.833,411.5 712.167,411.5 1052.5,411.5C 1052.5,412.5 1052.5,413.5 1052.5,414.5C 1050.83,414.5 1049.17,414.5 1047.5,414.5C 1048.61,413.71 1049.94,413.21 1051.5,413C 710.167,412.333 368.833,412.333 27.5,413C 29.0581,413.21 30.3915,413.71 31.5,414.5C 29.8333,414.5 28.1667,414.5 26.5,414.5C 26.5,413.5 26.5,412.5 26.5,411.5C 28.1667,411.5 29.8333,411.5 31.5,411.5 Z"/></g>
<g><path style="opacity:1" fill="#a9aaa5" d="M 1047.5,414.5 C 708.833,414.5 370.167,414.5 31.5,414.5C 30.3915,413.71 29.0581,413.21 27.5,413C 368.833,412.333 710.167,412.333 1051.5,413C 1049.94,413.21 1048.61,413.71 1047.5,414.5 Z"/></g>
<g><path style="opacity:1" fill="#1d1f1d" d="M 62.5,466.5 C 68.1667,466.5 73.8333,466.5 79.5,466.5C 76.1703,475.828 72.837,485.161 69.5,494.5C 68.0222,494.762 66.6888,494.429 65.5,493.5C 69.0395,486.195 72.3728,478.862 75.5,471.5C 76.404,470.791 76.7373,469.791 76.5,468.5C 71.3814,469.103 66.7147,468.436 62.5,466.5 Z"/></g>
<g><path style="opacity:1" fill="#464745" d="M 62.5,466.5 C 66.7147,468.436 71.3814,469.103 76.5,468.5C 76.7373,469.791 76.404,470.791 75.5,471.5C 71.2853,469.564 66.6186,468.897 61.5,469.5C 61.2627,468.209 61.596,467.209 62.5,466.5 Z"/></g>
<g><path style="opacity:1" fill="#212320" d="M 371.5,492.5 C 370.645,491.469 369.978,490.303 369.5,489C 369.836,487.97 370.503,487.47 371.5,487.5C 372.033,490.525 373.867,491.858 377,491.5C 382.001,490.67 383.501,487.836 381.5,483C 378.986,481.748 376.32,481.248 373.5,481.5C 373.5,480.5 373.5,479.5 373.5,478.5C 380,479.501 382.5,476.835 381,470.5C 376.598,468.528 373.098,469.528 370.5,473.5C 369.301,469.339 370.968,467.006 375.5,466.5C 384.681,467.797 386.681,472.297 381.5,480C 387.089,485.628 386.423,490.294 379.5,494C 377.167,494.667 374.833,494.667 372.5,494C 371.944,493.617 371.611,493.117 371.5,492.5 Z"/></g>
<g><path style="opacity:1" fill="#1b1d1a" d="M 562.5,466.5 C 566.846,466.334 571.179,466.501 575.5,467C 582.152,472.635 582.152,478.135 575.5,483.5C 578.003,486.502 580.003,489.835 581.5,493.5C 580.311,494.429 578.978,494.762 577.5,494.5C 576.904,490.642 575.238,487.309 572.5,484.5C 570.257,483.526 567.924,483.192 565.5,483.5C 565.5,487.167 565.5,490.833 565.5,494.5C 564.5,494.5 563.5,494.5 562.5,494.5C 562.5,485.167 562.5,475.833 562.5,466.5 Z"/></g>
<g><path style="opacity:1" fill="#cfd1ce" d="M 565.5,469.5 C 568.898,469.18 572.232,469.513 575.5,470.5C 578.6,474.502 577.933,477.669 573.5,480C 570.854,480.497 568.187,480.664 565.5,480.5C 565.5,476.833 565.5,473.167 565.5,469.5 Z"/></g>
<g><path style="opacity:1" fill="#191918" d="M 839.5,467.5 C 841.167,467.5 842.833,467.5 844.5,467.5C 844.5,476.5 844.5,485.5 844.5,494.5C 843.5,494.5 842.5,494.5 841.5,494.5C 841.5,486.833 841.5,479.167 841.5,471.5C 839.139,471.674 836.806,472.007 834.5,472.5C 834.5,471.5 834.5,470.5 834.5,469.5C 836.698,469.88 838.365,469.213 839.5,467.5 Z"/></g>
<g><path style="opacity:1" fill="#212320" d="M 329.5,482.5 C 330.219,484.764 330.552,487.097 330.5,489.5C 329.548,493.12 327.215,494.787 323.5,494.5C 323.058,499.694 322.058,499.694 320.5,494.5C 316.582,493.252 314.582,490.585 314.5,486.5C 315.5,486.5 316.5,486.5 317.5,486.5C 317.286,488.144 317.62,489.644 318.5,491C 321.429,491.777 324.263,491.61 327,490.5C 327.808,488.421 327.641,486.421 326.5,484.5C 322.432,483.047 318.932,480.714 316,477.5C 314.241,472.32 315.741,468.653 320.5,466.5C 321.429,465.311 321.762,463.978 321.5,462.5C 322.5,462.5 323.5,462.5 324.5,462.5C 324.5,464.167 324.5,465.833 324.5,467.5C 329.326,467.904 331.326,470.571 330.5,475.5C 329.5,475.5 328.5,475.5 327.5,475.5C 327.452,469.809 324.785,468.143 319.5,470.5C 318.48,472.432 318.313,474.432 319,476.5C 322.467,478.596 325.967,480.596 329.5,482.5 Z"/></g>
<g><path style="opacity:1" fill="#1a1b19" d="M 624.5,467.5 C 626.167,467.5 627.833,467.5 629.5,467.5C 629.5,476.5 629.5,485.5 629.5,494.5C 628.5,494.5 627.5,494.5 626.5,494.5C 626.5,486.833 626.5,479.167 626.5,471.5C 624.194,471.993 621.861,472.326 619.5,472.5C 619.5,471.5 619.5,470.5 619.5,469.5C 621.698,469.88 623.365,469.213 624.5,467.5 Z"/></g>
<g><path style="opacity:1" fill="#686868" d="M 669.5,476.5 C 670.449,475.848 671.615,475.514 673,475.5C 675.008,475.307 676.508,475.974 677.5,477.5C 674.904,476.735 672.237,476.401 669.5,476.5 Z"/></g>
<g><path style="opacity:1" fill="#242623" d="M 933.5,466.5 C 937.984,465.831 940.651,467.665 941.5,472C 941.33,478.259 938.33,480.092 932.5,477.5C 929.663,473.526 929.997,469.859 933.5,466.5 Z"/></g>
<g><path style="opacity:1" fill="#c3c5c2" d="M 934.5,468.5 C 939.182,468.875 940.516,471.208 938.5,475.5C 935.207,477.05 933.207,476.05 932.5,472.5C 932.752,470.927 933.418,469.594 934.5,468.5 Z"/></g>
<g><path style="opacity:1" fill="#222321" d="M 398.5,466.5 C 404.5,466.5 410.5,466.5 416.5,466.5C 413.147,475.863 409.814,485.196 406.5,494.5C 405.022,494.762 403.689,494.429 402.5,493.5C 404.473,488.221 406.973,483.221 410,478.5C 411.131,475.555 411.964,472.555 412.5,469.5C 407.833,469.5 403.167,469.5 398.5,469.5C 398.5,468.5 398.5,467.5 398.5,466.5 Z"/></g>
<g><path style="opacity:1" fill="#252524" d="M 425.5,466.5 C 434.238,465.705 438.571,469.705 438.5,478.5C 439.244,488.081 434.91,493.414 425.5,494.5C 425.5,493.5 425.5,492.5 425.5,491.5C 431.216,491.613 434.05,488.946 434,483.5C 428.513,486.782 424.513,485.449 422,479.5C 420.668,474.415 421.835,470.081 425.5,466.5 Z"/></g>
<g><path style="opacity:1" fill="#cdcecc" d="M 426.5,469.5 C 433.484,469.317 436.317,472.65 435,479.5C 431.612,483.403 428.279,483.403 425,479.5C 424.157,475.897 424.657,472.564 426.5,469.5 Z"/></g>
<g><path style="opacity:1" fill="#20221f" d="M 647.5,467.5 C 654.569,467.743 654.903,468.577 648.5,470C 642.944,475.272 643.277,477.106 649.5,475.5C 655.026,476.023 657.692,479.023 657.5,484.5C 657.826,490.178 655.159,493.512 649.5,494.5C 643.68,492.849 640.68,489.016 640.5,483C 640.916,479.083 641.749,475.249 643,471.5C 644.397,469.93 645.897,468.596 647.5,467.5 Z"/></g>
<g><path style="opacity:1" fill="#2c2c2c" d="M 947.5,470.5 C 948.376,470.369 949.043,470.702 949.5,471.5C 945.167,478.167 940.833,484.833 936.5,491.5C 935.959,489.477 936.459,487.477 938,485.5C 941.677,480.81 944.844,475.81 947.5,470.5 Z"/></g>
<g><path style="opacity:1" fill="#222421" d="M 696.5,466.5 C 701.167,466.5 705.833,466.5 710.5,466.5C 710.5,467.5 710.5,468.5 710.5,469.5C 706.5,469.5 702.5,469.5 698.5,469.5C 698.187,472.247 698.52,474.914 699.5,477.5C 706.454,475.792 710.454,478.459 711.5,485.5C 710.183,492.988 705.849,495.822 698.5,494C 696.586,492.587 695.253,490.753 694.5,488.5C 695.325,487.614 696.325,487.281 697.5,487.5C 697.33,488.822 697.663,489.989 698.5,491C 707.206,492.443 709.872,488.943 706.5,480.5C 702.866,479.489 699.199,479.489 695.5,480.5C 695.54,475.807 695.873,471.141 696.5,466.5 Z"/></g>
<g><path style="opacity:1" fill="#181917" d="M 863.5,467.5 C 864.5,467.5 865.5,467.5 866.5,467.5C 866.5,476.5 866.5,485.5 866.5,494.5C 865.5,494.5 864.5,494.5 863.5,494.5C 863.5,486.833 863.5,479.167 863.5,471.5C 861.139,471.674 858.806,472.007 856.5,472.5C 856.5,471.5 856.5,470.5 856.5,469.5C 859.067,469.279 861.401,468.612 863.5,467.5 Z"/></g>
<g><path style="opacity:1" fill="#929390" d="M 863.5,467.5 C 864.568,466.566 865.901,466.232 867.5,466.5C 867.827,476.015 867.494,485.348 866.5,494.5C 866.5,485.5 866.5,476.5 866.5,467.5C 865.5,467.5 864.5,467.5 863.5,467.5 Z"/></g>
<g><path style="opacity:1" fill="#222321" d="M 84.5,474.5 C 85.7082,473.218 87.0416,473.218 88.5,474.5C 89.4672,476.63 90.6338,478.63 92,480.5C 93.3076,478.359 94.8076,476.359 96.5,474.5C 97.5,473.167 98.5,473.167 99.5,474.5C 97.4436,477.445 95.777,480.612 94.5,484C 96.1187,487.403 98.1187,490.57 100.5,493.5C 99.635,494.583 98.635,494.749 97.5,494C 95.9544,491.743 94.2877,489.576 92.5,487.5C 90.2395,489.177 88.5729,491.343 87.5,494C 86.552,494.483 85.552,494.649 84.5,494.5C 84.3505,493.448 84.5172,492.448 85,491.5C 86.9532,489.096 88.7865,486.596 90.5,484C 88.8565,480.532 86.8565,477.365 84.5,474.5 Z"/></g>
<g><path style="opacity:1" fill="#d2d4d1" d="M 646.5,478.5 C 653.88,478.553 656.38,482.22 654,489.5C 647.653,493.398 644.486,491.565 644.5,484C 644.395,481.822 645.061,479.988 646.5,478.5 Z"/></g>
<g><path style="opacity:1" fill="#1b1d1a" d="M 290.5,466.5 C 294.846,466.334 299.179,466.501 303.5,467C 308.155,469.897 309.655,474.063 308,479.5C 306.702,480.56 305.535,481.726 304.5,483C 306.046,486.592 307.713,490.092 309.5,493.5C 308.349,494.731 307.183,494.731 306,493.5C 304.5,490.5 303,487.5 301.5,484.5C 298.914,483.52 296.247,483.187 293.5,483.5C 293.5,487.167 293.5,490.833 293.5,494.5C 292.5,494.5 291.5,494.5 290.5,494.5C 290.5,485.167 290.5,475.833 290.5,466.5 Z"/></g>
<g><path style="opacity:1" fill="#ced0cd" d="M 293.5,469.5 C 296.898,469.18 300.232,469.513 303.5,470.5C 306.368,473.995 306.035,477.162 302.5,480C 299.518,480.498 296.518,480.665 293.5,480.5C 293.5,476.833 293.5,473.167 293.5,469.5 Z"/></g>
<g><path style="opacity:1" fill="#222321" d="M 351.5,466.5 C 360.307,465.968 363.807,469.968 362,478.5C 358.686,482.648 355.186,486.648 351.5,490.5C 355.783,491.492 360.116,491.826 364.5,491.5C 364.5,492.5 364.5,493.5 364.5,494.5C 358.5,494.5 352.5,494.5 346.5,494.5C 349.494,488.558 353.494,483.225 358.5,478.5C 361.201,471.38 358.867,468.547 351.5,470C 349.963,471.11 349.297,472.61 349.5,474.5C 348.5,474.5 347.5,474.5 346.5,474.5C 346.667,470.821 348.334,468.154 351.5,466.5 Z"/></g>
<g><path style="opacity:1" fill="#232422" d="M 669.5,476.5 C 672.237,476.401 674.904,476.735 677.5,477.5C 681.478,482.22 681.478,487.054 677.5,492C 671.107,496.347 666.607,494.847 664,487.5C 661.741,479.106 663.908,472.273 670.5,467C 672.473,466.505 674.473,466.338 676.5,466.5C 676.5,467.5 676.5,468.5 676.5,469.5C 672.252,469.11 669.252,470.776 667.5,474.5C 667.747,475.713 668.414,476.38 669.5,476.5 Z"/></g>
<g><path style="opacity:1" fill="#6f716e" d="M 329.5,482.5 C 330.993,483.312 331.66,484.645 331.5,486.5C 331.48,487.726 331.147,488.726 330.5,489.5C 330.552,487.097 330.219,484.764 329.5,482.5 Z"/></g>
<g><path style="opacity:1" fill="#caccc9" d="M 669.5,478.5 C 676.162,477.997 678.662,480.997 677,487.5C 673.667,492.833 670.333,492.833 667,487.5C 665.93,483.858 666.764,480.858 669.5,478.5 Z"/></g>
<g><path style="opacity:1" fill="#1e201d" d="M 913.5,466.5 C 918.384,465.861 922.217,467.527 925,471.5C 925.667,476.833 925.667,482.167 925,487.5C 923.143,493.178 919.309,495.345 913.5,494C 911.383,492.269 909.883,490.102 909,487.5C 908.333,482.167 908.333,476.833 909,471.5C 910.366,469.638 911.866,467.972 913.5,466.5 Z"/></g>
<g><path style="opacity:1" fill="#d2d4d1" d="M 913.5,469.5 C 917.49,468.616 920.323,469.949 922,473.5C 922.667,478.5 922.667,483.5 922,488.5C 918.157,492.729 914.823,492.395 912,487.5C 911.036,481.324 911.536,475.324 913.5,469.5 Z"/></g>
<g><path style="opacity:1" fill="#1f211f" d="M 591.5,494.5 C 588.203,492.867 586.536,490.2 586.5,486.5C 588.185,487.184 589.185,488.517 589.5,490.5C 592.506,491.748 595.506,491.748 598.5,490.5C 599.641,488.579 599.808,486.579 599,484.5C 596.057,482.625 592.89,481.125 589.5,480C 587.571,476.744 587.071,473.244 588,469.5C 589.264,467.393 591.097,466.393 593.5,466.5C 594.032,461.203 594.866,461.203 596,466.5C 600.605,467.701 602.772,470.701 602.5,475.5C 601.5,475.5 600.5,475.5 599.5,475.5C 599.217,469.737 596.384,468.07 591,470.5C 590.333,472.5 590.333,474.5 591,476.5C 593.511,478.563 596.344,480.063 599.5,481C 602.616,483.961 603.283,487.461 601.5,491.5C 599.999,492.752 598.332,493.752 596.5,494.5C 595.833,495.833 595.167,497.167 594.5,498.5C 593.943,496.668 592.943,495.335 591.5,494.5 Z"/></g>
<g><path style="opacity:1" fill="#212320" d="M 890.5,466.5 C 895.635,465.426 899.468,467.093 902,471.5C 902.667,477.5 902.667,483.5 902,489.5C 899.12,493.35 895.287,494.85 890.5,494C 888.513,492.681 887.346,490.848 887,488.5C 886.333,482.833 886.333,477.167 887,471.5C 887.997,469.677 889.164,468.01 890.5,466.5 Z"/></g>
<g><path style="opacity:1" fill="#d5d7d4" d="M 891.5,469.5 C 894.365,469.055 896.865,469.722 899,471.5C 899.667,476.833 899.667,482.167 899,487.5C 897.936,491.295 895.436,492.461 891.5,491C 890.809,489.933 890.309,488.766 890,487.5C 889.333,482.167 889.333,476.833 890,471.5C 890.717,470.956 891.217,470.289 891.5,469.5 Z"/></g>
<g><path style="opacity:1" fill="#232522" d="M 946.5,481.5 C 953.314,481.49 955.814,484.823 954,491.5C 950.932,495.388 947.932,495.388 945,491.5C 944.037,487.851 944.537,484.518 946.5,481.5 Z"/></g>
<g><path style="opacity:1" fill="#cccecb" d="M 947.5,483.5 C 951.968,483.748 953.468,486.082 952,490.5C 950.688,492.658 949.022,492.991 947,491.5C 946.278,488.739 946.445,486.073 947.5,483.5 Z"/></g>
<g><path style="opacity:1" fill="#70736f" d="M 371.5,487.5 C 370.503,487.47 369.836,487.97 369.5,489C 369.978,490.303 370.645,491.469 371.5,492.5C 370.504,492.586 369.671,492.252 369,491.5C 368.506,489.866 368.34,488.199 368.5,486.5C 369.791,486.263 370.791,486.596 371.5,487.5 Z"/></g>
<g><path style="opacity:1" fill="#232422" d="M 720.5,466.5 C 725.543,465.431 729.377,467.097 732,471.5C 732.667,476.833 732.667,482.167 732,487.5C 730.392,493.464 726.726,495.464 721,493.5C 718.981,491.812 717.314,489.812 716,487.5C 714.209,479.641 715.709,472.641 720.5,466.5 Z"/></g>
<g><path style="opacity:1" fill="#d3d5d2" d="M 720.5,469.5 C 723.685,469.02 726.519,469.686 729,471.5C 730.032,478.011 729.532,484.344 727.5,490.5C 724.679,491.971 722.179,491.637 720,489.5C 719.244,482.783 719.411,476.117 720.5,469.5 Z"/></g>
<g><path style="opacity:1" fill="#80827f" d="M 586.5,486.5 C 586.536,490.2 588.203,492.867 591.5,494.5C 586.374,493.747 584.708,491.08 586.5,486.5 Z"/></g>
<g><path style="opacity:1" fill="#1d1d1d" d="M 391.5,490.5 C 392.5,490.5 393.5,490.5 394.5,490.5C 395,494.164 393.833,497.164 391,499.5C 390.956,496.525 391.123,493.525 391.5,490.5 Z"/></g>
<g><path style="opacity:1" fill="#232322" d="M 685.5,490.5 C 686.5,490.5 687.5,490.5 688.5,490.5C 688.867,494.05 687.867,497.05 685.5,499.5C 684.932,496.588 684.932,493.588 685.5,490.5 Z"/></g>
<g><path style="opacity:1" fill="#282828" d="M 878.5,490.5 C 879.5,490.5 880.5,490.5 881.5,490.5C 882.055,494.387 880.721,497.387 877.5,499.5C 877.167,499.167 876.833,498.833 876.5,498.5C 878.055,496.057 878.722,493.39 878.5,490.5 Z"/></g>
<g><path style="opacity:1" fill="#c7e2ca" d="M 468.5,578.5 C 515.003,578.168 561.336,578.501 607.5,579.5C 561.165,579.333 514.832,579.5 468.5,580C 463.327,581.003 458.327,582.503 453.5,584.5C 454.343,582.827 455.676,581.66 457.5,581C 461.014,579.438 464.681,578.605 468.5,578.5 Z"/></g>
<g><path style="opacity:1" fill="#d0d9cf" d="M 654.5,607.5 C 653.957,607.56 653.624,607.893 653.5,608.5C 655.184,611.612 655.85,614.946 655.5,618.5C 652.668,612.453 649.501,606.453 646,600.5C 641.722,596.765 637.555,592.932 633.5,589C 630.936,587.604 628.269,586.437 625.5,585.5C 624.791,584.596 623.791,584.263 622.5,584.5C 617.916,581.475 612.916,579.809 607.5,579.5C 561.336,578.501 515.003,578.168 468.5,578.5C 517.389,577.597 566.389,577.097 615.5,577C 612.937,576.237 612.937,575.737 615.5,575.5C 618.643,576.595 621.809,576.595 625,575.5C 626.167,575.833 627.333,576.167 628.5,576.5C 628.333,576.833 628.167,577.167 628,577.5C 625.206,576.154 622.706,576.654 620.5,579C 623.252,580.751 626.252,581.584 629.5,581.5C 629.5,580.167 629.5,578.833 629.5,577.5C 633.056,577.642 636.39,578.476 639.5,580C 637.192,581.867 634.525,582.867 631.5,583C 630.549,583.718 630.383,584.551 631,585.5C 634.089,586.051 636.922,587.217 639.5,589C 638.5,589.333 637.5,589.667 636.5,590C 641.069,592.887 645.402,596.22 649.5,600C 651.464,600.624 653.131,600.124 654.5,598.5C 655.803,601.645 655.803,604.645 654.5,607.5 Z"/></g>
<g><path style="opacity:1" fill="#356438" d="M 607.5,579.5 C 612.916,579.809 617.916,581.475 622.5,584.5C 618.833,584.836 615.5,584.003 612.5,582C 564.833,581.333 517.167,581.333 469.5,582C 463.031,583.422 456.864,585.588 451,588.5C 450.235,588.43 449.735,588.097 449.5,587.5C 450.436,586.026 451.77,585.026 453.5,584.5C 458.327,582.503 463.327,581.003 468.5,580C 514.832,579.5 561.165,579.333 607.5,579.5 Z"/></g>
<g><path style="opacity:1" fill="#296b2b" d="M 622.5,584.5 C 623.791,584.263 624.791,584.596 625.5,585.5C 631.861,590.485 638.027,595.818 644,601.5C 647.621,606.685 650.287,612.352 652,618.5C 653.113,619.305 654.279,619.972 655.5,620.5C 655.5,621.5 655.5,622.5 655.5,623.5C 655.5,628.833 655.5,634.167 655.5,639.5C 654.5,639.5 653.5,639.5 652.5,639.5C 650.843,645.612 649.676,651.612 649,657.5C 647.558,660.05 646.392,662.716 645.5,665.5C 644.675,666.386 643.675,666.719 642.5,666.5C 642.5,667.833 642.5,669.167 642.5,670.5C 642.5,671.167 642.167,671.5 641.5,671.5C 639.661,672.582 637.661,673.415 635.5,674C 631.858,677.487 627.858,680.487 623.5,683C 617.855,683.104 612.522,684.437 607.5,687C 559.501,687.5 511.501,687.667 463.5,687.5C 457.729,686.612 452.396,684.612 447.5,681.5C 447.5,681.167 447.5,680.833 447.5,680.5C 445.357,677.548 443.691,674.215 442.5,670.5C 443.729,668.438 444.729,666.271 445.5,664C 445.079,661.815 444.579,659.649 444,657.5C 442.599,655.808 440.766,655.141 438.5,655.5C 439.905,659.385 440.905,663.385 441.5,667.5C 440.448,667.649 439.448,667.483 438.5,667C 435.677,664.012 432.677,661.178 429.5,658.5C 428.146,655.231 426.98,651.898 426,648.5C 424.52,634.539 425.687,620.872 429.5,607.5C 430.978,607.762 432.311,607.429 433.5,606.5C 434.236,604.459 435.069,602.459 436,600.5C 439.306,598.689 442.473,596.689 445.5,594.5C 444.833,594.167 444.167,593.833 443.5,593.5C 444.32,591.889 445.654,591.222 447.5,591.5C 447.5,590.5 447.5,589.5 447.5,588.5C 447.842,587.662 448.508,587.328 449.5,587.5C 449.735,588.097 450.235,588.43 451,588.5C 456.864,585.588 463.031,583.422 469.5,582C 517.167,581.333 564.833,581.333 612.5,582C 615.5,584.003 618.833,584.836 622.5,584.5 Z"/></g>
<g><path style="opacity:1" fill="#396a3a" d="M 447.5,588.5 C 447.5,589.5 447.5,590.5 447.5,591.5C 445.654,591.222 444.32,591.889 443.5,593.5C 444.167,593.833 444.833,594.167 445.5,594.5C 442.473,596.689 439.306,598.689 436,600.5C 435.069,602.459 434.236,604.459 433.5,606.5C 432.311,607.429 430.978,607.762 429.5,607.5C 433.446,599.221 439.446,592.887 447.5,588.5 Z"/></g>
<g><path style="opacity:1" fill="#3d6b3e" d="M 625.5,585.5 C 628.269,586.437 630.936,587.604 633.5,589C 637.555,592.932 641.722,596.765 646,600.5C 649.501,606.453 652.668,612.453 655.5,618.5C 655.5,619.167 655.5,619.833 655.5,620.5C 654.279,619.972 653.113,619.305 652,618.5C 650.287,612.352 647.621,606.685 644,601.5C 638.027,595.818 631.861,590.485 625.5,585.5 Z"/></g>
<g><path style="opacity:1" fill="#376a39" d="M 554.5,648.5 C 554.5,647.5 554.5,646.5 554.5,645.5C 553.5,645.5 552.5,645.5 551.5,645.5C 551.5,640.167 551.5,634.833 551.5,629.5C 553.179,629.715 554.179,629.048 554.5,627.5C 556.544,628.778 558.544,628.612 560.5,627C 564.167,626.333 567.833,626.333 571.5,627C 572.667,628.167 573.833,629.333 575,630.5C 575.5,636.825 575.666,643.158 575.5,649.5C 569.481,650.018 563.648,649.351 558,647.5C 556.862,647.989 555.695,648.322 554.5,648.5 Z"/></g>
<g><path style="opacity:1" fill="#b6d2b6" d="M 547.5,622.5 C 548.833,622.5 550.167,622.5 551.5,622.5C 551.5,624.167 551.5,625.833 551.5,627.5C 552.5,627.5 553.5,627.5 554.5,627.5C 554.179,629.048 553.179,629.715 551.5,629.5C 551.5,634.833 551.5,640.167 551.5,645.5C 552.5,645.5 553.5,645.5 554.5,645.5C 554.5,646.5 554.5,647.5 554.5,648.5C 551.325,649.091 548.991,648.091 547.5,645.5C 547.5,640.5 547.5,635.5 547.5,630.5C 546.167,630.5 544.833,630.5 543.5,630.5C 543.5,629.5 543.5,628.5 543.5,627.5C 544.833,627.5 546.167,627.5 547.5,627.5C 547.5,625.833 547.5,624.167 547.5,622.5 Z"/></g>
<g><path style="opacity:1" fill="#cfcfcf" d="M 654.5,607.5 C 657.446,612.316 659.946,617.316 662,622.5C 662.333,622.167 662.667,621.833 663,621.5C 663.333,623.167 663.667,624.833 664,626.5C 664.333,625.5 664.667,624.5 665,623.5C 666.502,629.853 668.002,636.186 669.5,642.5C 668.708,651.956 667.208,661.29 665,670.5C 661.559,676.294 658.393,682.294 655.5,688.5C 651.029,691.46 648.029,695.46 646.5,700.5C 638.833,700.5 631.167,700.5 623.5,700.5C 628.983,698.378 633.983,695.211 638.5,691C 640.984,688.016 643.65,685.182 646.5,682.5C 647.386,681.675 647.719,680.675 647.5,679.5C 648.978,679.762 650.311,679.429 651.5,678.5C 658.302,668.632 661.635,657.632 661.5,645.5C 660.186,637.815 658.519,630.482 656.5,623.5C 656.167,623.5 655.833,623.5 655.5,623.5C 655.5,622.5 655.5,621.5 655.5,620.5C 655.5,619.833 655.5,619.167 655.5,618.5C 655.85,614.946 655.184,611.612 653.5,608.5C 653.624,607.893 653.957,607.56 654.5,607.5 Z"/></g>
<g><path style="opacity:1" fill="#3a6b3d" d="M 495.5,627.5 C 494.088,625.396 493.088,623.063 492.5,620.5C 491.5,620.5 490.5,620.5 489.5,620.5C 489.34,622.199 489.506,623.866 490,625.5C 492.447,629.982 494.28,634.649 495.5,639.5C 494.5,639.5 493.5,639.5 492.5,639.5C 491.365,633.923 489.699,628.59 487.5,623.5C 486.448,623.649 485.448,623.483 484.5,623C 486.831,618.556 490.164,617.556 494.5,620C 495.435,622.381 495.768,624.881 495.5,627.5 Z"/></g>
<g><path style="opacity:1" fill="#366a37" d="M 547.5,622.5 C 547.5,624.167 547.5,625.833 547.5,627.5C 546.167,627.5 544.833,627.5 543.5,627.5C 543.5,628.5 543.5,629.5 543.5,630.5C 544.833,630.5 546.167,630.5 547.5,630.5C 547.5,635.5 547.5,640.5 547.5,645.5C 546.778,645.082 546.278,644.416 546,643.5C 545.667,640.167 545.333,636.833 545,633.5C 544.586,633.043 544.086,632.709 543.5,632.5C 542.559,637.837 542.392,643.17 543,648.5C 540.619,649.435 538.119,649.768 535.5,649.5C 535.82,646.102 535.487,642.768 534.5,639.5C 531.989,649.237 525.989,653.071 516.5,651C 515.181,648.715 513.681,646.548 512,644.5C 511.667,646.833 511.333,649.167 511,651.5C 509.977,650.4 509.477,649.067 509.5,647.5C 510.977,642.321 511.977,636.987 512.5,631.5C 510.993,630.261 509.826,630.595 509,632.5C 508.641,638.712 506.807,644.379 503.5,649.5C 500.709,651.04 498.209,650.706 496,648.5C 495.503,645.854 495.336,643.187 495.5,640.5C 496.942,642.54 497.942,644.873 498.5,647.5C 499.689,648.429 501.022,648.762 502.5,648.5C 505.8,639.314 508.8,629.98 511.5,620.5C 510.167,620.5 508.833,620.5 507.5,620.5C 505.356,627.598 503.023,634.598 500.5,641.5C 498.561,637.286 496.894,632.952 495.5,628.5C 496.5,628.5 497.5,628.5 498.5,628.5C 498.162,631.157 498.829,633.49 500.5,635.5C 501.806,634.088 502.64,632.421 503,630.5C 501.851,620.644 506.018,616.81 515.5,619C 516.216,614.535 517.549,614.368 519.5,618.5C 517.73,619.82 517.397,621.32 518.5,623C 517.207,623.49 515.873,623.657 514.5,623.5C 514.5,624.5 514.5,625.5 514.5,626.5C 519.844,626.334 525.177,626.501 530.5,627C 531.808,629.355 532.808,631.855 533.5,634.5C 534.086,634.291 534.586,633.957 535,633.5C 535.333,628.167 535.667,622.833 536,617.5C 536.739,616.426 537.739,615.759 539,615.5C 541.556,618.191 544.389,620.525 547.5,622.5 Z"/></g>
<g><path style="opacity:1" fill="#c5dfc6" d="M 537.5,619.5 C 538.5,619.5 539.5,619.5 540.5,619.5C 540.5,629.167 540.5,638.833 540.5,648.5C 539.5,648.5 538.5,648.5 537.5,648.5C 537.5,638.833 537.5,629.167 537.5,619.5 Z"/></g>
<g><path style="opacity:1" fill="#c1dbc1" d="M 495.5,627.5 C 495.5,627.833 495.5,628.167 495.5,628.5C 496.894,632.952 498.561,637.286 500.5,641.5C 503.023,634.598 505.356,627.598 507.5,620.5C 508.833,620.5 510.167,620.5 511.5,620.5C 508.8,629.98 505.8,639.314 502.5,648.5C 501.022,648.762 499.689,648.429 498.5,647.5C 497.942,644.873 496.942,642.54 495.5,640.5C 495.5,640.167 495.5,639.833 495.5,639.5C 494.28,634.649 492.447,629.982 490,625.5C 489.506,623.866 489.34,622.199 489.5,620.5C 490.5,620.5 491.5,620.5 492.5,620.5C 493.088,623.063 494.088,625.396 495.5,627.5 Z"/></g>
<g><path style="opacity:1" fill="#c8c8c8" d="M 421.5,647.5 C 423.091,651.204 423.924,655.204 424,659.5C 425.18,661.86 426.347,664.193 427.5,666.5C 427.489,668.382 427.156,670.382 426.5,672.5C 428.481,676.122 430.148,679.788 431.5,683.5C 432.552,683.351 433.552,683.517 434.5,684C 436.545,686.341 438.545,688.674 440.5,691C 445.399,692.385 447.733,695.552 447.5,700.5C 445.5,700.5 443.5,700.5 441.5,700.5C 442.66,698.797 441.993,698.131 439.5,698.5C 439.5,697.5 439.5,696.5 439.5,695.5C 438.448,695.649 437.448,695.483 436.5,695C 426.287,685.897 419.453,675.063 416,662.5C 414.962,653.638 415.462,644.971 417.5,636.5C 416.017,633.659 416.35,631.159 418.5,629C 418.167,628.667 417.833,628.333 417.5,628C 418.893,626.829 419.727,625.329 420,623.5C 420.171,631.677 420.671,639.677 421.5,647.5 Z"/></g>
<g><path style="opacity:1" fill="#326734" d="M 655.5,623.5 C 655.833,623.5 656.167,623.5 656.5,623.5C 657.036,634.341 656.036,645.008 653.5,655.5C 650.436,659.081 647.936,663.081 646,667.5C 644.961,668.71 643.794,669.71 642.5,670.5C 642.5,669.167 642.5,667.833 642.5,666.5C 643.675,666.719 644.675,666.386 645.5,665.5C 646.392,662.716 647.558,660.05 649,657.5C 649.676,651.612 650.843,645.612 652.5,639.5C 653.5,639.5 654.5,639.5 655.5,639.5C 655.5,634.167 655.5,628.833 655.5,623.5 Z"/></g>
<g><path style="opacity:1" fill="#bedcbf" d="M 562.5,627.5 C 567.223,626.553 571.056,627.886 574,631.5C 574.499,636.823 574.666,642.156 574.5,647.5C 573.07,647.579 571.736,647.246 570.5,646.5C 562.657,650.338 558.823,648.005 559,639.5C 559.833,638.5 560.667,637.5 561.5,636.5C 564.758,635.583 568.091,635.249 571.5,635.5C 570.896,630.848 568.23,629.348 563.5,631C 562.692,632.706 561.359,633.539 559.5,633.5C 559.615,631.053 560.615,629.053 562.5,627.5 Z"/></g>
<g><path style="opacity:1" fill="#30672f" d="M 570.5,642.5 C 570.167,643.5 569.5,644.167 568.5,644.5C 567.167,644.5 565.833,644.5 564.5,644.5C 564.5,642.833 564.5,641.167 564.5,639.5C 566.5,639.5 568.5,639.5 570.5,639.5C 570.5,640.5 570.5,641.5 570.5,642.5 Z"/></g>
<g><path style="opacity:1" fill="#4f7350" d="M 570.5,642.5 C 570.5,641.5 570.5,640.5 570.5,639.5C 568.5,639.5 566.5,639.5 564.5,639.5C 564.5,641.167 564.5,642.833 564.5,644.5C 565.833,644.5 567.167,644.5 568.5,644.5C 566.735,645.461 564.735,645.795 562.5,645.5C 561.67,638.667 564.67,636 571.5,637.5C 571.784,639.415 571.451,641.081 570.5,642.5 Z"/></g>
<g><path style="opacity:1" fill="#bfddbf" d="M 519.5,627.5 C 529.695,627.533 533.528,632.533 531,642.5C 524.856,650.755 519.189,650.422 514,641.5C 512.29,635.276 514.123,630.609 519.5,627.5 Z"/></g>
<g><path style="opacity:1" fill="#3e673f" d="M 526.5,632.5 C 519.127,632.223 516.96,635.556 520,642.5C 522.79,643.782 524.957,642.948 526.5,640C 525.833,639.667 525.167,639.333 524.5,639C 525.758,637.259 526.758,635.426 527.5,633.5C 528.774,637.074 528.607,640.741 527,644.5C 523.453,646.152 520.453,645.485 518,642.5C 517.333,639.167 517.333,635.833 518,632.5C 520.874,629.914 523.707,629.914 526.5,632.5 Z"/></g>
<g><path style="opacity:1" fill="#2a6b2a" d="M 526.5,632.5 C 527.167,632.5 527.5,632.833 527.5,633.5C 526.758,635.426 525.758,637.259 524.5,639C 525.167,639.333 525.833,639.667 526.5,640C 524.957,642.948 522.79,643.782 520,642.5C 516.96,635.556 519.127,632.223 526.5,632.5 Z"/></g>
<g><path style="opacity:1" fill="#336a36" d="M 580.5,627.5 C 580.5,634.5 580.5,641.5 580.5,648.5C 581.5,648.5 582.5,648.5 583.5,648.5C 583.334,643.489 583.501,638.489 584,633.5C 585.754,631.75 587.921,631.083 590.5,631.5C 590.5,630.167 590.5,628.833 590.5,627.5C 592.044,630.629 591.044,632.795 587.5,634C 586.196,634.804 585.529,635.971 585.5,637.5C 588.702,643.536 587.869,648.869 583,653.5C 581.004,653.004 579.337,652.004 578,650.5C 577.333,644.5 577.333,638.5 578,632.5C 578.099,630.347 578.933,628.681 580.5,627.5 Z"/></g>
<g><path style="opacity:1" fill="#c2dec2" d="M 580.5,627.5 C 583.753,628.247 587.086,628.247 590.5,627.5C 590.5,628.833 590.5,630.167 590.5,631.5C 587.921,631.083 585.754,631.75 584,633.5C 583.501,638.489 583.334,643.489 583.5,648.5C 582.5,648.5 581.5,648.5 580.5,648.5C 580.5,641.5 580.5,634.5 580.5,627.5 Z"/></g>
<g><path style="opacity:1" fill="#316933" d="M 429.5,607.5 C 425.687,620.872 424.52,634.539 426,648.5C 426.98,651.898 428.146,655.231 429.5,658.5C 432.677,661.178 435.677,664.012 438.5,667C 439.448,667.483 440.448,667.649 441.5,667.5C 440.905,663.385 439.905,659.385 438.5,655.5C 440.766,655.141 442.599,655.808 444,657.5C 444.579,659.649 445.079,661.815 445.5,664C 444.729,666.271 443.729,668.438 442.5,670.5C 443.691,674.215 445.357,677.548 447.5,680.5C 446.833,680.5 446.167,680.5 445.5,680.5C 439.217,674.374 433.384,667.707 428,660.5C 423.27,650.346 421.436,639.68 422.5,628.5C 422.671,620.654 425.004,613.654 429.5,607.5 Z"/></g>
<g><path style="opacity:1" fill="#a7b6a7" d="M 422.5,628.5 C 421.436,639.68 423.27,650.346 428,660.5C 433.384,667.707 439.217,674.374 445.5,680.5C 443.284,679.956 441.284,678.956 439.5,677.5C 438.713,675.896 437.38,675.229 435.5,675.5C 435.5,674.167 435.5,672.833 435.5,671.5C 433.712,671.785 432.045,671.452 430.5,670.5C 429.965,668.739 428.965,667.406 427.5,666.5C 426.347,664.193 425.18,661.86 424,659.5C 423.924,655.204 423.091,651.204 421.5,647.5C 421.177,640.978 421.51,634.645 422.5,628.5 Z"/></g>
<g><path style="opacity:1" fill="#9aae9a" d="M 653.5,655.5 C 653.662,657.527 653.495,659.527 653,661.5C 649.503,665.177 646.503,669.177 644,673.5C 642.035,675.55 639.868,677.217 637.5,678.5C 634.349,680.488 631.349,682.655 628.5,685C 626.866,685.494 625.199,685.66 623.5,685.5C 626.824,682.878 630.49,680.711 634.5,679C 637.393,676.916 639.726,674.416 641.5,671.5C 642.167,671.5 642.5,671.167 642.5,670.5C 643.794,669.71 644.961,668.71 646,667.5C 647.936,663.081 650.436,659.081 653.5,655.5 Z"/></g>
<g><path style="opacity:1" fill="#b8b9ba" d="M 656.5,623.5 C 658.519,630.482 660.186,637.815 661.5,645.5C 661.635,657.632 658.302,668.632 651.5,678.5C 650.311,679.429 648.978,679.762 647.5,679.5C 647.719,680.675 647.386,681.675 646.5,682.5C 643.65,685.182 640.984,688.016 638.5,691C 633.983,695.211 628.983,698.378 623.5,700.5C 564.833,700.5 506.167,700.5 447.5,700.5C 447.733,695.552 445.399,692.385 440.5,691C 438.545,688.674 436.545,686.341 434.5,684C 433.552,683.517 432.552,683.351 431.5,683.5C 430.148,679.788 428.481,676.122 426.5,672.5C 427.156,670.382 427.489,668.382 427.5,666.5C 428.965,667.406 429.965,668.739 430.5,670.5C 432.045,671.452 433.712,671.785 435.5,671.5C 435.5,672.833 435.5,674.167 435.5,675.5C 437.38,675.229 438.713,675.896 439.5,677.5C 439.336,680.187 439.503,682.854 440,685.5C 445.057,688.393 450.224,691.06 455.5,693.5C 455.215,695.288 455.548,696.955 456.5,698.5C 464.156,699.669 471.823,699.503 479.5,698C 524.837,697.833 570.17,697.333 615.5,696.5C 623.163,693.664 630.497,690.331 637.5,686.5C 637.134,682.591 638.8,679.924 642.5,678.5C 641.113,678.193 639.446,678.193 637.5,678.5C 639.868,677.217 642.035,675.55 644,673.5C 646.503,669.177 649.503,665.177 653,661.5C 653.495,659.527 653.662,657.527 653.5,655.5C 656.036,645.008 657.036,634.341 656.5,623.5 Z"/></g>
<g><path style="opacity:1" fill="#aeafaf" d="M 439.5,677.5 C 441.284,678.956 443.284,679.956 445.5,680.5C 446.167,680.5 446.833,680.5 447.5,680.5C 447.5,680.833 447.5,681.167 447.5,681.5C 447.281,682.675 447.614,683.675 448.5,684.5C 453.155,686.12 457.488,688.286 461.5,691C 512.167,691.667 562.833,691.667 613.5,691C 616.619,689.595 619.952,689.095 623.5,689.5C 623.5,688.167 623.5,686.833 623.5,685.5C 625.199,685.66 626.866,685.494 628.5,685C 631.349,682.655 634.349,680.488 637.5,678.5C 639.446,678.193 641.113,678.193 642.5,678.5C 638.8,679.924 637.134,682.591 637.5,686.5C 630.497,690.331 623.163,693.664 615.5,696.5C 570.17,697.333 524.837,697.833 479.5,698C 471.823,699.503 464.156,699.669 456.5,698.5C 455.548,696.955 455.215,695.288 455.5,693.5C 450.224,691.06 445.057,688.393 440,685.5C 439.503,682.854 439.336,680.187 439.5,677.5 Z"/></g>
<g><path style="opacity:1" fill="#9eb09f" d="M 447.5,681.5 C 452.396,684.612 457.729,686.612 463.5,687.5C 464.609,688.29 465.942,688.79 467.5,689C 514.167,689.667 560.833,689.667 607.5,689C 612.97,688.273 618.303,687.107 623.5,685.5C 623.5,686.833 623.5,688.167 623.5,689.5C 619.952,689.095 616.619,689.595 613.5,691C 562.833,691.667 512.167,691.667 461.5,691C 457.488,688.286 453.155,686.12 448.5,684.5C 447.614,683.675 447.281,682.675 447.5,681.5 Z"/></g>
<g><path style="opacity:1" fill="#376438" d="M 641.5,671.5 C 639.726,674.416 637.393,676.916 634.5,679C 630.49,680.711 626.824,682.878 623.5,685.5C 618.303,687.107 612.97,688.273 607.5,689C 560.833,689.667 514.167,689.667 467.5,689C 465.942,688.79 464.609,688.29 463.5,687.5C 511.501,687.667 559.501,687.5 607.5,687C 612.522,684.437 617.855,683.104 623.5,683C 627.858,680.487 631.858,677.487 635.5,674C 637.661,673.415 639.661,672.582 641.5,671.5 Z"/></g>
<g><path style="opacity:1" fill="#010101" d="M -0.5,700.5 C 146.833,700.5 294.167,700.5 441.5,700.5C 443.5,700.5 445.5,700.5 447.5,700.5C 506.167,700.5 564.833,700.5 623.5,700.5C 631.167,700.5 638.833,700.5 646.5,700.5C 790.833,700.5 935.167,700.5 1079.5,700.5C 1079.5,701.167 1079.5,701.833 1079.5,702.5C 719.5,702.5 359.5,702.5 -0.5,702.5C -0.5,701.833 -0.5,701.167 -0.5,700.5 Z"/></g>
</svg>
