<?xml version="1.0" encoding="UTF-8"?>
<!DOCTYPE svg PUBLIC "-//W3C//DTD SVG 1.1//EN" "http://www.w3.org/Graphics/SVG/1.1/DTD/svg11.dtd">
<svg xmlns="http://www.w3.org/2000/svg" version="1.1" width="807px" height="1600px" style="shape-rendering:geometricPrecision; text-rendering:geometricPrecision; image-rendering:optimizeQuality; fill-rule:evenodd; clip-rule:evenodd" xmlns:xlink="http://www.w3.org/1999/xlink">
<g><path style="opacity:1" fill="#035a07" d="M -0.5,-0.5 C 268.5,-0.5 537.5,-0.5 806.5,-0.5C 806.5,32.5 806.5,65.5 806.5,98.5C 537.5,98.5 268.5,98.5 -0.5,98.5C -0.5,65.5 -0.5,32.5 -0.5,-0.5 Z"/></g>
<g><path style="opacity:1" fill="#1e5d1f" d="M 309.5,20.5 C 309.5,22.5 309.5,24.5 309.5,26.5C 309.631,27.2389 309.464,27.9056 309,28.5C 308.184,27.1772 307.017,26.5106 305.5,26.5C 305.5,24.8333 305.5,23.1667 305.5,21.5C 296.651,21.1736 287.984,21.507 279.5,22.5C 279.5,24.1667 279.5,25.8333 279.5,27.5C 282.833,27.5 286.167,27.5 289.5,27.5C 289.5,36.5 289.5,45.5 289.5,54.5C 288.507,46.0161 288.174,37.3494 288.5,28.5C 284.5,28.5 280.5,28.5 276.5,28.5C 274.669,25.3299 275.336,22.8299 278.5,21C 287.548,20.8064 296.548,20.3064 305.5,19.5C 307.037,20.1981 308.37,20.5315 309.5,20.5 Z"/></g>
<g><path style="opacity:1" fill="#7da57f" d="M 279.5,22.5 C 287.984,21.507 296.651,21.1736 305.5,21.5C 305.5,23.1667 305.5,24.8333 305.5,26.5C 302.713,27.4767 299.713,27.81 296.5,27.5C 296.167,27.5 295.833,27.5 295.5,27.5C 298.287,26.5233 301.287,26.19 304.5,26.5C 304.5,25.1667 304.5,23.8333 304.5,22.5C 296.167,22.5 287.833,22.5 279.5,22.5 Z"/></g>
<g><path style="opacity:1" fill="#d5dbd5" d="M 279.5,22.5 C 287.833,22.5 296.167,22.5 304.5,22.5C 304.5,23.8333 304.5,25.1667 304.5,26.5C 301.287,26.19 298.287,26.5233 295.5,27.5C 294.507,35.9839 294.174,44.6506 294.5,53.5C 293.167,53.5 291.833,53.5 290.5,53.5C 290.826,44.6506 290.493,35.9839 289.5,27.5C 286.167,27.5 282.833,27.5 279.5,27.5C 279.5,25.8333 279.5,24.1667 279.5,22.5 Z"/></g>
<g><path style="opacity:1" fill="#d1e3cf" d="M 314.5,21.5 C 315.72,23.0496 315.72,24.7163 314.5,26.5C 311.09,26.6162 309.756,24.9496 310.5,21.5C 311.833,21.5 313.167,21.5 314.5,21.5 Z"/></g>
<g><path style="opacity:1" fill="#97c397" d="M 309.5,20.5 C 311.415,20.2155 313.081,20.5489 314.5,21.5C 313.167,21.5 311.833,21.5 310.5,21.5C 309.756,24.9496 311.09,26.6162 314.5,26.5C 312.95,27.7199 311.284,27.7199 309.5,26.5C 309.5,24.5 309.5,22.5 309.5,20.5 Z"/></g>
<g><path style="opacity:1" fill="#c6e5c8" d="M 289.5,27.5 C 290.493,35.9839 290.826,44.6506 290.5,53.5C 291.833,53.5 293.167,53.5 294.5,53.5C 294.174,44.6506 294.507,35.9839 295.5,27.5C 295.5,36.5 295.5,45.5 295.5,54.5C 293.5,54.5 291.5,54.5 289.5,54.5C 289.5,45.5 289.5,36.5 289.5,27.5 Z"/></g>
<g><path style="opacity:1" fill="#4c7e4f" d="M 295.5,27.5 C 295.833,27.5 296.167,27.5 296.5,27.5C 296.5,36.8333 296.5,46.1667 296.5,55.5C 293.941,55.8016 291.607,55.4682 289.5,54.5C 291.5,54.5 293.5,54.5 295.5,54.5C 295.5,45.5 295.5,36.5 295.5,27.5 Z"/></g>
<g><path style="opacity:1" fill="#bedebd" d="M 315.5,30.5 C 315.5,38.5 315.5,46.5 315.5,54.5C 313.5,54.5 311.5,54.5 309.5,54.5C 309.5,46.8333 309.5,39.1667 309.5,31.5C 311.265,30.5386 313.265,30.2053 315.5,30.5 Z"/></g>
<g><path style="opacity:1" fill="#125713" d="M 335.5,30.5 C 332.763,30.4013 330.096,30.7347 327.5,31.5C 325.393,30.5318 323.059,30.1984 320.5,30.5C 320.5,41.5 320.5,52.5 320.5,63.5C 319.596,62.791 319.263,61.791 319.5,60.5C 318.5,60.5 317.5,60.5 316.5,60.5C 316.5,59.1667 316.5,57.8333 316.5,56.5C 313.482,56.6646 310.482,56.498 307.5,56C 306.833,55 306.167,54 305.5,53C 306.594,45.5571 307.927,38.3905 309.5,31.5C 309.5,39.1667 309.5,46.8333 309.5,54.5C 311.5,54.5 313.5,54.5 315.5,54.5C 315.5,46.5 315.5,38.5 315.5,30.5C 318.1,29.6347 320.767,28.968 323.5,28.5C 328.111,28.8481 332.778,29.0147 337.5,29C 336.584,29.2784 335.918,29.7784 335.5,30.5 Z"/></g>
<g><path style="opacity:1" fill="#d7ddd7" d="M 310.5,31.5 C 311.833,31.5 313.167,31.5 314.5,31.5C 314.5,38.5 314.5,45.5 314.5,52.5C 313.167,52.5 311.833,52.5 310.5,52.5C 310.5,45.5 310.5,38.5 310.5,31.5 Z"/></g>
<g><path style="opacity:1" fill="#d8ded8" d="M 457.5,27.5 C 456.507,35.9839 456.174,44.6506 456.5,53.5C 455.167,53.5 453.833,53.5 452.5,53.5C 452.826,44.6506 452.493,35.9839 451.5,27.5C 451.5,26.8333 451.167,26.5 450.5,26.5C 448.302,25.8347 445.969,25.1681 443.5,24.5C 450.833,23.1667 458.167,23.1667 465.5,24.5C 462.553,25.08 459.886,26.08 457.5,27.5 Z"/></g>
<g><path style="opacity:1" fill="#d6dcd5" d="M 351.5,31.5 C 356.14,30.9749 360.473,31.6416 364.5,33.5C 365.698,37.4885 365.698,41.4885 364.5,45.5C 363.682,42.8929 363.182,40.2263 363,37.5C 360.586,34.5198 357.752,33.8532 354.5,35.5C 353.094,35.9731 352.427,36.9731 352.5,38.5C 351.676,42.3123 351.176,46.3123 351,50.5C 348.984,49.1613 347.817,47.3279 347.5,45C 348.023,40.1883 349.356,35.6883 351.5,31.5 Z"/></g>
<g><path style="opacity:1" fill="#235a23" d="M 72.5,38.5 C 64.8045,38.8308 57.1378,38.4975 49.5,37.5C 52.1504,34.3489 54.9838,31.3489 58,28.5C 58.4828,27.552 58.6495,26.552 58.5,25.5C 56.4862,25.3915 54.8195,26.0582 53.5,27.5C 53.5,26.5 53.5,25.5 53.5,24.5C 55.8194,23.833 58.1527,23.6664 60.5,24C 61.5762,25.7261 61.7429,27.5594 61,29.5C 58.5,31.8333 56,34.1667 53.5,36.5C 59.9875,37.1668 66.3208,37.8334 72.5,38.5 Z"/></g>
<g><path style="opacity:1" fill="#125810" d="M 335.5,37.5 C 336.728,41.1495 336.728,44.8162 335.5,48.5C 329.176,51.2483 326.51,49.2483 327.5,42.5C 327.169,35.672 329.836,34.0054 335.5,37.5 Z"/></g>
<g><path style="opacity:1" fill="#316734" d="M 441.5,27.5 C 444.833,27.5 448.167,27.5 451.5,27.5C 451.5,36.5 451.5,45.5 451.5,54.5C 450.507,46.0161 450.174,37.3494 450.5,28.5C 447.287,28.81 444.287,28.4767 441.5,27.5 Z"/></g>
<g><path style="opacity:1" fill="#c2e0c4" d="M 451.5,27.5 C 452.493,35.9839 452.826,44.6506 452.5,53.5C 453.833,53.5 455.167,53.5 456.5,53.5C 456.174,44.6506 456.507,35.9839 457.5,27.5C 457.5,36.5 457.5,45.5 457.5,54.5C 455.5,54.5 453.5,54.5 451.5,54.5C 451.5,45.5 451.5,36.5 451.5,27.5 Z"/></g>
<g><path style="opacity:1" fill="#d3ddd4" d="M 335.5,31.5 C 336.5,31.5 337.5,31.5 338.5,31.5C 338.833,32.1667 339.167,32.8333 339.5,33.5C 340.227,36.6343 340.894,39.8009 341.5,43C 340.369,47.4345 338.369,51.2679 335.5,54.5C 334.5,54.5 333.5,54.5 332.5,54.5C 331.766,53.2921 331.433,51.9587 331.5,50.5C 333.483,50.8432 334.817,50.1765 335.5,48.5C 336.728,44.8162 336.728,41.1495 335.5,37.5C 335.5,36.5 335.5,35.5 335.5,34.5C 334.167,34.5 332.833,34.5 331.5,34.5C 331.5,33.5 331.5,32.5 331.5,31.5C 332.833,31.5 334.167,31.5 335.5,31.5 Z"/></g>
<g><path style="opacity:1" fill="#19581a" d="M 412.5,31.5 C 408.915,36.9484 407.748,42.9484 409,49.5C 415.093,56.7722 421.593,57.2722 428.5,51C 427.741,47.5846 426.075,46.9179 423.5,49C 420.854,49.4974 418.187,49.6641 415.5,49.5C 415.5,48.1667 415.5,46.8333 415.5,45.5C 420.167,45.5 424.833,45.5 429.5,45.5C 429.81,42.2869 429.477,39.2869 428.5,36.5C 427.752,34.6675 426.752,33.0009 425.5,31.5C 427.638,31.703 429.305,32.703 430.5,34.5C 431.491,38.4454 431.824,42.4454 431.5,46.5C 430.325,46.281 429.325,46.6143 428.5,47.5C 431.213,49.1827 431.713,51.1827 430,53.5C 428.509,55.0037 426.676,55.8371 424.5,56C 420.5,56.6667 416.5,56.6667 412.5,56C 410.254,54.7432 408.921,52.9099 408.5,50.5C 407.5,50.5 406.5,50.5 405.5,50.5C 405.771,52.3797 405.104,53.713 403.5,54.5C 403.5,43.1667 403.5,31.8333 403.5,20.5C 401.5,20.5 399.5,20.5 397.5,20.5C 397.823,24.226 397.489,27.8927 396.5,31.5C 391.525,29.4689 387.359,30.4689 384,34.5C 382.633,38.6996 382.133,43.0329 382.5,47.5C 380.026,42.7822 380.026,37.7822 382.5,32.5C 386.037,29.0463 390.37,27.7129 395.5,28.5C 395.704,25.4547 395.704,22.6213 395.5,20C 399.116,17.9473 402.616,18.1139 406,20.5C 405.624,29.5126 405.791,38.5126 406.5,47.5C 406.619,43.9516 406.785,40.285 407,36.5C 407.998,33.7656 409.832,32.0989 412.5,31.5 Z"/></g>
<g><path style="opacity:1" fill="#3e7542" d="M 73.5,42.5 C 65.8333,43.1667 58.1667,43.8333 50.5,44.5C 49.9569,44.44 49.6236,44.1067 49.5,43.5C 57.4723,42.5023 65.4723,42.169 73.5,42.5 Z"/></g>
<g><path style="opacity:1" fill="#c8d8c8" d="M 425.5,31.5 C 426.752,33.0009 427.752,34.6675 428.5,36.5C 428.5,39.1667 428.5,41.8333 428.5,44.5C 423.968,44.1818 419.634,44.5151 415.5,45.5C 415.5,46.8333 415.5,48.1667 415.5,49.5C 418.187,49.6641 420.854,49.4974 423.5,49C 426.075,46.9179 427.741,47.5846 428.5,51C 421.593,57.2722 415.093,56.7722 409,49.5C 407.748,42.9484 408.915,36.9484 412.5,31.5C 416.848,30.2463 421.182,30.2463 425.5,31.5 Z"/></g>
<g><path style="opacity:1" fill="#205820" d="M 416.5,35.5 C 420.851,34.533 423.185,36.1996 423.5,40.5C 420.833,40.5 418.167,40.5 415.5,40.5C 415.366,38.7085 415.699,37.0418 416.5,35.5 Z"/></g>
<g><path style="opacity:1" fill="#78a47a" d="M 428.5,36.5 C 429.477,39.2869 429.81,42.2869 429.5,45.5C 424.833,45.5 420.167,45.5 415.5,45.5C 419.634,44.5151 423.968,44.1818 428.5,44.5C 428.5,41.8333 428.5,39.1667 428.5,36.5 Z"/></g>
<g><path style="opacity:1" fill="#1c591d" d="M 338.5,31.5 C 339.552,31.3505 340.552,31.5172 341.5,32C 342.05,33.8446 343.05,35.3446 344.5,36.5C 345.324,33.3369 347.324,31.6702 350.5,31.5C 344.265,38.1905 343.932,45.1905 349.5,52.5C 350.025,53.1924 350.692,53.6924 351.5,54C 355.167,54.6667 358.833,54.6667 362.5,54C 364.083,52.2417 365.75,50.7417 367.5,49.5C 367.714,51.1439 367.38,52.6439 366.5,54C 361.04,56.2847 355.373,56.9513 349.5,56C 347.538,54.379 345.871,52.5457 344.5,50.5C 343.002,52.8292 341.002,54.6625 338.5,56C 335.54,55.6799 332.54,55.6799 329.5,56C 328.877,58.6073 328.21,61.1073 327.5,63.5C 327.187,59.9581 327.521,56.6248 328.5,53.5C 329.568,54.4345 330.901,54.7678 332.5,54.5C 333.5,54.5 334.5,54.5 335.5,54.5C 338.775,53.3861 340.942,51.0527 342,47.5C 342.667,43.8333 342.667,40.1667 342,36.5C 341.623,35.0577 340.79,34.0577 339.5,33.5C 339.167,32.8333 338.833,32.1667 338.5,31.5 Z"/></g>
<g><path style="opacity:1" fill="#689a6b" d="M 327.5,31.5 C 327.167,31.5 326.833,31.5 326.5,31.5C 324.833,31.5 323.167,31.5 321.5,31.5C 321.5,42.1667 321.5,52.8333 321.5,63.5C 321.167,63.5 320.833,63.5 320.5,63.5C 320.5,52.5 320.5,41.5 320.5,30.5C 323.059,30.1984 325.393,30.5318 327.5,31.5 Z"/></g>
<g><path style="opacity:1" fill="#d3ded4" d="M 326.5,31.5 C 325.422,37.5075 325.422,43.5075 326.5,49.5C 327.382,50.7598 328.382,51.9264 329.5,53C 329.272,53.3988 328.938,53.5654 328.5,53.5C 327.521,56.6248 327.187,59.9581 327.5,63.5C 325.5,63.5 323.5,63.5 321.5,63.5C 321.5,52.8333 321.5,42.1667 321.5,31.5C 323.167,31.5 324.833,31.5 326.5,31.5 Z"/></g>
<g><path style="opacity:1" fill="#c2d8c3" d="M 403.5,54.5 C 401.05,54.702 398.717,54.3686 396.5,53.5C 398.259,53.0461 400.259,53.0461 402.5,53.5C 402.666,43.1613 402.5,32.828 402,22.5C 400.989,21.6634 399.822,21.33 398.5,21.5C 398.528,26.8617 398.194,32.1951 397.5,37.5C 396.833,37.1667 396.167,36.8333 395.5,36.5C 393.183,35.0584 391.016,35.3918 389,37.5C 388.192,41.0267 388.359,44.3601 389.5,47.5C 392.105,50.0544 394.771,50.0544 397.5,47.5C 397.586,48.4959 397.252,49.3292 396.5,50C 393.007,51.0037 389.841,50.5037 387,48.5C 386.735,50.1626 387.235,51.6626 388.5,53C 390.81,53.4966 393.143,53.6633 395.5,53.5C 390.841,55.4113 386.841,54.4113 383.5,50.5C 383.737,49.209 383.404,48.209 382.5,47.5C 382.133,43.0329 382.633,38.6996 384,34.5C 387.359,30.4689 391.525,29.4689 396.5,31.5C 397.489,27.8927 397.823,24.226 397.5,20.5C 399.5,20.5 401.5,20.5 403.5,20.5C 403.5,31.8333 403.5,43.1667 403.5,54.5 Z"/></g>
<g><path style="opacity:1" fill="#0d580d" d="M 395.5,36.5 C 396.167,36.8333 396.833,37.1667 397.5,37.5C 397.5,40.8333 397.5,44.1667 397.5,47.5C 394.771,50.0544 392.105,50.0544 389.5,47.5C 389.335,44.4816 389.502,41.4816 390,38.5C 391.444,36.8446 393.278,36.178 395.5,36.5 Z"/></g>
<g><path style="opacity:1" fill="#57855a" d="M 395.5,36.5 C 393.278,36.178 391.444,36.8446 390,38.5C 389.502,41.4816 389.335,44.4816 389.5,47.5C 388.359,44.3601 388.192,41.0267 389,37.5C 391.016,35.3918 393.183,35.0584 395.5,36.5 Z"/></g>
<g><path style="opacity:1" fill="#b9d7b9" d="M 339.5,33.5 C 340.79,34.0577 341.623,35.0577 342,36.5C 342.667,40.1667 342.667,43.8333 342,47.5C 340.942,51.0527 338.775,53.3861 335.5,54.5C 338.369,51.2679 340.369,47.4345 341.5,43C 340.894,39.8009 340.227,36.6343 339.5,33.5 Z"/></g>
<g><path style="opacity:1" fill="#d6ded6" d="M 396.5,53.5 C 396.167,53.5 395.833,53.5 395.5,53.5C 393.143,53.6633 390.81,53.4966 388.5,53C 387.235,51.6626 386.735,50.1626 387,48.5C 389.841,50.5037 393.007,51.0037 396.5,50C 397.252,49.3292 397.586,48.4959 397.5,47.5C 397.5,44.1667 397.5,40.8333 397.5,37.5C 398.194,32.1951 398.528,26.8617 398.5,21.5C 399.822,21.33 400.989,21.6634 402,22.5C 402.5,32.828 402.666,43.1613 402.5,53.5C 400.259,53.0461 398.259,53.0461 396.5,53.5 Z"/></g>
<g><path style="opacity:1" fill="#195b19" d="M 508.5,31.5 C 506.615,33.0532 505.615,35.0532 505.5,37.5C 509.833,36.8333 514.167,36.1667 518.5,35.5C 518.5,36.8333 518.5,38.1667 518.5,39.5C 512.992,38.7219 508.492,40.3885 505,44.5C 503.53,49.1898 505.03,52.5232 509.5,54.5C 514.305,55.4872 519.305,55.8205 524.5,55.5C 519.015,56.6517 513.349,56.8184 507.5,56C 505.667,55.5 504.5,54.3333 504,52.5C 503.056,53.263 502.556,54.263 502.5,55.5C 504.449,57.7918 505.449,60.4585 505.5,63.5C 504.167,63.5 502.833,63.5 501.5,63.5C 501.785,61.712 501.452,60.0453 500.5,58.5C 496.822,57.4236 493.489,55.7569 490.5,53.5C 487.266,55.9935 483.599,57.3268 479.5,57.5C 479.719,58.675 479.386,59.675 478.5,60.5C 477.473,58.4469 476.473,56.4469 475.5,54.5C 478.85,54.665 482.183,54.4983 485.5,54C 489.33,52.1618 489.497,49.9951 486,47.5C 482.451,50.1258 478.951,50.1258 475.5,47.5C 479.913,45.8616 484.579,44.8616 489.5,44.5C 489.976,31.9877 484.309,27.9877 472.5,32.5C 466.989,40.0668 467.322,47.4001 473.5,54.5C 468.126,52.4344 465.792,48.4344 466.5,42.5C 466.667,40.5 466.833,38.5 467,36.5C 470.259,32.9183 473.092,29.085 475.5,25C 474.552,24.5172 473.552,24.3505 472.5,24.5C 471.59,27.4106 469.59,29.4106 466.5,30.5C 464.095,37.2737 463.095,36.9404 463.5,29.5C 462.167,29.5 460.833,29.5 459.5,29.5C 459.666,37.5069 459.5,45.5069 459,53.5C 458.617,54.056 458.117,54.3893 457.5,54.5C 457.5,45.5 457.5,36.5 457.5,27.5C 460.833,27.5 464.167,27.5 467.5,27.5C 468.461,25.7354 468.795,23.7354 468.5,21.5C 459.5,21.5 450.5,21.5 441.5,21.5C 441.5,23.5 441.5,25.5 441.5,27.5C 438.139,25.7024 437.806,23.369 440.5,20.5C 449.816,19.3346 459.149,19.1679 468.5,20C 469.725,21.563 471.225,22.7297 473,23.5C 474.879,21.9872 477.046,21.3205 479.5,21.5C 479.201,19.396 479.534,17.396 480.5,15.5C 483.128,17.915 483.128,20.415 480.5,23C 482.673,25.3394 485.006,27.5061 487.5,29.5C 490.083,33.0813 491.583,37.0813 492,41.5C 492.81,34.9184 492.643,28.4184 491.5,22C 493.301,21.6827 493.634,21.016 492.5,20C 496.021,17.223 499.355,17.223 502.5,20C 501.182,29.7728 501.182,39.6061 502.5,49.5C 504.226,45.3986 504.559,41.2319 503.5,37C 503.82,33.8369 505.486,32.0035 508.5,31.5 Z"/></g>
<g><path style="opacity:1" fill="#739a75" d="M 489.5,44.5 C 484.579,44.8616 479.913,45.8616 475.5,47.5C 474.596,46.791 474.263,45.791 474.5,44.5C 479.5,44.5 484.5,44.5 489.5,44.5 Z"/></g>
<g><path style="opacity:1" fill="#cddacc" d="M 489.5,44.5 C 484.5,44.5 479.5,44.5 474.5,44.5C 474.263,45.791 474.596,46.791 475.5,47.5C 478.951,50.1258 482.451,50.1258 486,47.5C 489.497,49.9951 489.33,52.1618 485.5,54C 482.183,54.4983 478.85,54.665 475.5,54.5C 474.833,54.5 474.167,54.5 473.5,54.5C 467.322,47.4001 466.989,40.0668 472.5,32.5C 484.309,27.9877 489.976,31.9877 489.5,44.5 Z"/></g>
<g><path style="opacity:1" fill="#add0af" d="M 494.5,34.5 C 495.49,40.6446 495.823,46.9779 495.5,53.5C 496.833,53.5 498.167,53.5 499.5,53.5C 499.5,42.8333 499.5,32.1667 499.5,21.5C 498.167,21.5 496.833,21.5 495.5,21.5C 495.813,25.0419 495.479,28.3752 494.5,31.5C 494.5,27.8333 494.5,24.1667 494.5,20.5C 496.5,20.5 498.5,20.5 500.5,20.5C 500.5,31.8333 500.5,43.1667 500.5,54.5C 498.5,54.5 496.5,54.5 494.5,54.5C 494.5,47.8333 494.5,41.1667 494.5,34.5 Z"/></g>
<g><path style="opacity:1" fill="#235924" d="M 477.5,35.5 C 481.349,35.0193 483.349,36.686 483.5,40.5C 480.833,40.5 478.167,40.5 475.5,40.5C 475.392,38.4862 476.058,36.8195 477.5,35.5 Z"/></g>
<g><path style="opacity:1" fill="#d8dbd9" d="M 494.5,34.5 C 494.5,33.5 494.5,32.5 494.5,31.5C 495.479,28.3752 495.813,25.0419 495.5,21.5C 496.833,21.5 498.167,21.5 499.5,21.5C 499.5,32.1667 499.5,42.8333 499.5,53.5C 498.167,53.5 496.833,53.5 495.5,53.5C 495.823,46.9779 495.49,40.6446 494.5,34.5 Z"/></g>
<g><path style="opacity:1" fill="#79a27b" d="M 467.5,27.5 C 467.5,25.8333 467.5,24.1667 467.5,22.5C 459.167,22.5 450.833,22.5 442.5,22.5C 442.5,23.8333 442.5,25.1667 442.5,26.5C 445.167,26.5 447.833,26.5 450.5,26.5C 451.167,26.5 451.5,26.8333 451.5,27.5C 448.167,27.5 444.833,27.5 441.5,27.5C 441.5,25.5 441.5,23.5 441.5,21.5C 450.5,21.5 459.5,21.5 468.5,21.5C 468.795,23.7354 468.461,25.7354 467.5,27.5 Z"/></g>
<g><path style="opacity:1" fill="#c8dfc9" d="M 467.5,27.5 C 464.167,27.5 460.833,27.5 457.5,27.5C 459.886,26.08 462.553,25.08 465.5,24.5C 458.167,23.1667 450.833,23.1667 443.5,24.5C 445.969,25.1681 448.302,25.8347 450.5,26.5C 447.833,26.5 445.167,26.5 442.5,26.5C 442.5,25.1667 442.5,23.8333 442.5,22.5C 450.833,22.5 459.167,22.5 467.5,22.5C 467.5,24.1667 467.5,25.8333 467.5,27.5 Z"/></g>
<g><path style="opacity:1" fill="#b7d4b8" d="M 72.5,38.5 C 73.4345,39.5676 73.7678,40.901 73.5,42.5C 65.4723,42.169 57.4723,42.5023 49.5,43.5C 49.6236,44.1067 49.9569,44.44 50.5,44.5C 53.8348,47.3245 56.8348,50.4911 59.5,54C 58.828,56.3899 57.4946,56.8899 55.5,55.5C 50.3206,51.1541 45.6539,46.3208 41.5,41C 45.1703,36.123 49.1703,31.623 53.5,27.5C 54.8195,26.0582 56.4862,25.3915 58.5,25.5C 58.6495,26.552 58.4828,27.552 58,28.5C 54.9838,31.3489 52.1504,34.3489 49.5,37.5C 57.1378,38.4975 64.8045,38.8308 72.5,38.5 Z"/></g>
<g><path style="opacity:1" fill="#d4dfd5" d="M 45.5,37.5 C 54.3751,38.9915 63.3751,39.9915 72.5,40.5C 64.5207,41.3316 56.5207,41.8316 48.5,42C 46.3208,44.0824 44.9874,43.5824 44.5,40.5C 44.685,39.4163 45.0183,38.4163 45.5,37.5 Z"/></g>
<g><path style="opacity:1" fill="#c5d8c4" d="M 523.5,33.5 C 524.427,40.443 524.76,47.443 524.5,54.5C 519.539,53.5853 514.539,53.5853 509.5,54.5C 505.03,52.5232 503.53,49.1898 505,44.5C 508.492,40.3885 512.992,38.7219 518.5,39.5C 518.5,38.1667 518.5,36.8333 518.5,35.5C 514.167,36.1667 509.833,36.8333 505.5,37.5C 505.615,35.0532 506.615,33.0532 508.5,31.5C 513.929,29.6361 518.929,30.3028 523.5,33.5 Z"/></g>
<g><path style="opacity:1" fill="#1a571a" d="M 517.5,43.5 C 517.833,43.5 518.167,43.5 518.5,43.5C 519.265,48.9064 516.931,50.9064 511.5,49.5C 510.5,44.5 512.5,42.5 517.5,43.5 Z"/></g>
<g><path style="opacity:1" fill="#d9dad7" d="M 518.5,43.5 C 518.167,43.5 517.833,43.5 517.5,43.5C 518.129,41.5351 518.796,39.5351 519.5,37.5C 519.43,36.2284 519.097,35.0617 518.5,34C 519.742,33.6886 520.742,34.1886 521.5,35.5C 522.495,41.1278 522.829,46.7945 522.5,52.5C 521.5,52.5 520.5,52.5 519.5,52.5C 519.62,50.8014 519.954,49.1347 520.5,47.5C 520.332,45.8295 519.665,44.4961 518.5,43.5 Z"/></g>
<g><path style="opacity:1" fill="#bdd6bd" d="M 335.5,30.5 C 335.5,30.8333 335.5,31.1667 335.5,31.5C 334.167,31.5 332.833,31.5 331.5,31.5C 331.5,32.5 331.5,33.5 331.5,34.5C 332.833,34.5 334.167,34.5 335.5,34.5C 335.5,35.5 335.5,36.5 335.5,37.5C 329.836,34.0054 327.169,35.672 327.5,42.5C 326.51,49.2483 329.176,51.2483 335.5,48.5C 334.817,50.1765 333.483,50.8432 331.5,50.5C 331.433,51.9587 331.766,53.2921 332.5,54.5C 330.901,54.7678 329.568,54.4345 328.5,53.5C 328.938,53.5654 329.272,53.3988 329.5,53C 328.382,51.9264 327.382,50.7598 326.5,49.5C 325.422,43.5075 325.422,37.5075 326.5,31.5C 326.833,31.5 327.167,31.5 327.5,31.5C 330.096,30.7347 332.763,30.4013 335.5,30.5 Z"/></g>
<g><path style="opacity:1" fill="#c4d7c5" d="M 350.5,31.5 C 350.833,31.5 351.167,31.5 351.5,31.5C 349.356,35.6883 348.023,40.1883 347.5,45C 347.817,47.3279 348.984,49.1613 351,50.5C 351.176,46.3123 351.676,42.3123 352.5,38.5C 352.335,41.5184 352.502,44.5184 353,47.5C 358.473,51.0678 361.306,49.5678 361.5,43C 361.662,40.498 360.995,38.3313 359.5,36.5C 358.081,35.5489 356.415,35.2155 354.5,35.5C 357.752,33.8532 360.586,34.5198 363,37.5C 363.182,40.2263 363.682,42.8929 364.5,45.5C 365.698,41.4885 365.698,37.4885 364.5,33.5C 365.79,34.0577 366.623,35.0577 367,36.5C 367.499,40.8206 367.666,45.1539 367.5,49.5C 365.75,50.7417 364.083,52.2417 362.5,54C 358.833,54.6667 355.167,54.6667 351.5,54C 350.692,53.6924 350.025,53.1924 349.5,52.5C 343.932,45.1905 344.265,38.1905 350.5,31.5 Z"/></g>
<g><path style="opacity:1" fill="#0d560e" d="M 359.5,36.5 C 360.995,38.3313 361.662,40.498 361.5,43C 361.306,49.5678 358.473,51.0678 353,47.5C 352.502,44.5184 352.335,41.5184 352.5,38.5C 354.479,36.8325 356.812,36.1658 359.5,36.5 Z"/></g>
<g><path style="opacity:1" fill="#6f9473" d="M 354.5,35.5 C 356.415,35.2155 358.081,35.5489 359.5,36.5C 356.812,36.1658 354.479,36.8325 352.5,38.5C 352.427,36.9731 353.094,35.9731 354.5,35.5 Z"/></g>
<g><path style="opacity:1" fill="#477948" d="M 523.5,33.5 C 524.117,33.6107 524.617,33.944 525,34.5C 525.821,41.6791 525.655,48.6791 524.5,55.5C 519.305,55.8205 514.305,55.4872 509.5,54.5C 514.539,53.5853 519.539,53.5853 524.5,54.5C 524.76,47.443 524.427,40.443 523.5,33.5 Z"/></g>
<g><path style="opacity:1" fill="#376c37" d="M 383.5,50.5 C 386.841,54.4113 390.841,55.4113 395.5,53.5C 395.833,53.5 396.167,53.5 396.5,53.5C 398.717,54.3686 401.05,54.702 403.5,54.5C 398.433,55.1882 393.267,55.8549 388,56.5C 385.763,55.0148 384.263,53.0148 383.5,50.5 Z"/></g>
<g><path style="opacity:1" fill="#d0dfd1" d="M -0.5,98.5 C 268.5,98.5 537.5,98.5 806.5,98.5C 806.5,99.1667 806.5,99.8333 806.5,100.5C 537.5,100.5 268.5,100.5 -0.5,100.5C -0.5,99.8333 -0.5,99.1667 -0.5,98.5 Z"/></g>
<g><path style="opacity:1" fill="#dad9dc" d="M -0.5,100.5 C 268.5,100.5 537.5,100.5 806.5,100.5C 806.5,101.5 806.5,102.5 806.5,103.5C 537.5,103.5 268.5,103.5 -0.5,103.5C -0.5,102.5 -0.5,101.5 -0.5,100.5 Z"/></g>
<g><path style="opacity:1" fill="#d9dcd9" d="M -0.5,103.5 C 268.5,103.5 537.5,103.5 806.5,103.5C 806.5,104.833 806.5,106.167 806.5,107.5C 537.5,107.5 268.5,107.5 -0.5,107.5C -0.5,106.167 -0.5,104.833 -0.5,103.5 Z"/></g>
<g><path style="opacity:1" fill="#dadada" d="M -0.5,107.5 C 268.5,107.5 537.5,107.5 806.5,107.5C 806.5,604.833 806.5,1102.17 806.5,1599.5C 782.833,1599.5 759.167,1599.5 735.5,1599.5C 735.5,1598.5 735.5,1597.5 735.5,1596.5C 738.167,1596.5 740.833,1596.5 743.5,1596.5C 743.5,1594.83 743.5,1593.17 743.5,1591.5C 746.365,1591.95 748.865,1591.28 751,1589.5C 751.388,1590.43 752.055,1591.09 753,1591.5C 755.806,1589.21 757.972,1586.54 759.5,1583.5C 764.465,1583.2 767.132,1580.53 767.5,1575.5C 772.465,1575.2 775.132,1572.53 775.5,1567.5C 779.167,1565.83 781.833,1563.17 783.5,1559.5C 784.5,1559.5 785.5,1559.5 786.5,1559.5C 787.167,1554.17 787.833,1548.83 788.5,1543.5C 789.5,1543.5 790.5,1543.5 791.5,1543.5C 791.5,1530.17 791.5,1516.83 791.5,1503.5C 790.5,1503.5 789.5,1503.5 788.5,1503.5C 788.5,1500.83 788.5,1498.17 788.5,1495.5C 786.833,1495.5 785.167,1495.5 783.5,1495.5C 783.5,1494.5 783.5,1493.5 783.5,1492.5C 780.53,1492.25 779.197,1490.59 779.5,1487.5C 780.833,1487.5 782.167,1487.5 783.5,1487.5C 783.255,1482.93 780.921,1480.26 776.5,1479.5C 776.5,1476.83 776.5,1474.17 776.5,1471.5C 773.5,1471.5 770.5,1471.5 767.5,1471.5C 767.392,1468.62 766.226,1466.28 764,1464.5C 761.888,1463.78 759.888,1462.78 758,1461.5C 757.5,1461.67 757,1461.83 756.5,1462C 758.421,1463.24 758.754,1464.74 757.5,1466.5C 755.866,1466.03 754.7,1465.03 754,1463.5C 753.329,1464.25 752.496,1464.59 751.5,1464.5C 748.846,1461.71 745.68,1459.38 742,1457.5C 742.855,1455.39 743.355,1453.05 743.5,1450.5C 740.813,1450.66 738.146,1450.5 735.5,1450C 735.034,1448.7 735.034,1447.2 735.5,1445.5C 730.205,1445.53 725.039,1444.86 720,1443.5C 719.51,1444.79 719.343,1446.13 719.5,1447.5C 714.657,1446.93 709.824,1446.27 705,1445.5C 702.065,1447.19 698.898,1447.86 695.5,1447.5C 695.5,1448.5 695.5,1449.5 695.5,1450.5C 692.833,1450.5 690.167,1450.5 687.5,1450.5C 687.5,1452.17 687.5,1453.83 687.5,1455.5C 689.942,1455.12 690.609,1455.79 689.5,1457.5C 687.955,1458.45 686.288,1458.79 684.5,1458.5C 684.5,1457.5 684.5,1456.5 684.5,1455.5C 681.753,1455.19 679.086,1455.52 676.5,1456.5C 677.714,1458.07 679.381,1458.9 681.5,1459C 679.519,1459.61 679.185,1460.61 680.5,1462C 679.027,1462.71 678.36,1463.88 678.5,1465.5C 676.263,1466.45 673.929,1467.12 671.5,1467.5C 671.5,1466.17 671.5,1464.83 671.5,1463.5C 666.535,1463.8 663.868,1466.47 663.5,1471.5C 661.833,1471.5 660.167,1471.5 658.5,1471.5C 656.639,1473.75 655.639,1476.41 655.5,1479.5C 652.456,1481.03 649.79,1483.19 647.5,1486C 647.786,1489 647.786,1492.17 647.5,1495.5C 645.833,1495.5 644.167,1495.5 642.5,1495.5C 642.5,1498.17 642.5,1500.83 642.5,1503.5C 641.5,1503.5 640.5,1503.5 639.5,1503.5C 639.5,1516.83 639.5,1530.17 639.5,1543.5C 640.5,1543.5 641.5,1543.5 642.5,1543.5C 642.5,1546.17 642.5,1548.83 642.5,1551.5C 644.167,1551.5 645.833,1551.5 647.5,1551.5C 647.786,1554.83 647.786,1558 647.5,1561C 649.79,1563.81 652.456,1565.97 655.5,1567.5C 655.868,1572.53 658.535,1575.2 663.5,1575.5C 663.868,1580.53 666.535,1583.2 671.5,1583.5C 673.028,1586.54 675.194,1589.21 678,1591.5C 679.152,1589.49 680.318,1589.32 681.5,1591C 683.473,1591.5 685.473,1591.66 687.5,1591.5C 687.5,1593.17 687.5,1594.83 687.5,1596.5C 690.167,1596.5 692.833,1596.5 695.5,1596.5C 695.5,1597.5 695.5,1598.5 695.5,1599.5C 463.5,1599.5 231.5,1599.5 -0.5,1599.5C -0.5,1102.17 -0.5,604.833 -0.5,107.5 Z"/></g>
<g><path style="opacity:1" fill="#4c4c4c" d="M 44.5,140.5 C 46.2922,139.691 48.2922,139.191 50.5,139C 45.1667,138.333 39.8333,138.333 34.5,139C 37.0356,139.186 39.369,139.686 41.5,140.5C 38.8333,140.5 36.1667,140.5 33.5,140.5C 33.5,139.5 33.5,138.5 33.5,137.5C 39.5,137.5 45.5,137.5 51.5,137.5C 51.5,138.5 51.5,139.5 51.5,140.5C 49.1667,140.5 46.8333,140.5 44.5,140.5 Z"/></g>
<g><path style="opacity:1" fill="#717171" d="M 200.5,138.5 C 197.43,138.368 194.43,138.701 191.5,139.5C 191.611,138.883 191.944,138.383 192.5,138C 195.367,137.199 198.034,137.366 200.5,138.5 Z"/></g>
<g><path style="opacity:1" fill="#2d2d2d" d="M 111.5,137.5 C 117.5,137.5 123.5,137.5 129.5,137.5C 129.5,138.5 129.5,139.5 129.5,140.5C 126.833,140.5 124.167,140.5 121.5,140.5C 121.5,147.5 121.5,154.5 121.5,161.5C 120.5,161.5 119.5,161.5 118.5,161.5C 118.5,154.5 118.5,147.5 118.5,140.5C 116.167,140.5 113.833,140.5 111.5,140.5C 111.5,139.5 111.5,138.5 111.5,137.5 Z"/></g>
<g><path style="opacity:1" fill="#111111" d="M 56.5,138.5 C 58.337,138.639 58.6704,139.306 57.5,140.5C 56.7025,140.043 56.3691,139.376 56.5,138.5 Z"/></g>
<g><path style="opacity:1" fill="#545454" d="M 302.5,137.5 C 303.5,137.5 304.5,137.5 305.5,137.5C 305.5,138.833 305.5,140.167 305.5,141.5C 304.5,141.5 303.5,141.5 302.5,141.5C 302.5,140.167 302.5,138.833 302.5,137.5 Z"/></g>
<g><path style="opacity:1" fill="#1c1c1c" d="M 44.5,140.5 C 44.5,147.5 44.5,154.5 44.5,161.5C 43.5,161.5 42.5,161.5 41.5,161.5C 41.5,154.5 41.5,147.5 41.5,140.5C 39.369,139.686 37.0356,139.186 34.5,139C 39.8333,138.333 45.1667,138.333 50.5,139C 48.2922,139.191 46.2922,139.691 44.5,140.5 Z"/></g>
<g><path style="opacity:1" fill="#272926" d="M 268.5,137.5 C 272.182,137.335 275.848,137.501 279.5,138C 284.224,140.435 285.724,144.269 284,149.5C 280.285,152.076 276.118,153.076 271.5,152.5C 271.5,155.5 271.5,158.5 271.5,161.5C 270.5,161.5 269.5,161.5 268.5,161.5C 268.5,153.5 268.5,145.5 268.5,137.5 Z"/></g>
<g><path style="opacity:1" fill="#454744" d="M 322.5,145.5 C 321.508,145.328 320.842,145.662 320.5,146.5C 318.533,146.261 316.699,146.594 315,147.5C 314.826,152.351 314.326,157.018 313.5,161.5C 313.5,155.833 313.5,150.167 313.5,144.5C 315.342,144.277 317.175,143.943 319,143.5C 320.699,143.387 321.866,144.053 322.5,145.5 Z"/></g>
<g><path style="opacity:1" fill="#2c2e2b" d="M 320.5,146.5 C 320.842,145.662 321.508,145.328 322.5,145.5C 324.905,145.134 327.238,144.467 329.5,143.5C 331.405,144.065 333.071,145.065 334.5,146.5C 335.494,151.456 335.827,156.456 335.5,161.5C 334.5,161.5 333.5,161.5 332.5,161.5C 332.5,156.5 332.5,151.5 332.5,146.5C 329.635,146.055 327.135,146.722 325,148.5C 324.501,152.821 324.334,157.154 324.5,161.5C 323.5,161.5 322.5,161.5 321.5,161.5C 321.821,156.305 321.487,151.305 320.5,146.5 Z"/></g>
<g><path style="opacity:1" fill="#d3d4d2" d="M 271.5,140.5 C 274.518,140.335 277.518,140.502 280.5,141C 282.418,142.77 282.918,144.937 282,147.5C 278.757,149.263 275.257,149.929 271.5,149.5C 271.5,146.5 271.5,143.5 271.5,140.5 Z"/></g>
<g><path style="opacity:1" fill="#454745" d="M 150.5,137.5 C 151.209,136.596 152.209,136.263 153.5,136.5C 153.826,145.017 153.493,153.35 152.5,161.5C 153.134,153.097 152.467,145.097 150.5,137.5 Z"/></g>
<g><path style="opacity:1" fill="#565856" d="M 233.5,137.5 C 231.533,145.097 230.866,153.097 231.5,161.5C 230.507,153.35 230.174,145.017 230.5,136.5C 231.791,136.263 232.791,136.596 233.5,137.5 Z"/></g>
<g><path style="opacity:1" fill="#161616" d="M 56.5,143.5 C 57.8164,146.087 58.483,149.087 58.5,152.5C 58.1667,155.5 57.8333,158.5 57.5,161.5C 56.5041,155.537 56.1707,149.537 56.5,143.5 Z"/></g>
<g><path style="opacity:1" fill="#252624" d="M 135.5,143.5 C 142.5,143.167 145.833,146.5 145.5,153.5C 141.833,153.5 138.167,153.5 134.5,153.5C 135.315,159.786 138.481,161.12 144,157.5C 144.167,157.833 144.333,158.167 144.5,158.5C 140.32,162.637 136.32,162.47 132.5,158C 130.428,152.343 131.428,147.51 135.5,143.5 Z"/></g>
<g><path style="opacity:1" fill="#c3c5c2" d="M 135.5,146.5 C 137.527,146.338 139.527,146.505 141.5,147C 142.38,148.356 142.714,149.856 142.5,151.5C 139.833,151.5 137.167,151.5 134.5,151.5C 134.366,149.708 134.699,148.042 135.5,146.5 Z"/></g>
<g><path style="opacity:1" fill="#1e1f1d" d="M 290.5,143.5 C 293.137,144.63 295.803,144.63 298.5,143.5C 298.5,144.5 298.5,145.5 298.5,146.5C 296.278,146.178 294.444,146.845 293,148.5C 292.828,152.871 292.328,157.204 291.5,161.5C 290.504,155.537 290.171,149.537 290.5,143.5 Z"/></g>
<g><path style="opacity:1" fill="#2a2c29" d="M 302.5,143.5 C 303.5,143.5 304.5,143.5 305.5,143.5C 305.5,149.5 305.5,155.5 305.5,161.5C 304.5,161.5 303.5,161.5 302.5,161.5C 302.5,155.5 302.5,149.5 302.5,143.5 Z"/></g>
<g><path style="opacity:1" fill="#161715" d="M 313.5,144.5 C 313.5,150.167 313.5,155.833 313.5,161.5C 312.184,158.913 311.517,155.913 311.5,152.5C 311.833,149.5 312.167,146.5 312.5,143.5C 313.107,143.624 313.44,143.957 313.5,144.5 Z"/></g>
<g><path style="opacity:1" fill="#2a2c2a" d="M 163.5,143.5 C 166.675,143.503 169.508,144.503 172,146.5C 172.829,151.533 172.662,156.533 171.5,161.5C 168.244,161.194 164.911,161.027 161.5,161C 158.136,158.271 157.803,155.271 160.5,152C 163.351,150.711 166.351,150.211 169.5,150.5C 169.5,149.167 169.5,147.833 169.5,146.5C 166.428,146.187 163.595,146.854 161,148.5C 160.5,148.167 160,147.833 159.5,147.5C 160.549,145.784 161.882,144.451 163.5,143.5 Z"/></g>
<g><path style="opacity:1" fill="#171816" d="M 233.5,137.5 C 234.134,145.903 233.467,153.903 231.5,161.5C 230.866,153.097 231.533,145.097 233.5,137.5 Z"/></g>
<g><path style="opacity:1" fill="#282928" d="M 345.5,143.5 C 352.032,143.697 355.032,147.031 354.5,153.5C 350.833,153.5 347.167,153.5 343.5,153.5C 344.661,159.582 347.827,160.916 353,157.5C 353.5,157.833 354,158.167 354.5,158.5C 349.702,162.822 345.369,162.489 341.5,157.5C 339.195,151.556 340.529,146.889 345.5,143.5 Z"/></g>
<g><path style="opacity:1" fill="#c0c2bf" d="M 344.5,146.5 C 349.175,145.339 351.841,147.006 352.5,151.5C 349.5,151.5 346.5,151.5 343.5,151.5C 343.629,149.784 343.962,148.117 344.5,146.5 Z"/></g>
<g><path style="opacity:1" fill="#212220" d="M 250.5,136.5 C 251.5,136.5 252.5,136.5 253.5,136.5C 253.831,144.86 253.498,153.193 252.5,161.5C 251.833,160.833 251.167,160.167 250.5,159.5C 247.223,162.006 244.056,162.006 241,159.5C 239.48,155.625 239.146,151.625 240,147.5C 242.542,143.487 246.042,142.487 250.5,144.5C 250.5,141.833 250.5,139.167 250.5,136.5 Z"/></g>
<g><path style="opacity:1" fill="#d6d8d5" d="M 248.5,158.5 C 246.297,158.396 244.297,157.73 242.5,156.5C 242.5,156.167 242.5,155.833 242.5,155.5C 242.401,152.763 242.735,150.096 243.5,147.5C 248.586,145.4 250.92,147.234 250.5,153C 250.453,155.295 249.787,157.129 248.5,158.5 Z"/></g>
<g><path style="opacity:1" fill="#858784" d="M 243.5,147.5 C 242.735,150.096 242.401,152.763 242.5,155.5C 241.848,154.551 241.514,153.385 241.5,152C 241.307,149.992 241.974,148.492 243.5,147.5 Z"/></g>
<g><path style="opacity:1" fill="#2e2f2d" d="M 98.5,148.5 C 98.6576,151.902 98.3242,155.236 97.5,158.5C 90.01,163.862 85.3434,162.029 83.5,153C 84.0548,146.773 87.3881,143.773 93.5,144C 95.6605,144.996 97.3272,146.496 98.5,148.5 Z"/></g>
<g><path style="opacity:1" fill="#cccecb" d="M 88.5,146.5 C 95.1816,145.825 97.6816,148.825 96,155.5C 93.8656,160.076 91.0323,160.576 87.5,157C 85.9236,153.226 86.2569,149.726 88.5,146.5 Z"/></g>
<g><path style="opacity:1" fill="#151715" d="M 150.5,137.5 C 152.467,145.097 153.134,153.097 152.5,161.5C 150.533,153.903 149.866,145.903 150.5,137.5 Z"/></g>
<g><path style="opacity:1" fill="#3e423d" d="M 721.5,155.5 C 721.5,156.833 721.5,158.167 721.5,159.5C 712.167,159.5 702.833,159.5 693.5,159.5C 693.5,158.167 693.5,156.833 693.5,155.5C 698.197,155.161 702.863,154.494 707.5,153.5C 712.137,154.494 716.803,155.161 721.5,155.5 Z"/></g>
<g><path style="opacity:1" fill="#c8cac7" d="M 162.5,152.5 C 164.833,152.5 167.167,152.5 169.5,152.5C 169.62,158.026 167.12,159.693 162,157.5C 161.616,155.803 161.782,154.137 162.5,152.5 Z"/></g>
<g><path style="opacity:1" fill="#242623" d="M 214.5,143.5 C 223.695,144.023 227.028,148.69 224.5,157.5C 219.911,162.786 215.411,162.786 211,157.5C 209.608,152.093 210.774,147.426 214.5,143.5 Z"/></g>
<g><path style="opacity:1" fill="#d0d2cf" d="M 214.5,146.5 C 222.003,145.853 224.503,149.186 222,156.5C 218.548,160.611 215.548,160.278 213,155.5C 212.207,152.259 212.707,149.259 214.5,146.5 Z"/></g>
<g><path style="opacity:1" fill="#797979" d="M 98.5,148.5 C 99.6378,151.304 99.8045,154.304 99,157.5C 98.6174,158.056 98.1174,158.389 97.5,158.5C 98.3242,155.236 98.6576,151.902 98.5,148.5 Z"/></g>
<g><path style="opacity:1" fill="#252525" d="M 200.5,138.5 C 202.464,140.127 203.797,142.127 204.5,144.5C 202.176,144.338 200.509,143.172 199.5,141C 197.167,140.333 194.833,140.333 192.5,141C 190.038,146.396 189.871,151.896 192,157.5C 194.964,159.726 198.13,160.059 201.5,158.5C 202.468,156.393 202.802,154.059 202.5,151.5C 200.5,151.5 198.5,151.5 196.5,151.5C 198.635,149.631 201.302,148.964 204.5,149.5C 206.398,159.394 202.398,163.228 192.5,161C 187.798,156.089 186.298,150.256 188,143.5C 188.498,141.456 189.665,140.122 191.5,139.5C 194.43,138.701 197.43,138.368 200.5,138.5 Z"/></g>
<g><path style="opacity:1" fill="#727270" d="M 196.5,151.5 C 198.5,151.5 200.5,151.5 202.5,151.5C 202.802,154.059 202.468,156.393 201.5,158.5C 201.5,156.5 201.5,154.5 201.5,152.5C 199.585,152.784 197.919,152.451 196.5,151.5 Z"/></g>
<g><path style="opacity:1" fill="#8a8c88" d="M 242.5,156.5 C 244.297,157.73 246.297,158.396 248.5,158.5C 247.054,159.613 245.387,159.78 243.5,159C 242.748,158.329 242.414,157.496 242.5,156.5 Z"/></g>
<g><path style="opacity:1" fill="#222321" d="M 71.5,161.5 C 70.8333,160.833 70.1667,160.167 69.5,159.5C 67.6122,161.988 66.9455,164.988 67.5,168.5C 66.1752,164.724 65.5085,160.557 65.5,156C 65.8333,151.833 66.1667,147.667 66.5,143.5C 69.0666,143.778 71.7333,143.944 74.5,144C 80.1583,148.262 80.9917,153.428 77,159.5C 75.4157,160.861 73.5824,161.528 71.5,161.5 Z"/></g>
<g><path style="opacity:1" fill="#cdcfcc" d="M 69.5,159.5 C 67.513,156.141 67.013,152.475 68,148.5C 71.0301,145.64 73.6968,145.973 76,149.5C 77.5131,155.514 75.3464,158.847 69.5,159.5 Z"/></g>
<g><path style="opacity:1" fill="#a6a8a4" d="M 721.5,155.5 C 722.451,156.919 722.784,158.585 722.5,160.5C 712.652,160.827 702.986,160.494 693.5,159.5C 702.833,159.5 712.167,159.5 721.5,159.5C 721.5,158.167 721.5,156.833 721.5,155.5 Z"/></g>
<g><path style="opacity:1" fill="#40403f" d="M 618.5,154.5 C 620.288,154.215 621.955,154.548 623.5,155.5C 624.48,156.981 625.647,158.315 627,159.5C 627.156,162.147 625.823,163.814 623,164.5C 620.833,162.333 618.667,160.167 616.5,158C 616.978,156.697 617.645,155.531 618.5,154.5 Z"/></g>
<g><path style="opacity:1" fill="#8b8b8b" d="M 69.5,159.5 C 70.1667,160.167 70.8333,160.833 71.5,161.5C 70.5,161.5 69.5,161.5 68.5,161.5C 68.8016,164.059 68.4682,166.393 67.5,168.5C 66.9455,164.988 67.6122,161.988 69.5,159.5 Z"/></g>
<g><path style="opacity:1" fill="#6b6d68" d="M 719.5,162.5 C 711.833,162.5 704.167,162.5 696.5,162.5C 696.5,171.167 696.5,179.833 696.5,188.5C 695.507,179.682 695.173,170.682 695.5,161.5C 703.684,161.174 711.684,161.508 719.5,162.5 Z"/></g>
<g><path style="opacity:1" fill="#3d403a" d="M 719.5,162.5 C 720.817,171.038 720.817,179.705 719.5,188.5C 718.975,189.192 718.308,189.692 717.5,190C 714,190.167 710.5,190.333 707,190.5C 703.098,190.488 699.598,189.821 696.5,188.5C 696.5,179.833 696.5,171.167 696.5,162.5C 704.167,162.5 711.833,162.5 719.5,162.5 Z"/></g>
<g><path style="opacity:1" fill="#3e403b" d="M 612.5,160.5 C 616.304,162.131 618.804,164.798 620,168.5C 612.985,175.348 606.152,182.348 599.5,189.5C 596.572,190.484 593.572,190.817 590.5,190.5C 590.336,187.813 590.503,185.146 591,182.5C 598.369,175.298 605.536,167.965 612.5,160.5 Z"/></g>
<g><path style="opacity:1" fill="#494b48" d="M 327.5,185.5 C 330.505,185.253 333.005,186.253 335,188.5C 335.667,193.5 335.667,198.5 335,203.5C 330.845,207.704 327.178,207.371 324,202.5C 323.333,197.833 323.333,193.167 324,188.5C 325.145,187.364 326.312,186.364 327.5,185.5 Z"/></g>
<g><path style="opacity:1" fill="#616160" d="M 357.5,185.5 C 363.71,185.041 365.71,187.708 363.5,193.5C 361.305,194.769 359.139,194.769 357,193.5C 356.278,190.739 356.445,188.073 357.5,185.5 Z"/></g>
<g><path style="opacity:1" fill="#d2d2d2" d="M 359.5,187.5 C 362.084,188.048 363.084,189.715 362.5,192.5C 361.167,192.5 359.833,192.5 358.5,192.5C 358.366,190.708 358.699,189.042 359.5,187.5 Z"/></g>
<g><path style="opacity:1" fill="#4a4b49" d="M 283.5,185.5 C 286.898,185.18 290.232,185.513 293.5,186.5C 290.914,187.48 288.247,187.813 285.5,187.5C 285.5,189.5 285.5,191.5 285.5,193.5C 294.379,192.645 296.879,196.312 293,204.5C 288.74,207.614 285.24,206.948 282.5,202.5C 284.123,201.524 285.457,202.024 286.5,204C 291.496,204.664 293.33,202.498 292,197.5C 291.044,196.106 289.711,195.439 288,195.5C 286.175,195.943 284.342,196.277 282.5,196.5C 282.942,192.846 283.276,189.179 283.5,185.5 Z"/></g>
<g><path style="opacity:1" fill="#575956" d="M 107.5,190.5 C 112.975,190.976 115.642,193.976 115.5,199.5C 112.167,199.5 108.833,199.5 105.5,199.5C 106.477,204.749 109.143,205.749 113.5,202.5C 113.833,202.833 114.167,203.167 114.5,203.5C 111.006,207.431 107.506,207.431 104,203.5C 101.348,198.039 102.514,193.706 107.5,190.5 Z"/></g>
<g><path style="opacity:1" fill="#626361" d="M 195.5,204.5 C 194.672,198.681 194.172,192.681 194,186.5C 193.5,193.158 193.334,199.825 193.5,206.5C 192.509,199.687 192.175,192.687 192.5,185.5C 193.5,185.5 194.5,185.5 195.5,185.5C 195.5,191.833 195.5,198.167 195.5,204.5 Z"/></g>
<g><path style="opacity:1" fill="#d0d1cf" d="M 327.5,187.5 C 330.86,186.79 332.693,188.124 333,191.5C 333.667,194.833 333.667,198.167 333,201.5C 331.174,205.037 328.84,205.371 326,202.5C 324.955,197.215 325.455,192.215 327.5,187.5 Z"/></g>
<g><path style="opacity:1" fill="#70726f" d="M 93.5,191.5 C 94.5,191.5 95.5,191.5 96.5,191.5C 96.8222,197.358 96.4889,203.025 95.5,208.5C 95.1788,206.952 94.1788,206.285 92.5,206.5C 92.5,205.833 92.5,205.167 92.5,204.5C 93.4959,204.586 94.3292,204.252 95,203.5C 95.4983,200.183 95.665,196.85 95.5,193.5C 93.8333,193.5 92.1667,193.5 90.5,193.5C 91.5,192.833 92.5,192.167 93.5,191.5 Z"/></g>
<g><path style="opacity:1" fill="#4d4f4c" d="M 253.5,190.5 C 261.179,191.018 264.012,195.018 262,202.5C 261.06,205.442 259.06,206.775 256,206.5C 250.217,204.681 248.217,200.681 250,194.5C 251.102,193.051 252.269,191.718 253.5,190.5 Z"/></g>
<g><path style="opacity:1" fill="#636562" d="M 368.5,188.5 C 369.376,188.369 370.043,188.702 370.5,189.5C 367.402,194.709 364.068,199.709 360.5,204.5C 360.167,204.167 359.833,203.833 359.5,203.5C 362.26,198.307 365.26,193.307 368.5,188.5 Z"/></g>
<g><path style="opacity:1" fill="#8f918e" d="M 265.5,190.5 C 266.833,190.5 268.167,190.5 269.5,190.5C 269.5,191.833 269.5,193.167 269.5,194.5C 266.5,194.833 265.167,193.5 265.5,190.5 Z"/></g>
<g><path style="opacity:1" fill="#d6d8d5" d="M 106.5,193.5 C 108.977,193.051 110.977,193.717 112.5,195.5C 110.167,196.833 107.833,196.833 105.5,195.5C 105.863,194.817 106.196,194.15 106.5,193.5 Z"/></g>
<g><path style="opacity:1" fill="#4d4f4c" d="M 71.5,193.5 C 72.0894,197.971 71.4228,201.971 69.5,205.5C 61.0592,207.564 58.7259,204.73 62.5,197C 64.9005,196.814 67.2338,196.314 69.5,195.5C 66.9549,192.925 64.2882,192.925 61.5,195.5C 61.1667,195 60.8333,194.5 60.5,194C 64.018,189.525 67.6847,189.359 71.5,193.5 Z"/></g>
<g><path style="opacity:1" fill="#a6a8a4" d="M 219.5,206.5 C 219.827,201.456 219.494,196.456 218.5,191.5C 217.833,195.647 217.166,199.647 216.5,203.5C 216.5,199.167 216.5,194.833 216.5,190.5C 217.833,190.5 219.167,190.5 220.5,190.5C 220.821,196.026 220.488,201.36 219.5,206.5 Z"/></g>
<g><path style="opacity:1" fill="#525451" d="M 227.5,190.5 C 231.758,190.124 234.758,191.791 236.5,195.5C 235.675,196.386 234.675,196.719 233.5,196.5C 233.5,195.5 233.5,194.5 233.5,193.5C 231.208,193.244 229.041,193.577 227,194.5C 226.333,197.167 226.333,199.833 227,202.5C 229.901,205.318 232.401,204.984 234.5,201.5C 235.583,202.365 235.749,203.365 235,204.5C 228.283,208.144 224.449,206.144 223.5,198.5C 223.782,195.269 225.115,192.602 227.5,190.5 Z"/></g>
<g><path style="opacity:1" fill="#50514f" d="M 171.5,191.5 C 178.175,190.186 181.509,192.853 181.5,199.5C 178.167,199.5 174.833,199.5 171.5,199.5C 172.477,204.749 175.143,205.749 179.5,202.5C 179.833,202.833 180.167,203.167 180.5,203.5C 176.365,207.713 172.531,207.379 169,202.5C 167.812,198.259 168.645,194.592 171.5,191.5 Z"/></g>
<g><path style="opacity:1" fill="#d1d3d0" d="M 172.5,193.5 C 174.977,193.051 176.977,193.717 178.5,195.5C 176.167,196.833 173.833,196.833 171.5,195.5C 171.863,194.817 172.196,194.15 172.5,193.5 Z"/></g>
<g><path style="opacity:1" fill="#d0d2cf" d="M 253.5,193.5 C 259.499,193.002 261.666,195.669 260,201.5C 257.215,205.465 254.548,205.465 252,201.5C 251.109,198.502 251.609,195.836 253.5,193.5 Z"/></g>
<g><path style="opacity:1" fill="#4c4e4b" d="M 35.5,185.5 C 36.5,185.5 37.5,185.5 38.5,185.5C 40.3661,190.587 42.5327,195.587 45,200.5C 47.8234,196.165 49.9901,191.498 51.5,186.5C 52.6888,185.571 54.0222,185.238 55.5,185.5C 55.5,192.5 55.5,199.5 55.5,206.5C 54.5,206.5 53.5,206.5 52.5,206.5C 52.6659,201.489 52.4993,196.489 52,191.5C 50.0476,196.53 48.2143,201.53 46.5,206.5C 45.5,206.5 44.5,206.5 43.5,206.5C 42.7908,201.083 40.9575,196.083 38,191.5C 37.829,196.533 37.329,201.533 36.5,206.5C 35.503,199.532 35.1697,192.532 35.5,185.5 Z"/></g>
<g><path style="opacity:1" fill="#969895" d="M 71.5,193.5 C 72.4849,197.634 72.8182,201.968 72.5,206.5C 71.209,206.737 70.209,206.404 69.5,205.5C 71.4228,201.971 72.0894,197.971 71.5,193.5 Z"/></g>
<g><path style="opacity:1" fill="#3d3f3c" d="M 76.5,190.5 C 77.7498,190.577 78.5831,191.244 79,192.5C 80.4936,191.253 81.9936,191.253 83.5,192.5C 81.7045,193.141 80.2045,194.141 79,195.5C 78.8253,199.211 78.3253,202.878 77.5,206.5C 76.5052,201.208 76.1718,195.875 76.5,190.5 Z"/></g>
<g><path style="opacity:1" fill="#cfd1ce" d="M 90.5,193.5 C 92.1667,193.5 93.8333,193.5 95.5,193.5C 95.665,196.85 95.4983,200.183 95,203.5C 94.3292,204.252 93.4959,204.586 92.5,204.5C 90.9826,204.489 89.8159,203.823 89,202.5C 88.3333,199.833 88.3333,197.167 89,194.5C 89.3826,193.944 89.8826,193.611 90.5,193.5 Z"/></g>
<g><path style="opacity:1" fill="#5e5e5b" d="M 368.5,196.5 C 373.49,196.78 375.324,199.447 374,204.5C 371.667,207.167 369.333,207.167 367,204.5C 366.109,201.502 366.609,198.836 368.5,196.5 Z"/></g>
<g><path style="opacity:1" fill="#d4d4d0" d="M 368.5,198.5 C 372.35,198.701 373.35,200.534 371.5,204C 370.552,204.483 369.552,204.649 368.5,204.5C 368.5,202.5 368.5,200.5 368.5,198.5 Z"/></g>
<g><path style="opacity:1" fill="#c3c5c2" d="M 63.5,198.5 C 65.5,198.5 67.5,198.5 69.5,198.5C 69.5693,203.207 67.4027,204.873 63,203.5C 62.3603,201.735 62.5269,200.068 63.5,198.5 Z"/></g>
<g><path style="opacity:1" fill="#464845" d="M 93.5,191.5 C 92.5,192.167 91.5,192.833 90.5,193.5C 89.8826,193.611 89.3826,193.944 89,194.5C 88.3333,197.167 88.3333,199.833 89,202.5C 89.8159,203.823 90.9826,204.489 92.5,204.5C 92.5,205.167 92.5,205.833 92.5,206.5C 87.9701,205.646 85.9701,202.812 86.5,198C 86.3795,192.602 88.7128,190.435 93.5,191.5 Z"/></g>
<g><path style="opacity:1" fill="#515350" d="M 343.5,185.5 C 347.21,185.225 350.043,186.558 352,189.5C 352.667,193.5 352.667,197.5 352,201.5C 349.058,206.992 345.391,207.658 341,203.5C 339.125,198.209 339.125,192.875 341,187.5C 341.995,186.934 342.828,186.267 343.5,185.5 Z"/></g>
<g><path style="opacity:1" fill="#d3d5d2" d="M 343.5,187.5 C 345.722,187.178 347.556,187.845 349,189.5C 349.667,194.167 349.667,198.833 349,203.5C 346.733,204.935 344.733,204.602 343,202.5C 342.274,197.448 342.441,192.448 343.5,187.5 Z"/></g>
<g><path style="opacity:1" fill="#4f514e" d="M 118.5,190.5 C 125.146,192.007 131.813,192.507 138.5,192C 139,192.5 139.5,193 140,193.5C 140.499,197.821 140.666,202.154 140.5,206.5C 139.5,206.5 138.5,206.5 137.5,206.5C 137.5,202.167 137.5,197.833 137.5,193.5C 134.956,193.104 132.789,193.771 131,195.5C 129.848,209.841 128.848,209.508 128,194.5C 126.274,193.424 124.441,193.257 122.5,194C 121.536,198.066 121.203,202.233 121.5,206.5C 120.5,206.5 119.5,206.5 118.5,206.5C 118.5,201.167 118.5,195.833 118.5,190.5 Z"/></g>
<g><path style="opacity:1" fill="#535451" d="M 161.5,184.5 C 162.5,184.5 163.5,184.5 164.5,184.5C 164.831,191.863 164.497,199.197 163.5,206.5C 160.512,206.29 157.512,205.956 154.5,205.5C 150.18,200.267 150.513,195.434 155.5,191C 157.235,190.349 158.902,190.515 160.5,191.5C 161.474,189.257 161.808,186.924 161.5,184.5 Z"/></g>
<g><path style="opacity:1" fill="#d5d7d2" d="M 155.5,193.5 C 157.467,193.261 159.301,193.594 161,194.5C 162.004,197.993 161.504,201.159 159.5,204C 157.567,204.783 156.067,204.283 155,202.5C 154.264,199.408 154.431,196.408 155.5,193.5 Z"/></g>
<g><path style="opacity:1" fill="#515350" d="M 239.5,190.5 C 241.96,190.699 244.293,191.365 246.5,192.5C 245.311,193.429 243.978,193.762 242.5,193.5C 242.5,197.833 242.5,202.167 242.5,206.5C 241.5,206.5 240.5,206.5 239.5,206.5C 239.5,201.167 239.5,195.833 239.5,190.5 Z"/></g>
<g><path style="opacity:1" fill="#4c4e4c" d="M 301.5,185.5 C 305.426,185.047 308.592,186.38 311,189.5C 311.81,194.257 311.476,198.924 310,203.5C 305.752,207.842 302.085,207.508 299,202.5C 298.333,197.833 298.333,193.167 299,188.5C 300.045,187.627 300.878,186.627 301.5,185.5 Z"/></g>
<g><path style="opacity:1" fill="#d1d2d0" d="M 303.5,187.5 C 305.39,187.297 306.89,187.963 308,189.5C 308.667,193.833 308.667,198.167 308,202.5C 305.756,204.994 303.423,204.994 301,202.5C 299.784,196.968 300.617,191.968 303.5,187.5 Z"/></g>
<g><path style="opacity:1" fill="#4e504c" d="M 216.5,203.5 C 217.166,199.647 217.833,195.647 218.5,191.5C 219.494,196.456 219.827,201.456 219.5,206.5C 216.549,205.755 213.549,205.588 210.5,206C 209.667,205.167 208.833,204.333 208,203.5C 207.501,199.179 207.334,194.846 207.5,190.5C 208.5,190.5 209.5,190.5 210.5,190.5C 210.334,194.846 210.501,199.179 211,203.5C 212.828,204.752 214.661,204.752 216.5,203.5 Z"/></g>
<g><path style="opacity:1" fill="#686a67" d="M 266.5,203.5 C 267.5,203.5 268.5,203.5 269.5,203.5C 269.5,204.5 269.5,205.5 269.5,206.5C 268.5,206.5 267.5,206.5 266.5,206.5C 266.5,205.5 266.5,204.5 266.5,203.5 Z"/></g>
<g><path style="opacity:1" fill="#3b3b39" d="M 195.5,204.5 C 198.572,204.183 201.572,204.516 204.5,205.5C 200.893,206.489 197.226,206.823 193.5,206.5C 193.334,199.825 193.5,193.158 194,186.5C 194.172,192.681 194.672,198.681 195.5,204.5 Z"/></g>
<g><path style="opacity:1" fill="#656764" d="M 315.5,203.5 C 316.5,203.5 317.5,203.5 318.5,203.5C 318.5,204.5 318.5,205.5 318.5,206.5C 317.5,206.5 316.5,206.5 315.5,206.5C 315.5,205.5 315.5,204.5 315.5,203.5 Z"/></g>
<g><path style="opacity:1" fill="#4a4b4a" d="M 95.5,208.5 C 96.4889,203.025 96.8222,197.358 96.5,191.5C 96.56,190.957 96.8933,190.624 97.5,190.5C 98.6639,196.807 98.8306,203.141 98,209.5C 94.5299,213.142 91.0299,213.308 87.5,210C 87.6667,209.5 87.8333,209 88,208.5C 90.6206,211.14 93.1206,211.14 95.5,208.5 Z"/></g>
<g><path style="opacity:1" fill="#d6d7d6" d="M 751.5,1464.5 C 752.496,1464.59 753.329,1464.25 754,1463.5C 754.7,1465.03 755.866,1466.03 757.5,1466.5C 758.754,1464.74 758.421,1463.24 756.5,1462C 757,1461.83 757.5,1461.67 758,1461.5C 759.888,1462.78 761.888,1463.78 764,1464.5C 766.226,1466.28 767.392,1468.62 767.5,1471.5C 770.5,1471.5 773.5,1471.5 776.5,1471.5C 776.5,1474.17 776.5,1476.83 776.5,1479.5C 780.921,1480.26 783.255,1482.93 783.5,1487.5C 782.167,1487.5 780.833,1487.5 779.5,1487.5C 779.197,1490.59 780.53,1492.25 783.5,1492.5C 783.5,1493.5 783.5,1494.5 783.5,1495.5C 785.167,1495.5 786.833,1495.5 788.5,1495.5C 788.5,1498.17 788.5,1500.83 788.5,1503.5C 789.5,1503.5 790.5,1503.5 791.5,1503.5C 791.5,1516.83 791.5,1530.17 791.5,1543.5C 790.5,1543.5 789.5,1543.5 788.5,1543.5C 787.833,1548.83 787.167,1554.17 786.5,1559.5C 785.5,1559.5 784.5,1559.5 783.5,1559.5C 781.833,1563.17 779.167,1565.83 775.5,1567.5C 775.132,1572.53 772.465,1575.2 767.5,1575.5C 767.132,1580.53 764.465,1583.2 759.5,1583.5C 757.972,1586.54 755.806,1589.21 753,1591.5C 752.055,1591.09 751.388,1590.43 751,1589.5C 748.865,1591.28 746.365,1591.95 743.5,1591.5C 743.5,1593.17 743.5,1594.83 743.5,1596.5C 740.833,1596.5 738.167,1596.5 735.5,1596.5C 735.5,1597.5 735.5,1598.5 735.5,1599.5C 722.167,1599.5 708.833,1599.5 695.5,1599.5C 695.5,1598.5 695.5,1597.5 695.5,1596.5C 692.833,1596.5 690.167,1596.5 687.5,1596.5C 687.5,1594.83 687.5,1593.17 687.5,1591.5C 685.473,1591.66 683.473,1591.5 681.5,1591C 680.318,1589.32 679.152,1589.49 678,1591.5C 675.194,1589.21 673.028,1586.54 671.5,1583.5C 666.535,1583.2 663.868,1580.53 663.5,1575.5C 658.535,1575.2 655.868,1572.53 655.5,1567.5C 652.456,1565.97 649.79,1563.81 647.5,1561C 647.786,1558 647.786,1554.83 647.5,1551.5C 645.833,1551.5 644.167,1551.5 642.5,1551.5C 642.5,1548.83 642.5,1546.17 642.5,1543.5C 641.5,1543.5 640.5,1543.5 639.5,1543.5C 639.5,1530.17 639.5,1516.83 639.5,1503.5C 640.5,1503.5 641.5,1503.5 642.5,1503.5C 642.5,1500.83 642.5,1498.17 642.5,1495.5C 644.167,1495.5 645.833,1495.5 647.5,1495.5C 647.786,1492.17 647.786,1489 647.5,1486C 649.79,1483.19 652.456,1481.03 655.5,1479.5C 655.639,1476.41 656.639,1473.75 658.5,1471.5C 660.167,1471.5 661.833,1471.5 663.5,1471.5C 663.868,1466.47 666.535,1463.8 671.5,1463.5C 671.5,1464.83 671.5,1466.17 671.5,1467.5C 673.929,1467.12 676.263,1466.45 678.5,1465.5C 678.36,1463.88 679.027,1462.71 680.5,1462C 679.185,1460.61 679.519,1459.61 681.5,1459C 679.381,1458.9 677.714,1458.07 676.5,1456.5C 679.086,1455.52 681.753,1455.19 684.5,1455.5C 684.5,1456.5 684.5,1457.5 684.5,1458.5C 686.288,1458.79 687.955,1458.45 689.5,1457.5C 690.609,1455.79 689.942,1455.12 687.5,1455.5C 687.5,1453.83 687.5,1452.17 687.5,1450.5C 690.167,1450.5 692.833,1450.5 695.5,1450.5C 695.5,1449.5 695.5,1448.5 695.5,1447.5C 698.898,1447.86 702.065,1447.19 705,1445.5C 709.824,1446.27 714.657,1446.93 719.5,1447.5C 719.343,1446.13 719.51,1444.79 720,1443.5C 725.039,1444.86 730.205,1445.53 735.5,1445.5C 735.034,1447.2 735.034,1448.7 735.5,1450C 738.146,1450.5 740.813,1450.66 743.5,1450.5C 743.355,1453.05 742.855,1455.39 742,1457.5C 745.68,1459.38 748.846,1461.71 751.5,1464.5 Z"/></g>
<g><path style="opacity:1" fill="#56793b" d="M 754.5,1469.5 C 761.2,1473.86 765.533,1479.86 767.5,1487.5C 766.5,1487.5 765.5,1487.5 764.5,1487.5C 763.549,1482.19 760.882,1477.86 756.5,1474.5C 755.544,1472.92 754.877,1471.26 754.5,1469.5 Z"/></g>
<g><path style="opacity:1" fill="#487627" d="M 735.5,1460.5 C 739.66,1460.16 742.993,1461.66 745.5,1465C 747.345,1466.13 749.345,1466.63 751.5,1466.5C 752.694,1467.27 753.694,1468.27 754.5,1469.5C 754.877,1471.26 755.544,1472.92 756.5,1474.5C 760.882,1477.86 763.549,1482.19 764.5,1487.5C 765.5,1487.5 766.5,1487.5 767.5,1487.5C 768.167,1487.5 768.833,1487.5 769.5,1487.5C 771.463,1495.36 772.796,1503.36 773.5,1511.5C 773.455,1515.89 772.955,1520.22 772,1524.5C 770.326,1528.02 769.16,1531.69 768.5,1535.5C 767.566,1536.57 767.232,1537.9 767.5,1539.5C 763.833,1543.5 760.167,1547.5 756.5,1551.5C 754.857,1551.48 753.524,1552.15 752.5,1553.5C 750.397,1551.12 749.23,1551.79 749,1555.5C 746.343,1556.57 744.177,1558.24 742.5,1560.5C 738.328,1562.25 733.995,1563.42 729.5,1564C 727.416,1564.7 725.749,1565.86 724.5,1567.5C 717.5,1567.5 710.5,1567.5 703.5,1567.5C 682.129,1561.8 667.795,1548.46 660.5,1527.5C 660.5,1525.83 660.5,1524.17 660.5,1522.5C 660.32,1513.31 661.486,1504.31 664,1495.5C 665.214,1493.95 666.714,1492.78 668.5,1492C 667.342,1490.99 666.675,1489.66 666.5,1488C 666.815,1484.56 667.815,1481.39 669.5,1478.5C 675.403,1473.53 681.403,1468.53 687.5,1463.5C 692.709,1461.92 698.042,1460.92 703.5,1460.5C 703.5,1462.17 703.5,1463.83 703.5,1465.5C 701.08,1465.29 698.747,1465.63 696.5,1466.5C 695.386,1467.72 695.219,1469.06 696,1470.5C 697.231,1469.89 698.564,1469.56 700,1469.5C 706.389,1471.19 712.889,1471.86 719.5,1471.5C 719.5,1466.5 719.5,1461.5 719.5,1456.5C 724.42,1456.25 728.086,1458.25 730.5,1462.5C 732.071,1463.31 733.738,1463.64 735.5,1463.5C 735.5,1462.5 735.5,1461.5 735.5,1460.5 Z"/></g>
<g><path style="opacity:1" fill="#65854f" d="M 729.5,1455.5 C 731.604,1455.2 733.604,1455.53 735.5,1456.5C 740.983,1458.99 746.316,1461.65 751.5,1464.5C 751.5,1465.17 751.5,1465.83 751.5,1466.5C 749.345,1466.63 747.345,1466.13 745.5,1465C 742.993,1461.66 739.66,1460.16 735.5,1460.5C 734.106,1458.11 732.106,1456.44 729.5,1455.5 Z"/></g>
<g><path style="opacity:1" fill="#4c752c" d="M 727.5,1455.5 C 728.167,1455.5 728.833,1455.5 729.5,1455.5C 732.106,1456.44 734.106,1458.11 735.5,1460.5C 735.5,1461.5 735.5,1462.5 735.5,1463.5C 733.738,1463.64 732.071,1463.31 730.5,1462.5C 728.086,1458.25 724.42,1456.25 719.5,1456.5C 719.5,1461.5 719.5,1466.5 719.5,1471.5C 712.889,1471.86 706.389,1471.19 700,1469.5C 698.564,1469.56 697.231,1469.89 696,1470.5C 695.219,1469.06 695.386,1467.72 696.5,1466.5C 698.747,1465.63 701.08,1465.29 703.5,1465.5C 703.5,1463.83 703.5,1462.17 703.5,1460.5C 698.042,1460.92 692.709,1461.92 687.5,1463.5C 681.403,1468.53 675.403,1473.53 669.5,1478.5C 677.544,1466.15 688.877,1458.48 703.5,1455.5C 711.5,1454.17 719.5,1454.17 727.5,1455.5 Z"/></g>
<g><path style="opacity:1" fill="#668154" d="M 727.5,1455.5 C 719.5,1454.17 711.5,1454.17 703.5,1455.5C 711.493,1452.88 719.493,1452.88 727.5,1455.5 Z"/></g>
<g><path style="opacity:1" fill="#bbc9b2" d="M 662.5,1490.5 C 659.778,1497.15 658.445,1504.15 658.5,1511.5C 658.294,1515.47 658.961,1519.14 660.5,1522.5C 660.5,1524.17 660.5,1525.83 660.5,1527.5C 659.833,1527.5 659.167,1527.5 658.5,1527.5C 657.579,1517.87 657.245,1508.21 657.5,1498.5C 658.469,1496.34 659.302,1494 660,1491.5C 660.671,1490.75 661.504,1490.41 662.5,1490.5 Z"/></g>
<g><path style="opacity:1" fill="#517733" d="M 669.5,1478.5 C 667.815,1481.39 666.815,1484.56 666.5,1488C 666.675,1489.66 667.342,1490.99 668.5,1492C 666.714,1492.78 665.214,1493.95 664,1495.5C 661.486,1504.31 660.32,1513.31 660.5,1522.5C 658.961,1519.14 658.294,1515.47 658.5,1511.5C 658.445,1504.15 659.778,1497.15 662.5,1490.5C 663.826,1485.84 666.159,1481.84 669.5,1478.5 Z"/></g>
<g><path style="opacity:1" fill="#8ca57b" d="M 714.5,1497.5 C 715.833,1496.17 717.167,1496.17 718.5,1497.5C 718.5,1501.17 718.5,1504.83 718.5,1508.5C 722.5,1508.5 726.5,1508.5 730.5,1508.5C 730.5,1510.17 730.5,1511.83 730.5,1513.5C 726.5,1513.5 722.5,1513.5 718.5,1513.5C 721.962,1512.52 725.629,1512.19 729.5,1512.5C 729.5,1511.5 729.5,1510.5 729.5,1509.5C 725.5,1509.5 721.5,1509.5 717.5,1509.5C 717.5,1505.5 717.5,1501.5 717.5,1497.5C 716.5,1497.5 715.5,1497.5 714.5,1497.5 Z"/></g>
<g><path style="opacity:1" fill="#b2c2a7" d="M 769.5,1487.5 C 771.095,1489.11 772.261,1491.11 773,1493.5C 774.297,1502.11 774.797,1510.78 774.5,1519.5C 774.5,1521.5 774.5,1523.5 774.5,1525.5C 772.5,1528.83 770.5,1532.17 768.5,1535.5C 769.16,1531.69 770.326,1528.02 772,1524.5C 772.955,1520.22 773.455,1515.89 773.5,1511.5C 772.796,1503.36 771.463,1495.36 769.5,1487.5 Z"/></g>
<g><path style="opacity:1" fill="#507435" d="M 714.5,1497.5 C 714.5,1501.5 714.5,1505.5 714.5,1509.5C 710.818,1509.33 707.152,1509.5 703.5,1510C 702.663,1511.01 702.33,1512.18 702.5,1513.5C 706.167,1513.5 709.833,1513.5 713.5,1513.5C 713.5,1517.5 713.5,1521.5 713.5,1525.5C 715.167,1525.5 716.833,1525.5 718.5,1525.5C 718.5,1521.5 718.5,1517.5 718.5,1513.5C 722.5,1513.5 726.5,1513.5 730.5,1513.5C 730.5,1511.83 730.5,1510.17 730.5,1508.5C 726.5,1508.5 722.5,1508.5 718.5,1508.5C 718.5,1504.83 718.5,1501.17 718.5,1497.5C 719.479,1500.62 719.813,1503.96 719.5,1507.5C 723.514,1507.33 727.514,1507.5 731.5,1508C 734.167,1510.33 734.167,1512.67 731.5,1515C 727.514,1515.5 723.514,1515.67 719.5,1515.5C 719.824,1519.55 719.491,1523.55 718.5,1527.5C 716.031,1529.01 713.865,1528.67 712,1526.5C 711.421,1522.8 711.588,1519.13 712.5,1515.5C 708.774,1515.82 705.107,1515.49 701.5,1514.5C 700.626,1512.25 700.292,1509.92 700.5,1507.5C 704.5,1507.5 708.5,1507.5 712.5,1507.5C 712.335,1504.48 712.502,1501.48 713,1498.5C 713.383,1497.94 713.883,1497.61 714.5,1497.5 Z"/></g>
<g><path style="opacity:1" fill="#cddbc6" d="M 714.5,1497.5 C 715.5,1497.5 716.5,1497.5 717.5,1497.5C 717.5,1501.5 717.5,1505.5 717.5,1509.5C 721.5,1509.5 725.5,1509.5 729.5,1509.5C 729.5,1510.5 729.5,1511.5 729.5,1512.5C 725.629,1512.19 721.962,1512.52 718.5,1513.5C 717.518,1516.96 717.185,1520.63 717.5,1524.5C 716.5,1524.5 715.5,1524.5 714.5,1524.5C 714.815,1520.63 714.482,1516.96 713.5,1513.5C 709.833,1513.5 706.167,1513.5 702.5,1513.5C 702.33,1512.18 702.663,1511.01 703.5,1510C 707.152,1509.5 710.818,1509.33 714.5,1509.5C 714.5,1505.5 714.5,1501.5 714.5,1497.5 Z"/></g>
<g><path style="opacity:1" fill="#c7c7c7" d="M 657.5,1498.5 C 657.245,1508.21 657.579,1517.87 658.5,1527.5C 658.62,1529.73 658.287,1531.9 657.5,1534C 660.862,1542.23 664.528,1550.4 668.5,1558.5C 671.929,1561.94 675.596,1564.94 679.5,1567.5C 679.281,1568.68 679.614,1569.68 680.5,1570.5C 685.632,1573.76 690.965,1576.59 696.5,1579C 704.459,1580.61 712.459,1581.77 720.5,1582.5C 724.549,1581.71 728.549,1580.71 732.5,1579.5C 733.167,1579.83 733.833,1580.17 734.5,1580.5C 735.072,1578.92 735.406,1577.42 735.5,1576C 740.057,1574.52 744.39,1572.52 748.5,1570C 754.658,1564.51 760.824,1559.01 767,1553.5C 770.932,1544.61 773.432,1535.28 774.5,1525.5C 774.5,1523.5 774.5,1521.5 774.5,1519.5C 775.488,1514.36 775.821,1509.03 775.5,1503.5C 776.5,1503.5 777.5,1503.5 778.5,1503.5C 778.76,1511.22 779.427,1518.89 780.5,1526.5C 779.05,1531.04 778.217,1535.71 778,1540.5C 775.042,1546.67 772.542,1553.01 770.5,1559.5C 769.5,1559.5 768.5,1559.5 767.5,1559.5C 767.306,1562.33 766.639,1565 765.5,1567.5C 764.127,1567.34 762.793,1567.51 761.5,1568C 743.862,1585.68 722.696,1591.51 698,1585.5C 673.782,1577.02 658.782,1560.36 653,1535.5C 651.67,1529.55 651.337,1523.55 652,1517.5C 654.285,1511.2 656.119,1504.87 657.5,1498.5 Z"/></g>
<g><path style="opacity:1" fill="#94ad83" d="M 713.5,1513.5 C 714.482,1516.96 714.815,1520.63 714.5,1524.5C 715.5,1524.5 716.5,1524.5 717.5,1524.5C 717.185,1520.63 717.518,1516.96 718.5,1513.5C 718.5,1517.5 718.5,1521.5 718.5,1525.5C 716.833,1525.5 715.167,1525.5 713.5,1525.5C 713.5,1521.5 713.5,1517.5 713.5,1513.5 Z"/></g>
<g><path style="opacity:1" fill="#bababa" d="M 774.5,1525.5 C 773.432,1535.28 770.932,1544.61 767,1553.5C 760.824,1559.01 754.658,1564.51 748.5,1570C 744.39,1572.52 740.057,1574.52 735.5,1576C 735.406,1577.42 735.072,1578.92 734.5,1580.5C 733.833,1580.17 733.167,1579.83 732.5,1579.5C 728.549,1580.71 724.549,1581.71 720.5,1582.5C 712.459,1581.77 704.459,1580.61 696.5,1579C 690.965,1576.59 685.632,1573.76 680.5,1570.5C 679.614,1569.68 679.281,1568.68 679.5,1567.5C 675.596,1564.94 671.929,1561.94 668.5,1558.5C 664.528,1550.4 660.862,1542.23 657.5,1534C 658.287,1531.9 658.62,1529.73 658.5,1527.5C 659.167,1527.5 659.833,1527.5 660.5,1527.5C 661.12,1533.79 663.287,1539.46 667,1544.5C 667.977,1546.74 668.477,1549.07 668.5,1551.5C 670.288,1551.21 671.955,1551.55 673.5,1552.5C 672.289,1553.72 672.289,1554.89 673.5,1556C 672.692,1556.31 672.025,1556.81 671.5,1557.5C 672.99,1558.83 674.324,1560.33 675.5,1562C 683.143,1566.3 690.81,1570.63 698.5,1575C 709.514,1578.14 720.514,1578.14 731.5,1575C 730.833,1574.67 730.167,1574.33 729.5,1574C 731.814,1572.6 734.147,1572.44 736.5,1573.5C 747.234,1569.21 754.567,1561.88 758.5,1551.5C 763.728,1549.26 766.728,1545.26 767.5,1539.5C 767.232,1537.9 767.566,1536.57 768.5,1535.5C 770.5,1532.17 772.5,1528.83 774.5,1525.5 Z"/></g>
<g><path style="opacity:1" fill="#acafa9" d="M 660.5,1527.5 C 667.795,1548.46 682.129,1561.8 703.5,1567.5C 710.609,1569.27 717.942,1569.77 725.5,1569C 726.416,1568.72 727.082,1568.22 727.5,1567.5C 733.879,1565.65 740.213,1563.49 746.5,1561C 750.005,1557.99 753.338,1554.83 756.5,1551.5C 760.167,1547.5 763.833,1543.5 767.5,1539.5C 766.728,1545.26 763.728,1549.26 758.5,1551.5C 754.567,1561.88 747.234,1569.21 736.5,1573.5C 734.147,1572.44 731.814,1572.6 729.5,1574C 730.167,1574.33 730.833,1574.67 731.5,1575C 720.514,1578.14 709.514,1578.14 698.5,1575C 690.81,1570.63 683.143,1566.3 675.5,1562C 674.324,1560.33 672.99,1558.83 671.5,1557.5C 672.025,1556.81 672.692,1556.31 673.5,1556C 672.289,1554.89 672.289,1553.72 673.5,1552.5C 671.955,1551.55 670.288,1551.21 668.5,1551.5C 668.477,1549.07 667.977,1546.74 667,1544.5C 663.287,1539.46 661.12,1533.79 660.5,1527.5 Z"/></g>
<g><path style="opacity:1" fill="#54773b" d="M 756.5,1551.5 C 753.338,1554.83 750.005,1557.99 746.5,1561C 740.213,1563.49 733.879,1565.65 727.5,1567.5C 726.5,1567.5 725.5,1567.5 724.5,1567.5C 725.749,1565.86 727.416,1564.7 729.5,1564C 733.995,1563.42 738.328,1562.25 742.5,1560.5C 744.177,1558.24 746.343,1556.57 749,1555.5C 749.23,1551.79 750.397,1551.12 752.5,1553.5C 753.524,1552.15 754.857,1551.48 756.5,1551.5 Z"/></g>
<g><path style="opacity:1" fill="#798c6a" d="M 703.5,1567.5 C 710.5,1567.5 717.5,1567.5 724.5,1567.5C 725.5,1567.5 726.5,1567.5 727.5,1567.5C 727.082,1568.22 726.416,1568.72 725.5,1569C 717.942,1569.77 710.609,1569.27 703.5,1567.5 Z"/></g>
</svg>
